{
.appVersion = "3134";
.formatVersion = 3;
DisplayStrings = (
"`~!@#$%^&*()_+-=[/backslash ]{|};:'\",.//<>?
Aa Bb Cc Dd Ee Ff Gg Hh Ii Jj Kk Ll Mm Nn Oo Pp Qq Rr Ss Tt Uu Vv Ww Xx Yy Zz
0123456789"
);
customParameters = (
{
name = vendorID;
value = ITFO;
},
{
name = panose;
value = (
0,
0,
9,
0,
0,
0,
0,
0,
0,
0
);
},
{
name = unicodeRanges;
value = (
0,
1,
2,
15
);
},
{
name = codePageRanges;
value = (
"1252",
"1250",
"1254",
"1257",
"bit 29"
);
},
{
name = fsType;
value = (
);
},
{
name = glyphOrder;
value = (
.notdef,
NULL,
CR,
space,
dvA,
dvAA,
dvI,
dvII,
dvU,
dvUU,
dvvR,
dvvRR,
dvvL,
dvvLL,
dvE,
dvAI,
dvO,
dvAU,
dvEcandra,
dvAcandra,
dvOcandra,
dvmAA,
dvmI,
dvmII,
dvmU,
dvmUU,
dvmvR,
dvmvRR,
dvmvL,
dvmvLL,
dvmE,
dvmAI,
dvmO,
dvmAU,
dvmEcandra,
dvmOcandra,
dvKA,
dvKHA,
dvGA,
dvGHA,
dvNGA,
dvCA,
dvCHA,
dvJA,
dvJHA,
dvNYA,
dvTTA,
dvTTHA,
dvDDA,
dvDDHA,
dvNNA,
dvTA,
dvTHA,
dvDA,
dvDHA,
dvNA,
dvPA,
dvPHA,
dvBA,
dvBHA,
dvMA,
dvYA,
dvRA,
dvLA,
dvVA,
dvSHA,
dvSSA,
dvSA,
dvHA,
dvLLA,
dvK_SSA,
dvJ_NYA,
dvKxA,
dvKHxA,
dvGxA,
dvJxA,
dvDDxA,
dvDDHxA,
dvPHxA,
dvRxA,
dvK,
dvKH,
dvG,
dvGH,
dvNG,
dvC,
dvCH,
dvJ,
dvJH,
dvNY,
dvTT,
dvTTH,
dvDD,
dvDDH,
dvNN,
dvT,
dvTH,
dvD,
dvDH,
dvN,
dvP,
dvPH,
dvB,
dvBH,
dvM,
dvY,
dvR,
dvL,
dvV,
dvSH,
dvSS,
dvS,
dvH,
dvLL,
dvK_SS,
dvJ_NY,
dvKx,
dvKHx,
dvGx,
dvJx,
dvPHx,
dvAnusvara,
dvCandrabindu,
dvVisarga,
dvAvagraha,
dvVirama,
dvNukta,
dvZero,
dvOne,
dvTwo,
dvThree,
dvFour,
dvFive,
dvSix,
dvSeven,
dvEight,
dvNine,
dvOm,
dvAbbreviationsign,
danda,
doubledanda,
rupee,
indianrupee,
zerowidthnonjoiner,
zerowidthjoiner,
dottedcircle,
dvReph,
dvEyelash,
dvRashtrasign,
dvK_RA,
dvKH_RA,
dvG_RA,
dvGH_RA,
dvNG_RA,
dvC_RA,
dvCH_RA,
dvJ_RA,
dvJH_RA,
dvNY_RA,
dvTT_RA,
dvTTH_RA,
dvDD_RA,
dvDDH_RA,
dvNN_RA,
dvT_RA,
dvTH_RA,
dvD_RA,
dvDH_RA,
dvN_RA,
dvP_RA,
dvPH_RA,
dvB_RA,
dvBH_RA,
dvM_RA,
dvY_RA,
dvL_RA,
dvV_RA,
dvSH_RA,
dvSS_RA,
dvS_RA,
dvH_RA,
dvLL_RA,
dvKx_RA,
dvKHx_RA,
dvGx_RA,
dvJx_RA,
dvPHx_RA,
dvK_R,
dvKH_R,
dvG_R,
dvGH_R,
dvNG_R,
dvC_R,
dvCH_R,

glyphs = (
{
glyphname = .notdef;
layers = (
{
layerId = m01;
shapes = (
{
closed = 1;
nodes = (
(0,0,l),
(500,0,l),
(500,700,l),
(0,700,l)
);
},
{
closed = 1;
nodes = (
(250,395,l),
(80,650,l),
(420,650,l)
);
},
{
closed = 1;
nodes = (
(280,350,l),
(450,605,l),
(450,95,l)
);
},
{
closed = 1;
nodes = (
(80,50,l),
(250,305,l),
(420,50,l)
);
},
{
closed = 1;
nodes = (
(50,605,l),
(220,350,l),
(50,95,l)
);
}
);
width = 500;
}
);
note = ".notdef";
},
{
glyphname = dvR;
layers = (
{
layerId = m01;
shapes = (
{
closed = 1;
nodes = (
(309,-290,l),
(493,-290,l),
(357,-60,l),
(178,-60,l)
);
},
{
closed = 1;
nodes = (
(-14,590,l),
(289,590,l),
(289,551,ls),
(289,480,o),
(261,432,o),
(156,432,cs),
(56,432,l),
(56,209,ls),
(56,87,o),
(134,-9,o),
(283,-9,cs),
(418,-9,o),
(496,75,o),
(496,204,cs),
(496,208,o),
(496,217,o),
(495,228,c),
(322,228,l),
(322,198,ls),
(322,167,o),
(307,144,o),
(279,144,cs),
(248,144,o),
(235,169,o),
(235,200,cs),
(235,287,l),
(419,291,o),
(469,408,o),
(469,551,cs),
(469,590,l),
(543,590,l),
(543,740,l),
(-14,740,l)
);
}
);
width = 529;
}
);
note = dvR;
},
{
glyphname = dvKx;
layers = (
{
layerId = m01;
shapes = (
{
closed = 1;
nodes = (
(399,0,l),
(573,0,l),
(573,278,ls),
(573,330,o),
(598,369,o),
(649,369,cs),
(698,369,o),
(725,332,o),
(725,288,c),
(908,288,l),
(908,418,o),
(838,522,o),
(708,522,cs),
(647,522,o),
(601,499,o),
(573,461,c),
(573,590,l),
(908,590,l),
(908,740,l),
(-14,740,l),
(-14,590,l),
(399,590,l),
(399,462,l),
(370,499,o),
(323,522,o),
(259,522,cs),
(124,522,o),
(47,426,o),
(47,288,cs),
(47,152,o),
(123,54,o),
(252,54,cs),
(320,54,o),
(369,78,o),
(399,118,c)
);
},
{
closed = 1;
nodes = (
(285,-202,o),
(330,-157,o),
(330,-101,cs),
(330,-43,o),
(285,3,o),
(227,3,cs),
(170,3,o),
(125,-43,o),
(125,-101,cs),
(125,-157,o),
(170,-202,o),
(227,-202,cs)
);
},
{
closed = 1;
nodes = (
(264,205,o),
(231,238,o),
(231,287,cs),
(231,336,o),
(266,369,o),
(315,369,cs),
(369,369,o),
(399,332,o),
(399,288,cs),
(399,244,o),
(367,205,o),
(315,205,cs)
);
}
);
width = 689;
}
);
note = dvKx;
},
{
glyphname = dvGx;
layers = (
{
layerId = m01;
shapes = (
{
closed = 1;
nodes = (
(-14,590,l),
(293,590,l),
(293,370,ls),
(293,341,o),
(287,306,o),
(251,306,cs),
(218,306,o),
(207,333,o),
(207,370,cs),
(207,402,l),
(33,402,l),
(32,391,o),
(32,380,o),
(32,369,cs),
(32,226,o),
(116,152,o),
(256,152,cs),
(408,152,o),
(473,250,o),
(473,378,cs),
(473,590,l),
(581,590,l),
(581,740,l),
(-14,740,l)
);
},
{
closed = 1;
nodes = (
(314,-104,o),
(359,-59,o),
(359,-3,cs),
(359,55,o),
(314,101,o),
(256,101,cs),
(199,101,o),
(154,55,o),
(154,-3,cs),
(154,-59,o),
(199,-104,o),
(256,-104,cs)
);
}
);
width = 567;
}
);
note = dvGx;
},
{
glyphname = dvJx;
layers = (
{
layerId = m01;
shapes = (
{
closed = 1;
nodes = (
(432,90,o),
(521,186,o),
(521,322,cs),
(521,331,l),
(708,331,l),
(708,485,l),
(345,485,l),
(345,327,ls),
(345,276,o),
(324,248,o),
(286,248,cs),
(247,248,o),
(226,276,o),
(226,327,cs),
(226,485,l),
(44,485,l),
(44,322,ls),
(44,186,o),
(125,90,o),
(286,90,cs)
);
},
{
closed = 1;
nodes = (
(-14,590,l),
(708,590,l),
(708,740,l),
(-14,740,l)
);
},
{
closed = 1;
nodes = (
(344,-164,o),
(389,-119,o),
(389,-63,cs),
(389,-5,o),
(344,41,o),
(286,41,cs),
(229,41,o),
(184,-5,o),
(184,-63,cs),
(184,-119,o),
(229,-164,o),
(286,-164,cs)
);
}
);
width = 552;
}
);
note = dvJx;
},
{
glyphname = rupee;
layers = (
{
layerId = m01;
shapes = (
{
closed = 1;
nodes = (
(429,420,o),
(402,395,o),
(349,395,cs),
(252,395,l),
(252,542,l),
(349,542,ls),
(402,542,o),
(429,513,o),
(429,468,cs)
);
},
{
closed = 1;
nodes = (
(56,705,l),
(56,0,l),
(252,0,l),
(252,261,l),
(269,261,l),
(412,0,l),
(632,0,l),
(470,275,l),
(577,306,o),
(628,387,o),
(628,479,cs),
(628,605,o),
(540,705,o),
(365,705,cs)
);
},
{
closed = 1;
nodes = (
(662,185,o),
(993,254,o),
(993,173,cs),
(993,153,o),
(978,138,o),
(939,138,cs),
(900,138,o),
(864,152,o),
(860,189,c),
(667,189,l),
(685,61,o),
(786,-7,o),
(942,-7,cs),
(1088,-7,o),
(1173,69,o),
(1173,168,cs),
(1173,373,o),
(838,311,o),
(838,388,cs),
(838,410,o),
(860,422,o),
(895,422,cs),
(934,422,o),
(966,407,o),
(973,372,c),
(1166,372,l),
(1147,485,o),
(1060,568,o),
(899,568,cs),
(745,568,o),
(662,488,o),
(662,393,cs)
);
}
);
width = 1210;
}
);
note = rupee;
unicode = 8360;
},
{
glyphname = indianrupee;
layers = (
{
layerId = m01;
shapes = (
{
closed = 1;
nodes = (
(34,575,l),
(302,575,l),
(302,529,l),
(34,529,l),
(34,414,l),
(296,414,l),
(280,364,o),
(225,359,o),
(44,359,c),
(44,233,ls),
(44,64,o),
(132,-10,o),
(285,-10,cs),
(430,-10,o),
(501,76,o),
(508,207,c),
(327,207,l),
(327,160,o),
(315,137,o),
(277,137,cs),
(238,137,o),
(227,165,o),
(227,203,cs),
(227,232,l),
(384,232,o),
(459,307,o),
(479,414,c),
(557,414,l),
(557,529,l),
(485,529,l),
(485,575,l),
(557,575,l),
(557,705,l),
(34,705,l)
);
}
);
width = 588;
}
);
note = indianrupee;
unicode = 8377;
},
{
glyphname = zerowidthnonjoiner;
layers = (
{
layerId = m01;
shapes = (
{
closed = 1;
nodes = (
(24,-230,l),
(24,811,l),
(-23,811,l),
(-23,-230,l)
);
}
);
width = 0;
}
);
note = zerowidthnonjoiner;
unicode = 8204;
},
{
glyphname = zerowidthjoiner;
layers = (
{
layerId = m01;
shapes = (
{
closed = 1;
nodes = (
(128,593,l),
(32,688,l),
(128,784,l),
(96,816,l),
(0,721,l),
(-95,816,l),
(-128,783,l),
(-33,688,l),
(-126,595,l),
(-93,562,l),
(-24,635,l),
(-24,-230,l),
(23,-230,l),
(23,635,l),
(95,560,l)
);
}
);
width = 0;
}
);
note = zerowidthjoiner;
unicode = 8205;
},
{
glyphname = dottedcircle;
layers = (
{
layerId = m01;
shapes = (
{
closed = 1;
nodes = (
(557,434,o),
(539,451,o),
(514,451,cs),
(489,451,o),
(471,434,o),
(471,409,cs),
(471,384,o),
(489,367,o),
(514,367,cs),
(539,367,o),
(557,384,o),
(557,409,cs)
);
},
{
closed = 1;
nodes = (
(181,148,o),
(163,165,o),
(138,165,cs),
(113,165,o),
(95,148,o),
(95,123,cs),
(95,98,o),
(113,81,o),
(138,81,cs),
(163,81,o),
(181,98,o),
(181,123,cs)
);
},
{
closed = 1;
nodes = (
(279,72,o),
(261,89,o),
(236,89,cs),
(211,89,o),
(193,72,o),
(193,47,cs),
(193,22,o),
(211,5,o),
(236,5,cs),
(261,5,o),
(279,22,o),
(279,47,cs)
);
},
{
closed = 1;
nodes = (
(136,261,o),
(118,278,o),
(93,278,cs),
(68,278,o),
(50,261,o),
(50,236,cs),
(50,211,o),
(68,194,o),
(93,194,cs),
(118,194,o),
(136,211,o),
(136,236,cs)
);
},
{
closed = 1;
nodes = (
(403,58,o),
(385,75,o),
(360,75,cs),
(335,75,o),
(317,58,o),
(317,33,cs),
(317,8,o),
(335,-9,o),
(360,-9,cs),
(385,-9,o),
(403,8,o),
(403,33,cs)
);
},
{
closed = 1;
nodes = (
(151,382,o),
(133,399,o),
(108,399,cs),
(83,399,o),
(65,382,o),
(65,357,cs),
(65,332,o),
(83,315,o),
(108,315,cs),
(133,315,o),
(151,332,o),
(151,357,cs)
);
},
{
closed = 1;
nodes = (
(518,104,o),
(500,121,o),
(475,121,cs),
(450,121,o),
(432,104,o),
(432,79,cs),
(432,54,o),
(450,37,o),
(475,37,cs),
(500,37,o),
(518,54,o),
(518,79,cs)
);
},
{
closed = 1;
nodes = (
(227,481,o),
(209,498,o),
(184,498,cs),
(159,498,o),
(141,481,o),
(141,456,cs),
(141,431,o),
(159,414,o),
(184,414,cs),
(209,414,o),
(227,431,o),
(227,456,cs)
);
},
{
closed = 1;
nodes = (
(591,200,o),
(573,217,o),
(548,217,cs),
(523,217,o),
(505,200,o),
(505,175,cs),
(505,150,o),
(523,133,o),
(548,133,cs),
(573,133,o),
(591,150,o),
(591,175,cs)
);
},
{
closed = 1;
nodes = (
(344,523,o),
(326,540,o),
(301,540,cs),
(276,540,o),
(258,523,o),
(258,498,cs),
(258,473,o),
(276,456,o),
(301,456,cs),
(326,456,o),
(344,473,o),
(344,498,cs)
);
},
{
closed = 1;
nodes = (
(601,320,o),
(583,337,o),
(558,337,cs),
(533,337,o),
(515,320,o),
(515,295,cs),
(515,270,o),
(533,253,o),
(558,253,cs),
(583,253,o),
(601,270,o),
(601,295,cs)
);
},
{
closed = 1;
nodes = (
(465,508,o),
(447,525,o),
(422,525,cs),
(397,525,o),
(379,508,o),
(379,483,cs),
(379,458,o),
(397,441,o),
(422,441,cs),
(447,441,o),
(465,458,o),
(465,483,cs)
);
}
);
width = 651;
}
);
note = dottedcircle;
unicode = 9676;
},
{
glyphname = dvEyelash;
layers = (
{
layerId = m01;
shapes = (
{
closed = 1;
nodes = (
(399,430,l),
(377,418,o),
(350,407,o),
(309,407,cs),
(254,407,o),
(205,432,o),
(201,502,c),
(29,502,l),
(35,337,o),
(156,278,o),
(284,278,cs),
(355,278,o),
(424,300,o),
(469,332,c)
);
},
{
closed = 1;
nodes = (
(-14,590,l),
(467,590,l),
(467,740,l),
(-14,740,l)
);
}
);
width = 372;
}
);
note = dvEyelash;
},
{
glyphname = dvRashtrasign;
layers = (
{
layerId = m01;
shapes = (
{
closed = 1;
nodes = (
(-594,-97,l),
(-413,-97,l),
(-335,12,l),
(-257,-97,l),
(-74,-97,l),
(-215,82,l),
(-455,82,l)
);
}
);
width = 0;
}
);
note = dvRashtrasign;
},
{
glyphname = dvKx_RA;
layers = (
{
layerId = m01;
shapes = (
{
closed = 1;
nodes = (
(487,0,l),
(659,0,l),
(659,278,l),
(663,327,o),
(686,369,o),
(737,369,cs),
(786,369,o),
(812,332,o),
(812,288,cs),
(812,240,o),
(781,211,o),
(741,211,cs),
(733,211,o),
(725,212,o),
(720,214,c),
(720,73,l),
(746,67,o),
(766,65,o),
(790,65,cs),
(909,65,o),
(995,148,o),
(995,292,cs),
(995,418,o),
(925,522,o),
(794,522,cs),
(734,522,o),
(687,499,o),
(659,461,c),
(659,590,l),
(1057,590,l),
(1057,740,l),
(-14,740,l),
(-14,590,l),
(487,590,l),
(487,461,l),
(458,499,o),
(411,522,o),
(346,522,cs),
(211,522,o),
(135,426,o),
(135,288,cs),
(135,188,o),
(186,111,o),
(266,82,c),
(155,-46,l),
(349,-46,l),
(484,126,ls),
(485,127,o),
(486,128,o),
(487,130,c)
);
},
{
closed = 1;
nodes = (
(122,-22,o),
(160,16,o),
(160,63,cs),
(160,112,o),
(122,151,o),
(74,151,cs),
(25,151,o),
(-12,112,o),
(-12,63,cs),
(-12,16,o),
(25,-22,o),
(74,-22,cs)
);
},
{
closed = 1;
nodes = (
(350,205,o),
(318,238,o),
(318,287,cs),
(318,336,o),
(352,369,o),
(403,369,cs),
(456,369,o),
(487,332,o),
(487,288,cs),
(487,244,o),
(454,205,o),
(402,205,cs)
);
}
);
width = 1043;
}
);
note = dvKx_RA;
},
{
glyphname = dvGx_RA;
layers = (
{
layerId = m01;
shapes = (
{
closed = 1;
nodes = (
(587,0,l),
(763,0,l),
(763,590,l),
(850,590,l),
(850,740,l),
(-14,740,l),
(-14,590,l),
(293,590,l),
(293,443,ls),
(293,414,o),
(287,380,o),
(251,380,cs),
(218,380,o),
(207,406,o),
(207,443,cs),
(207,475,l),
(33,475,l),
(32,464,o),
(32,453,o),
(32,442,cs),
(32,299,o),
(116,226,o),
(256,226,cs),
(408,226,o),
(473,324,o),
(473,451,cs),
(473,590,l),
(583,590,l),
(583,344,l),
(199,-20,l),
(406,-20,l),
(587,162,l)
);
},
{
closed = 1;
nodes = (
(151,7,o),
(189,45,o),
(189,92,cs),
(189,141,o),
(151,180,o),
(103,180,cs),
(54,180,o),
(17,141,o),
(17,92,cs),
(17,45,o),
(54,7,o),
(103,7,cs)
);
}
);
width = 836;
}
);
note = dvGx_RA;
},
{
glyphname = dvJx_RA;
layers = (
{
layerId = m01;
shapes = (
{
closed = 1;
nodes = (
(-14,590,l),
(620,590,l),
(620,491,l),
(345,491,l),
(345,396,ls),
(345,345,o),
(324,317,o),
(285,317,cs),
(246,317,o),
(226,345,o),
(226,396,cs),
(226,491,l),
(44,491,l),
(44,391,ls),
(44,255,o),
(125,159,o),
(286,159,cs),
(415,159,o),
(493,234,o),
(510,345,c),
(620,345,l),
(620,317,l),
(267,-53,l),
(464,-53,l),
(625,134,l),
(625,0,l),
(793,0,l),
(793,590,l),
(880,590,l),
(880,740,l),
(-14,740,l)
);
},
{
closed = 1;
nodes = (
(192,-50,o),
(230,-12,o),
(230,35,cs),
(230,84,o),
(192,123,o),
(144,123,cs),
(95,123,o),
(58,84,o),
(58,35,cs),
(58,-12,o),
(95,-50,o),
(144,-50,cs)
);
}
);
width = 866;
}
);
note = dvJx_RA;
},
{
glyphname = dvKx_R;
layers = (
{
layerId = m01;
shapes = (
{
closed = 1;
nodes = (
(487,0,l),
(659,0,l),
(659,278,l),
(663,327,o),
(686,369,o),
(737,369,cs),
(786,369,o),
(812,332,o),
(812,288,c),
(995,288,l),
(995,418,o),
(925,522,o),
(794,522,cs),
(734,522,o),
(687,499,o),
(659,461,c),
(659,590,l),
(995,590,l),
(995,740,l),
(-14,740,l),
(-14,590,l),
(487,590,l),
(487,461,l),
(458,499,o),
(411,522,o),
(346,522,cs),
(211,522,o),
(135,426,o),
(135,288,cs),
(135,188,o),
(186,111,o),
(266,82,c),
(155,-46,l),
(349,-46,l),
(484,126,ls),
(485,127,o),
(486,128,o),
(487,130,c)
);
},
{
closed = 1;
nodes = (
(122,-22,o),
(160,16,o),
(160,63,cs),
(160,112,o),
(122,151,o),
(74,151,cs),
(25,151,o),
(-12,112,o),
(-12,63,cs),
(-12,16,o),
(25,-22,o),
(74,-22,cs)
);
},
{
closed = 1;
nodes = (
(350,205,o),
(318,238,o),
(318,287,cs),
(318,336,o),
(352,369,o),
(403,369,cs),
(456,369,o),
(487,332,o),
(487,288,cs),
(487,244,o),
(454,205,o),
(402,205,cs)
);
}
);
width = 776;
}
);
note = dvKx_R;
},
{
glyphname = dvGx_R;
layers = (
{
layerId = m01;
shapes = (
{
closed = 1;
nodes = (
(621,197,l),
(621,380,l),
(199,-20,l),
(406,-20,l)
);
},
{
closed = 1;
nodes = (
(-14,590,l),
(293,590,l),
(293,443,ls),
(293,414,o),
(287,380,o),
(251,380,cs),
(218,380,o),
(207,406,o),
(207,443,cs),
(207,475,l),
(33,475,l),
(32,464,o),
(32,453,o),
(32,442,cs),
(32,299,o),
(116,226,o),
(256,226,cs),
(408,226,o),
(473,324,o),
(473,451,cs),
(473,590,l),
(621,590,l),
(621,740,l),
(-14,740,l)
);
},
{
closed = 1;
nodes = (
(151,7,o),
(189,45,o),
(189,92,cs),
(189,141,o),
(151,180,o),
(103,180,cs),
(54,180,o),
(17,141,o),
(17,92,cs),
(17,45,o),
(54,7,o),
(103,7,cs)
);
}
);
width = 567;
}
);
note = dvGx_R;
},
{
glyphname = dvJx_R;
layers = (
{
layerId = m01;
shapes = (
{
closed = 1;
nodes = (
(-14,590,l),
(708,590,l),
(708,740,l),
(-14,740,l)
);
},
{
closed = 1;
nodes = (
(464,-53,l),
(708,231,l),
(708,491,l),
(345,491,l),
(345,396,ls),
(345,345,o),
(324,317,o),
(285,317,cs),
(246,317,o),
(226,345,o),
(226,396,cs),
(226,491,l),
(44,491,l),
(44,391,ls),
(44,255,o),
(125,159,o),
(286,159,cs),
(411,159,o),
(489,230,o),
(508,336,c),
(638,336,l),
(267,-53,l)
);
},
{
closed = 1;
nodes = (
(192,-50,o),
(230,-12,o),
(230,35,cs),
(230,84,o),
(192,123,o),
(144,123,cs),
(95,123,o),
(58,84,o),
(58,35,cs),
(58,-12,o),
(95,-50,o),
(144,-50,cs)
);
}
);
width = 552;
}
);
note = dvJx_R;
},
{
glyphname = dvKx_KxA;
layers = (
{
layerId = m01;
shapes = (
{
closed = 1;
nodes = (
(573,590,l),
(1074,590,l),
(1074,462,l),
(1045,499,o),
(998,522,o),
(934,522,cs),
(884,522,o),
(842,509,o),
(809,485,c),
(783,509,o),
(749,522,o),
(706,522,cs),
(646,522,o),
(601,499,o),
(573,462,c)
);
},
{
closed = 1;
nodes = (
(285,-202,o),
(330,-157,o),
(330,-101,cs),
(330,-43,o),
(285,3,o),
(227,3,cs),
(170,3,o),
(125,-43,o),
(125,-101,cs),
(125,-157,o),
(170,-202,o),
(227,-202,cs)
);
},
{
closed = 1;
nodes = (
(960,-202,o),
(1005,-157,o),
(1005,-101,cs),
(1005,-43,o),
(960,3,o),
(902,3,cs),
(845,3,o),
(800,-43,o),
(800,-101,cs),
(800,-157,o),
(845,-202,o),
(902,-202,cs)
);
},
{
closed = 1;
nodes = (
(264,205,o),
(231,238,o),
(231,287,cs),
(231,336,o),
(266,369,o),
(315,369,cs),
(369,369,o),
(399,332,o),
(399,288,cs),
(399,244,o),
(367,205,o),
(315,205,cs)
);
},
{
closed = 1;
nodes = (
(939,205,o),
(906,238,o),
(906,287,cs),
(906,336,o),
(941,369,o),
(990,369,cs),
(1044,369,o),
(1074,332,o),
(1074,288,cs),
(1074,244,o),
(1042,205,o),
(990,205,cs)
);
},
{
closed = 1;
nodes = (
(1074,0,l),
(1248,0,l),
(1248,278,ls),
(1248,330,o),
(1273,369,o),
(1324,369,cs),
(1373,369,o),
(1400,332,o),
(1400,288,cs),
(1400,240,o),
(1370,211,o),
(1328,211,cs),
(1321,211,o),
(1313,212,o),
(1308,214,c),
(1308,73,l),
(1333,67,o),
(1354,65,o),
(1377,65,cs),
(1496,65,o),
(1583,148,o),
(1583,292,cs),
(1583,418,o),
(1513,522,o),
(1383,522,cs),
(1322,522,o),
(1276,499,o),
(1248,461,c),
(1248,590,l),
(1644,590,l),
(1644,740,l),
(-14,740,l),
(-14,590,l),
(399,590,l),
(399,462,l),
(370,499,o),
(323,522,o),
(259,522,cs),
(124,522,o),
(47,426,o),
(47,288,cs),
(47,152,o),
(123,54,o),
(252,54,cs),
(320,54,o),
(369,78,o),
(399,118,c),
(399,0,l),
(573,0,l),
(573,278,ls),
(573,330,o),
(597,369,o),
(648,369,cs),
(697,369,o),
(721,332,o),
(721,288,c),
(722,288,l),
(722,152,o),
(798,54,o),
(927,54,cs),
(995,54,o),
(1044,78,o),
(1074,118,c)
);
}
);
width = 1630;
}
);
note = dvKx_KxA;
},
{
glyphname = dvKx_TA;
layers = (
{
layerId = m01;
shapes = (
{
closed = 1;
nodes = (
(643,512,o),
(600,493,o),
(573,459,c),
(573,590,l),
(1123,590,l),
(1123,490,l),
(997,490,ls),
(938,490,o),
(883,479,o),
(836,456,c),
(806,491,o),
(759,512,o),
(700,512,cs)
);
},
{
closed = 1;
nodes = (
(285,-202,o),
(330,-157,o),
(330,-101,cs),
(330,-43,o),
(285,3,o),
(227,3,cs),
(170,3,o),
(125,-43,o),
(125,-101,cs),
(125,-157,o),
(170,-202,o),
(227,-202,cs)
);
},
{
closed = 1;
nodes = (
(264,205,o),
(231,238,o),
(231,287,cs),
(231,336,o),
(266,369,o),
(315,369,cs),
(369,369,o),
(399,332,o),
(399,288,cs),
(399,244,o),
(367,205,o),
(315,205,cs)
);
},
{
closed = 1;
nodes = (
(573,278,ls),
(573,330,o),
(597,367,o),
(647,367,cs),
(684,367,o),
(712,336,o),
(714,280,c),
(713,269,o),
(712,257,o),
(712,244,cs),
(712,70,o),
(833,1,o),
(972,1,cs),
(1018,1,l),
(1018,142,l),
(1001,142,ls),
(928,142,o),
(895,183,o),
(895,240,cs),
(895,300,o),
(940,336,o),
(1005,336,cs),
(1123,336,l),
(1123,0,l),
(1304,0,l),
(1304,590,l),
(1392,590,l),
(1392,740,l),
(-14,740,l),
(-14,590,l),
(399,590,l),
(399,462,l),
(370,499,o),
(323,522,o),
(259,522,cs),
(124,522,o),
(47,426,o),
(47,288,cs),
(47,152,o),
(123,54,o),
(252,54,cs),
(320,54,o),
(369,78,o),
(399,118,c),
(399,0,l),
(573,0,l)
);
}
);
width = 1378;
}
);
note = dvKx_TA;
},
{
glyphname = dvKx_PHA;
layers = (
{
layerId = m01;
shapes = (
{
closed = 1;
nodes = (
(573,590,l),
(707,590,l),
(707,513,l),
(706,513,ls),
(646,513,o),
(601,493,o),
(573,458,c)
);
},
{
closed = 1;
nodes = (
(914,299,o),
(888,342,o),
(888,400,cs),
(888,590,l),
(1059,590,l),
(1059,396,ls),
(1059,344,o),
(1030,299,o),
(973,299,cs)
);
},
{
closed = 1;
nodes = (
(573,278,ls),
(573,330,o),
(597,369,o),
(648,369,cs),
(684,369,o),
(706,350,o),
(715,322,c),
(738,219,o),
(810,148,o),
(925,148,cs),
(984,148,o),
(1028,166,o),
(1059,197,c),
(1059,0,l),
(1240,0,l),
(1240,258,ls),
(1240,325,o),
(1268,369,o),
(1325,369,cs),
(1374,369,o),
(1400,332,o),
(1400,288,cs),
(1400,244,o),
(1374,210,o),
(1329,210,cs),
(1320,210,o),
(1311,212,o),
(1302,214,c),
(1302,76,l),
(1327,68,o),
(1353,65,o),
(1378,65,cs),
(1498,65,o),
(1584,150,o),
(1584,297,cs),
(1584,420,o),
(1512,522,o),
(1384,522,cs),
(1320,522,o),
(1271,499,o),
(1240,462,c),
(1240,590,l),
(1643,590,l),
(1643,740,l),
(-14,740,l),
(-14,590,l),
(399,590,l),
(399,462,l),
(370,499,o),
(323,522,o),
(259,522,cs),
(124,522,o),
(47,426,o),
(47,288,cs),
(47,152,o),
(123,54,o),
(252,54,cs),
(320,54,o),
(369,78,o),
(399,118,c),
(399,0,l),
(573,0,l)
);
},
{
closed = 1;
nodes = (
(285,-202,o),
(330,-157,o),
(330,-101,cs),
(330,-43,o),
(285,3,o),
(227,3,cs),
(170,3,o),
(125,-43,o),
(125,-101,cs),
(125,-157,o),
(170,-202,o),
(227,-202,cs)
);
},
{
closed = 1;
nodes = (
(264,205,o),
(231,238,o),
(231,287,cs),
(231,336,o),
(266,369,o),
(315,369,cs),
(369,369,o),
(399,332,o),
(399,288,cs),
(399,244,o),
(367,205,o),
(315,205,cs)
);
}
);
width = 1629;
}
);
note = dvKx_PHA;
},
{
glyphname = dvKx_PHxA;
layers = (
{
layerId = m01;
shapes = (
{
closed = 1;
nodes = (
(573,590,l),
(708,590,l),
(708,513,l),
(706,513,ls),
(646,513,o),
(601,493,o),
(573,458,c)
);
},
{
closed = 1;
nodes = (
(285,-202,o),
(330,-157,o),
(330,-101,cs),
(330,-43,o),
(285,3,o),
(227,3,cs),
(170,3,o),
(125,-43,o),
(125,-101,cs),
(125,-157,o),
(170,-202,o),
(227,-202,cs)
);
},
{
closed = 1;
nodes = (
(920,-101,o),
(965,-56,o),
(965,0,cs),
(965,58,o),
(920,104,o),
(862,104,cs),
(805,104,o),
(760,58,o),
(760,0,cs),
(760,-56,o),
(805,-101,o),
(862,-101,cs)
);
},
{
closed = 1;
nodes = (
(264,205,o),
(231,238,o),
(231,287,cs),
(231,336,o),
(266,369,o),
(315,369,cs),
(369,369,o),
(399,332,o),
(399,288,cs),
(399,244,o),
(367,205,o),
(315,205,cs)
);
},
{
closed = 1;
nodes = (
(915,299,o),
(889,342,o),
(889,400,cs),
(889,590,l),
(1060,590,l),
(1060,396,ls),
(1060,344,o),
(1031,299,o),
(974,299,cs)
);
},
{
closed = 1;
nodes = (
(573,278,ls),
(573,330,o),
(597,369,o),
(648,369,cs),
(686,369,o),
(709,347,o),
(717,316,c),
(718,316,l),
(742,217,o),
(813,148,o),
(926,148,cs),
(985,148,o),
(1029,166,o),
(1060,197,c),
(1060,0,l),
(1241,0,l),
(1241,258,ls),
(1241,325,o),
(1269,369,o),
(1326,369,cs),
(1375,369,o),
(1401,332,o),
(1401,288,cs),
(1401,244,o),
(1375,210,o),
(1330,210,cs),
(1321,210,o),
(1312,212,o),
(1303,214,c),
(1303,76,l),
(1328,68,o),
(1354,65,o),
(1379,65,cs),
(1499,65,o),
(1585,150,o),
(1585,297,cs),
(1585,420,o),
(1513,522,o),
(1385,522,cs),
(1321,522,o),
(1272,499,o),
(1241,462,c),
(1241,590,l),
(1644,590,l),
(1644,740,l),
(-14,740,l),
(-14,590,l),
(399,590,l),
(399,462,l),
(370,499,o),
(323,522,o),
(259,522,cs),
(124,522,o),
(47,426,o),
(47,288,cs),
(47,152,o),
(123,54,o),
(252,54,cs),
(320,54,o),
(369,78,o),
(399,118,c),
(399,0,l),
(573,0,l)
);
}
);
width = 1630;
}
);
note = dvKx_PHxA;
},
{
glyphname = dvKx_BA;
layers = (
{
layerId = m01;
shapes = (
{
closed = 1;
nodes = (
(573,590,l),
(1115,590,l),
(1115,485,l),
(1077,515,o),
(1026,533,o),
(965,533,cs),
(905,533,o),
(852,515,o),
(810,484,c),
(784,508,o),
(750,522,o),
(706,522,cs),
(646,522,o),
(601,499,o),
(573,462,c)
);
},
{
closed = 1;
nodes = (
(1115,0,l),
(1289,0,l),
(1289,590,l),
(1375,590,l),
(1375,740,l),
(-14,740,l),
(-14,590,l),
(399,590,l),
(399,462,l),
(370,499,o),
(323,522,o),
(259,522,cs),
(124,522,o),
(47,426,o),
(47,288,cs),
(47,152,o),
(123,54,o),
(252,54,cs),
(320,54,o),
(369,78,o),
(399,118,c),
(399,0,l),
(573,0,l),
(573,278,ls),
(573,330,o),
(597,369,o),
(648,369,cs),
(697,369,o),
(721,332,o),
(721,288,c),
(721,288,l),
(725,147,o),
(828,49,o),
(965,49,cs),
(1029,49,o),
(1083,69,o),
(1115,105,c)
);
},
{
closed = 1;
nodes = (
(285,-202,o),
(330,-157,o),
(330,-101,cs),
(330,-43,o),
(285,3,o),
(227,3,cs),
(170,3,o),
(125,-43,o),
(125,-101,cs),
(125,-157,o),
(170,-202,o),
(227,-202,cs)
);
},
{
closed = 1;
nodes = (
(264,205,o),
(231,238,o),
(231,287,cs),
(231,336,o),
(266,369,o),
(315,369,cs),
(369,369,o),
(399,332,o),
(399,288,cs),
(399,244,o),
(367,205,o),
(315,205,cs)
);
},
{
closed = 1;
nodes = (
(1078,418,o),
(1125,363,o),
(1125,296,cs),
(1125,283,o),
(1123,270,o),
(1119,258,c),
(929,395,l),
(950,410,o),
(975,418,o),
(1003,418,cs)
);
},
{
closed = 1;
nodes = (
(936,176,o),
(878,222,o),
(878,296,cs),
(878,310,o),
(880,324,o),
(884,336,c),
(1077,198,l),
(1058,184,o),
(1033,176,o),
(1004,176,cs)
);
}
);
width = 1361;
}
);
note = dvKx_BA;
},
{
glyphname = dvKx_MA;
layers = (
{
layerId = m01;
shapes = (
{
closed = 1;
nodes = (
(646,513,o),
(601,492,o),
(573,457,c),
(573,590,l),
(1007,590,l),
(1007,468,l),
(953,468,ls),
(914,468,o),
(877,462,o),
(845,449,c),
(816,489,o),
(770,513,o),
(706,513,cs)
);
},
{
closed = 1;
nodes = (
(285,-202,o),
(330,-157,o),
(330,-101,cs),
(330,-43,o),
(285,3,o),
(227,3,cs),
(170,3,o),
(125,-43,o),
(125,-101,cs),
(125,-157,o),
(170,-202,o),
(227,-202,cs)
);
},
{
closed = 1;
nodes = (
(264,205,o),
(231,238,o),
(231,287,cs),
(231,336,o),
(266,369,o),
(315,369,cs),
(369,369,o),
(399,332,o),
(399,288,cs),
(399,244,o),
(367,205,o),
(315,205,cs)
);
},
{
closed = 1;
nodes = (
(912,201,o),
(886,221,o),
(886,260,cs),
(886,300,o),
(916,321,o),
(959,321,cs),
(1007,321,l),
(1007,273,ls),
(1007,231,o),
(988,201,o),
(945,201,cs)
);
},
{
closed = 1;
nodes = (
(1287,468,l),
(1176,468,l),
(1176,590,l),
(1287,590,l)
);
},
{
closed = 1;
nodes = (
(573,278,ls),
(573,330,o),
(597,369,o),
(648,369,cs),
(695,369,o),
(719,334,o),
(721,291,c),
(720,281,o),
(719,270,o),
(719,259,cs),
(719,132,o),
(810,49,o),
(949,49,cs),
(1098,49,o),
(1176,139,o),
(1176,283,cs),
(1176,321,l),
(1287,321,l),
(1287,0,l),
(1468,0,l),
(1468,590,l),
(1556,590,l),
(1556,740,l),
(-14,740,l),
(-14,590,l),
(399,590,l),
(399,462,l),
(370,499,o),
(323,522,o),
(259,522,cs),
(124,522,o),
(47,426,o),
(47,288,cs),
(47,152,o),
(123,54,o),
(252,54,cs),
(320,54,o),
(369,78,o),
(399,118,c),
(399,0,l),
(573,0,l)
);
}
);
width = 1530;
}
);
note = dvKx_MA;
},
{
glyphname = dvJx_JxA;
layers = (
{
layerId = m01;
shapes = (
{
closed = 1;
nodes = (
(344,-164,o),
(389,-119,o),
(389,-63,cs),
(389,-5,o),
(344,41,o),
(286,41,cs),
(229,41,o),
(184,-5,o),
(184,-63,cs),
(184,-119,o),
(229,-164,o),
(286,-164,cs)
);
},
{
closed = 1;
nodes = (
(908,-164,o),
(953,-119,o),
(953,-63,cs),
(953,-5,o),
(908,41,o),
(850,41,cs),
(793,41,o),
(748,-5,o),
(748,-63,cs),
(748,-119,o),
(793,-164,o),
(850,-164,cs)
);
},
{
closed = 1;
nodes = (
(1358,0,l),
(1358,590,l),
(1445,590,l),
(1445,740,l),
(-14,740,l),
(-14,590,l),
(1177,590,l),
(1177,485,l),
(910,485,l),
(910,327,ls),
(910,276,o),
(889,248,o),
(851,248,cs),
(812,248,o),
(791,276,o),
(791,327,cs),
(791,485,l),
(345,485,l),
(345,327,ls),
(345,276,o),
(324,248,o),
(286,248,cs),
(247,248,o),
(226,276,o),
(226,327,cs),
(226,485,l),
(44,485,l),
(44,322,ls),
(44,186,o),
(125,90,o),
(286,90,cs),
(432,90,o),
(521,186,o),
(521,322,cs),
(521,331,l),
(609,331,l),
(609,322,ls),
(609,186,o),
(690,90,o),
(851,90,cs),
(997,90,o),
(1086,186,o),
(1086,322,cs),
(1086,331,l),
(1177,331,l),
(1177,0,l)
);
}
);
width = 1431;
}
);
note = dvJx_JxA;
},
{
glyphname = dvJx_YA;
layers = (
{
layerId = m01;
shapes = (
{
closed = 1;
nodes = (
(1247,0,l),
(1247,590,l),
(1333,590,l),
(1333,740,l),
(-14,740,l),
(-14,590,l),
(759,590,l),
(759,552,ls),
(759,491,o),
(735,445,o),
(621,445,cs),
(345,445,l),
(345,327,ls),
(345,276,o),
(324,248,o),
(286,248,cs),
(247,248,o),
(226,276,o),
(226,327,cs),
(226,445,l),
(44,445,l),
(44,322,ls),
(44,186,o),
(125,90,o),
(286,90,cs),
(422,90,o),
(509,174,o),
(520,296,c),
(529,296,ls),
(563,296,o),
(591,296,o),
(615,297,c),
(639,158,o),
(731,72,o),
(880,72,cs),
(962,72,o),
(1024,97,o),
(1065,138,c),
(1065,0,l)
);
},
{
closed = 1;
nodes = (
(344,-164,o),
(389,-119,o),
(389,-63,cs),
(389,-5,o),
(344,41,o),
(286,41,cs),
(229,41,o),
(184,-5,o),
(184,-63,cs),
(184,-119,o),
(229,-164,o),
(286,-164,cs)
);
},
{
closed = 1;
nodes = (
(839,222,o),
(793,268,o),
(788,328,c),
(889,350,o),
(938,428,o),
(938,519,cs),
(938,590,l),
(1065,590,l),
(1065,374,ls),
(1065,288,o),
(1015,222,o),
(919,222,cs)
);
}
);
width = 1320;
}
);
note = dvJx_YA;
},
{
glyphname = dvEyelash_YA;
layers = (
{
layerId = m01;
shapes = (
{
closed = 1;
nodes = (
(531,222,o),
(485,269,o),
(481,328,c),
(593,345,o),
(631,424,o),
(631,519,cs),
(631,590,l),
(760,590,l),
(760,374,ls),
(760,288,o),
(708,222,o),
(614,222,cs)
);
},
{
closed = 1;
nodes = (
(940,0,l),
(940,590,l),
(1028,590,l),
(1028,740,l),
(-14,740,l),
(-14,590,l),
(453,590,l),
(453,552,ls),
(453,479,o),
(432,425,o),
(333,420,c),
(333,420,l),
(282,417,o),
(211,443,o),
(211,513,c),
(41,513,l),
(47,348,o),
(172,285,o),
(308,281,c),
(332,152,o),
(426,72,o),
(574,72,cs),
(657,72,o),
(719,97,o),
(760,138,c),
(760,0,l)
);
}
);
width = 1014;
}
);
note = dvEyelash_YA;
},
{
glyphname = dvEyelash_HA;
layers = (
{
layerId = m01;
shapes = (
{
closed = 1;
nodes = (
(621,81,l),
(614,55,o),
(588,34,o),
(551,34,cs),
(512,34,o),
(477,61,o),
(477,118,cs),
(477,172,o),
(513,200,o),
(551,200,cs),
(591,200,o),
(616,176,o),
(621,149,c),
(794,149,l),
(782,261,o),
(707,342,o),
(556,342,cs),
(543,342,o),
(531,341,o),
(519,340,c),
(508,347,o),
(503,358,o),
(503,370,cs),
(503,398,o),
(525,408,o),
(551,408,cs),
(721,408,l),
(721,590,l),
(845,590,l),
(845,740,l),
(-14,740,l),
(-14,590,l),
(549,590,l),
(549,535,l),
(485,535,ls),
(385,535,o),
(326,484,o),
(324,411,c),
(317,410,o),
(309,409,o),
(300,409,cs),
(250,409,o),
(211,439,o),
(211,490,c),
(41,490,l),
(44,346,o),
(154,267,o),
(268,267,cs),
(327,267,o),
(362,281,o),
(386,295,c),
(386,294,l),
(333,256,o),
(301,198,o),
(301,120,cs),
(301,-24,o),
(401,-114,o),
(551,-114,cs),
(686,-114,o),
(784,-40,o),
(794,81,c)
);
}
);
width = 832;
}
);
note = dvEyelash_HA;
},
{
glyphname = dvmII.aLong;
layers = (
{
layerId = m01;
shapes = (
{
closed = 1;
nodes = (
(-556,701,l),
(-383,701,l),
(-383,748,ls),
(-383,813,o),
(-357,894,o),
(-153,894,cs),
(54,894,o),
(79,813,o),
(79,748,cs),
(79,740,l),
(-14,740,l),
(-14,590,l),
(74,590,l),
(74,0,l),
(254,0,l),
(254,590,l),
(341,590,l),
(341,740,l),
(254,740,l),
(254,761,ls),
(254,922,o),
(151,1045,o),
(-153,1045,cs),
(-445,1045,o),
(-556,927,o),
(-556,761,cs)
);
}
);
width = 327;
}
);
note = dvmII.aLong;
},
{
glyphname = dvmII_Anusvara;
layers = (
{
layerId = m01;
shapes = (
{
closed = 1;
nodes = (
(-254,701,l),
(-79,701,l),
(-79,776,ls),
(-79,821,o),
(-71,890,o),
(2,890,cs),
(72,890,o),
(79,821,o),
(79,776,cs),
(79,740,l),
(-14,740,l),
(-14,590,l),
(74,590,l),
(74,0,l),
(254,0,l),
(254,590,l),
(341,590,l),
(341,740,l),
(254,740,l),
(254,768,ls),
(254,923,o),
(194,1042,o),
(2,1042,cs),
(-186,1042,o),
(-254,927,o),
(-254,768,cs)
);
},
{
closed = 1;
nodes = (
(452,791,o),
(498,837,o),
(498,893,cs),
(498,951,o),
(452,996,o),
(394,996,cs),
(337,996,o),
(292,951,o),
(292,893,cs),
(292,837,o),
(337,791,o),
(394,791,cs)
);
}
);
width = 327;
}
);
note = dvmII_Anusvara;
},
{
glyphname = dvmII_Reph;
layers = (
{
layerId = m01;
shapes = (
{
closed = 1;
nodes = (
(-254,701,l),
(-79,701,l),
(-79,776,ls),
(-79,821,o),
(-71,890,o),
(2,890,cs),
(72,890,o),
(79,821,o),
(79,776,cs),
(79,740,l),
(-14,740,l),
(-14,590,l),
(74,590,l),
(74,0,l),
(254,0,l),
(254,590,l),
(341,590,l),
(341,740,l),
(254,740,l),
(254,822,ls),
(254,850,o),
(260,884,o),
(302,884,cs),
(337,884,o),
(350,860,o),
(348,815,c),
(508,815,l),
(518,955,o),
(449,1027,o),
(348,1027,cs),
(274,1027,o),
(230,995,o),
(208,953,c),
(169,1008,o),
(104,1042,o),
(2,1042,cs),
(-186,1042,o),
(-254,927,o),
(-254,768,cs)
);
}
);
width = 327;
}
);
note = dvmII_Reph;
},
{
glyphname = dvmII_Reph_Anusvara;
layers = (
{
layerId = m01;
shapes = (
{
closed = 1;
nodes = (
(254,740,l),
(254,813,ls),
(254,868,o),
(285,905,o),
(336,905,cs),
(386,905,o),
(411,874,o),
(414,841,c),
(558,841,l),
(571,956,o),
(497,1045,o),
(374,1045,cs),
(287,1045,o),
(234,1005,o),
(207,954,c),
(168,1009,o),
(104,1042,o),
(2,1042,cs),
(-186,1042,o),
(-254,927,o),
(-254,768,cs),
(-254,701,l),
(-79,701,l),
(-79,776,ls),
(-79,821,o),
(-71,890,o),
(2,890,cs),
(72,890,o),
(79,821,o),
(79,776,cs),
(79,740,l),
(-14,740,l),
(-14,590,l),
(74,590,l),
(74,0,l),
(254,0,l),
(254,590,l),
(341,590,l),
(341,740,l)
);
},
{
closed = 1;
nodes = (
(363,769,o),
(386,793,o),
(386,821,cs),
(386,851,o),
(363,874,o),
(333,874,cs),
(304,874,o),
(282,851,o),
(282,821,cs),
(282,793,o),
(304,769,o),
(333,769,cs)
);
}
);
width = 327;
}
);
note = dvmII_Reph_Anusvara;
},
{
glyphname = dvmII_Anusvara.aLong;
layers = (
{
layerId = m01;
shapes = (
{
closed = 1;
nodes = (
(-556,701,l),
(-383,701,l),
(-383,748,ls),
(-383,813,o),
(-357,894,o),
(-153,894,cs),
(54,894,o),
(79,813,o),
(79,748,cs),
(79,740,l),
(-14,740,l),
(-14,590,l),
(74,590,l),
(74,0,l),
(254,0,l),
(254,590,l),
(341,590,l),
(341,740,l),
(254,740,l),
(254,761,ls),
(254,922,o),
(151,1045,o),
(-153,1045,cs),
(-445,1045,o),
(-556,927,o),
(-556,761,cs)
);
},
{
closed = 1;
nodes = (
(452,791,o),
(498,837,o),
(498,893,cs),
(498,951,o),
(452,996,o),
(394,996,cs),
(337,996,o),
(292,951,o),
(292,893,cs),
(292,837,o),
(337,791,o),
(394,791,cs)
);
}
);
width = 327;
}
);
note = dvmII_Anusvara.aLong;
},
{
glyphname = dvmII_Reph.aLong;
layers = (
{
layerId = m01;
shapes = (
{
closed = 1;
nodes = (
(-556,701,l),
(-383,701,l),
(-383,748,ls),
(-383,813,o),
(-357,894,o),
(-153,894,cs),
(54,894,o),
(79,813,o),
(79,748,cs),
(79,740,l),
(-14,740,l),
(-14,590,l),
(74,590,l),
(74,0,l),
(254,0,l),
(254,590,l),
(341,590,l),
(341,740,l),
(254,740,l),
(254,822,ls),
(254,850,o),
(260,884,o),
(302,884,cs),
(337,884,o),
(350,860,o),
(348,815,c),
(508,815,l),
(518,955,o),
(449,1027,o),
(348,1027,cs),
(261,1027,o),
(217,983,o),
(198,931,c),
(139,1001,o),
(29,1045,o),
(-153,1045,cs),
(-445,1045,o),
(-556,927,o),
(-556,761,cs)
);
}
);
width = 327;
}
);
note = dvmII_Reph.aLong;
},
{
glyphname = dvmII_Reph_Anusvara.aLong;
layers = (
{
layerId = m01;
shapes = (
{
closed = 1;
nodes = (
(254,740,l),
(254,813,ls),
(254,868,o),
(285,905,o),
(336,905,cs),
(386,905,o),
(411,874,o),
(414,841,c),
(558,841,l),
(571,956,o),
(497,1045,o),
(374,1045,cs),
(275,1045,o),
(219,992,o),
(197,932,c),
(138,1001,o),
(28,1045,o),
(-153,1045,cs),
(-445,1045,o),
(-556,927,o),
(-556,761,cs),
(-556,701,l),
(-383,701,l),
(-383,748,ls),
(-383,813,o),
(-357,894,o),
(-153,894,cs),
(54,894,o),
(79,813,o),
(79,748,cs),
(79,740,l),
(-14,740,l),
(-14,590,l),
(74,590,l),
(74,0,l),
(254,0,l),
(254,590,l),
(341,590,l),
(341,740,l)
);
},
{
closed = 1;
nodes = (
(363,769,o),
(386,793,o),
(386,821,cs),
(386,851,o),
(363,874,o),
(333,874,cs),
(304,874,o),
(282,851,o),
(282,821,cs),
(282,793,o),
(304,769,o),
(333,769,cs)
);
}
);
width = 327;
}
);
note = dvmII_Reph_Anusvara.aLong;
},
{
glyphname = dvmE_Anusvara;
layers = (
{
layerId = m01;
shapes = (
{
closed = 1;
nodes = (
(-75,735,l),
(-206,975,o),
(-262,1005,o),
(-424,1006,cs),
(-477,1006,l),
(-477,861,l),
(-422,861,ls),
(-336,861,o),
(-314,843,o),
(-244,735,c)
);
},
{
closed = 1;
nodes = (
(68,795,o),
(114,841,o),
(114,897,cs),
(114,955,o),
(68,1000,o),
(10,1000,cs),
(-47,1000,o),
(-92,955,o),
(-92,897,cs),
(-92,841,o),
(-47,795,o),
(10,795,cs)
);
}
);
width = 0;
}
);
note = dvmE_Anusvara;
},
{
glyphname = dvmE_Reph;
layers = (
{
layerId = m01;
shapes = (
{
closed = 1;
nodes = (
(-75,735,l),
(-88,758,o),
(-97,786,o),
(-97,809,cs),
(-97,845,o),
(-80,870,o),
(-45,870,cs),
(-10,870,o),
(4,841,o),
(1,810,c),
(154,810,l),
(165,920,o),
(108,1007,o),
(-7,1007,cs),
(-109,1007,o),
(-151,942,o),
(-161,878,c),
(-240,988,o),
(-302,1005,o),
(-424,1006,cs),
(-477,1006,l),
(-477,861,l),
(-422,861,ls),
(-336,861,o),
(-314,843,o),
(-244,735,c)
);
}
);
width = 0;
}
);
note = dvmE_Reph;
},
{
glyphname = dvmE_Reph_Anusvara;
layers = (
{
layerId = m01;
shapes = (
{
closed = 1;
nodes = (
(-75,735,l),
(-78,740,ls),
(-92,766,o),
(-102,790,o),
(-102,822,cs),
(-102,871,o),
(-68,907,o),
(-19,907,cs),
(41,907,o),
(67,862,o),
(66,818,c),
(187,818,l),
(198,941,o),
(124,1021,o),
(5,1021,cs),
(-103,1021,o),
(-155,958,o),
(-170,889,c),
(-245,989,o),
(-307,1005,o),
(-424,1006,cs),
(-477,1006,l),
(-477,861,l),
(-422,861,ls),
(-336,861,o),
(-314,843,o),
(-244,735,c)
);
},
{
closed = 1;
nodes = (
(8,771,o),
(31,795,o),
(31,823,cs),
(31,853,o),
(8,876,o),
(-22,876,cs),
(-51,876,o),
(-73,853,o),
(-73,823,cs),
(-73,795,o),
(-51,771,o),
(-22,771,cs)
);
}
);
width = 0;
}
);
note = dvmE_Reph_Anusvara;
},
{
glyphname = dvmAI_Anusvara;
layers = (
{
layerId = m01;
shapes = (
{
closed = 1;
nodes = (
(-76,737,l),
(-247,1066,o),
(-275,1081,o),
(-435,1081,cs),
(-491,1081,l),
(-491,969,l),
(-430,969,ls),
(-366,969,o),
(-324,968,o),
(-259,863,c),
(-322,911,o),
(-347,911,o),
(-438,911,cs),
(-491,911,l),
(-491,799,l),
(-434,799,ls),
(-326,799,o),
(-338,799,o),
(-230,737,c)
);
},
{
closed = 1;
nodes = (
(73,792,o),
(119,838,o),
(119,894,cs),
(119,952,o),
(73,997,o),
(15,997,cs),
(-42,997,o),
(-87,952,o),
(-87,894,cs),
(-87,838,o),
(-42,792,o),
(15,792,cs)
);
}
);
width = 0;
}
);
note = dvmAI_Anusvara;
},
{
glyphname = dvmAI_Reph;
layers = (
{
layerId = m01;
shapes = (
{
closed = 1;
nodes = (
(-76,737,l),
(-78,740,o),
(-80,744,o),
(-81,747,cs),
(-91,768,o),
(-97,790,o),
(-97,809,cs),
(-97,845,o),
(-80,870,o),
(-45,870,cs),
(-10,870,o),
(4,841,o),
(1,810,c),
(137,810,l),
(147,920,o),
(95,1007,o),
(-9,1007,cs),
(-104,1007,o),
(-146,951,o),
(-159,891,c),
(-262,1071,o),
(-305,1081,o),
(-435,1081,cs),
(-491,1081,l),
(-491,969,l),
(-430,969,ls),
(-366,969,o),
(-324,968,o),
(-259,863,c),
(-322,911,o),
(-347,911,o),
(-438,911,cs),
(-491,911,l),
(-491,799,l),
(-434,799,ls),
(-326,799,o),
(-338,799,o),
(-230,737,c)
);
}
);
width = 0;
}
);
note = dvmAI_Reph;
},
{
glyphname = dvmAI_Reph_Anusvara;
layers = (
{
layerId = m01;
shapes = (
{
closed = 1;
nodes = (
(-76,737,l),
(-90,765,o),
(-102,787,o),
(-102,818,cs),
(-102,871,o),
(-69,907,o),
(-19,907,cs),
(41,907,o),
(67,862,o),
(66,818,c),
(187,818,l),
(198,936,o),
(128,1021,o),
(5,1021,cs),
(-93,1021,o),
(-147,964,o),
(-164,900,c),
(-264,1071,o),
(-307,1081,o),
(-435,1081,cs),
(-491,1081,l),
(-491,969,l),
(-430,969,ls),
(-366,969,o),
(-324,968,o),
(-259,863,c),
(-322,911,o),
(-347,911,o),
(-438,911,cs),
(-491,911,l),
(-491,799,l),
(-434,799,ls),
(-326,799,o),
(-338,799,o),
(-230,737,c)
);
},
{
closed = 1;
nodes = (
(7,771,o),
(30,795,o),
(30,823,cs),
(30,853,o),
(7,876,o),
(-23,876,cs),
(-52,876,o),
(-74,853,o),
(-74,823,cs),
(-74,795,o),
(-52,771,o),
(-23,771,cs)
);
}
);
width = 0;
}
);
note = dvmAI_Reph_Anusvara;
},
{
glyphname = dvmO_Anusvara;
layers = (
{
layerId = m01;
shapes = (
{
closed = 1;
nodes = (
(254,0,l),
(254,590,l),
(341,590,l),
(341,740,l),
(250,740,l),
(122,975,o),
(66,1005,o),
(-96,1006,cs),
(-149,1006,l),
(-149,861,l),
(-94,861,ls),
(-9,861,o),
(13,844,o),
(81,740,c),
(-14,740,l),
(-14,590,l),
(74,590,l),
(74,0,l)
);
},
{
closed = 1;
nodes = (
(396,795,o),
(442,841,o),
(442,897,cs),
(442,955,o),
(396,1000,o),
(338,1000,cs),
(281,1000,o),
(236,955,o),
(236,897,cs),
(236,841,o),
(281,795,o),
(338,795,cs)
);
}
);
width = 327;
}
);
note = dvmO_Anusvara;
},
{
glyphname = dvmO_Reph;
layers = (
{
layerId = m01;
shapes = (
{
closed = 1;
nodes = (
(254,0,l),
(254,590,l),
(341,590,l),
(341,740,l),
(250,740,l),
(239,762,o),
(231,788,o),
(231,809,cs),
(231,845,o),
(248,870,o),
(283,870,cs),
(318,870,o),
(332,841,o),
(329,810,c),
(482,810,l),
(493,920,o),
(436,1007,o),
(321,1007,cs),
(219,1007,o),
(177,942,o),
(167,878,c),
(88,988,o),
(26,1005,o),
(-96,1006,cs),
(-149,1006,l),
(-149,861,l),
(-94,861,ls),
(-9,861,o),
(13,844,o),
(81,740,c),
(-14,740,l),
(-14,590,l),
(74,590,l),
(74,0,l)
);
}
);
width = 327;
}
);
note = dvmO_Reph;
},
{
glyphname = dvmO_Reph_Anusvara;
layers = (
{
layerId = m01;
shapes = (
{
closed = 1;
nodes = (
(254,0,l),
(254,590,l),
(341,590,l),
(341,740,l),
(250,740,l),
(250,740,l),
(236,766,o),
(226,790,o),
(226,822,cs),
(226,871,o),
(260,907,o),
(309,907,cs),
(369,907,o),
(395,862,o),
(394,818,c),
(515,818,l),
(526,941,o),
(452,1021,o),
(333,1021,cs),
(225,1021,o),
(173,958,o),
(158,889,c),
(83,989,o),
(21,1005,o),
(-96,1006,cs),
(-149,1006,l),
(-149,861,l),
(-94,861,ls),
(-9,861,o),
(13,844,o),
(81,740,c),
(-14,740,l),
(-14,590,l),
(74,590,l),
(74,0,l)
);
},
{
closed = 1;
nodes = (
(336,771,o),
(359,795,o),
(359,823,cs),
(359,853,o),
(336,876,o),
(306,876,cs),
(277,876,o),
(255,853,o),
(255,823,cs),
(255,795,o),
(277,771,o),
(306,771,cs)
);
}
);
width = 327;
}
);
note = dvmO_Reph_Anusvara;
},
{
glyphname = dvmAU_Anusvara;
layers = (
{
layerId = m01;
shapes = (
{
closed = 1;
nodes = (
(254,0,l),
(254,590,l),
(341,590,l),
(341,740,l),
(244,740,l),
(75,1066,o),
(47,1081,o),
(-113,1081,cs),
(-169,1081,l),
(-169,969,l),
(-108,969,ls),
(-44,969,o),
(-2,968,o),
(63,863,c),
(0,911,o),
(-25,911,o),
(-116,911,cs),
(-169,911,l),
(-169,799,l),
(-112,799,ls),
(-6,799,o),
(-16,799,o),
(87,740,c),
(-14,740,l),
(-14,590,l),
(74,590,l),
(74,0,l)
);
},
{
closed = 1;
nodes = (
(395,792,o),
(441,838,o),
(441,894,cs),
(441,952,o),
(395,997,o),
(337,997,cs),
(280,997,o),
(235,952,o),
(235,894,cs),
(235,838,o),
(280,792,o),
(337,792,cs)
);
}
);
width = 327;
}
);
note = dvmAU_Anusvara;
},
{
glyphname = dvmAU_Reph;
layers = (
{
layerId = m01;
shapes = (
{
closed = 1;
nodes = (
(254,0,l),
(254,590,l),
(341,590,l),
(341,740,l),
(244,740,l),
(244,740,o),
(242,744,o),
(241,747,cs),
(231,768,o),
(225,790,o),
(225,809,cs),
(225,845,o),
(242,870,o),
(277,870,cs),
(312,870,o),
(326,841,o),
(323,810,c),
(459,810,l),
(469,920,o),
(417,1007,o),
(313,1007,cs),
(218,1007,o),
(176,951,o),
(163,891,c),
(60,1071,o),
(17,1081,o),
(-113,1081,cs),
(-169,1081,l),
(-169,969,l),
(-108,969,ls),
(-44,969,o),
(-2,968,o),
(63,863,c),
(0,911,o),
(-25,911,o),
(-116,911,cs),
(-169,911,l),
(-169,799,l),
(-112,799,ls),
(-6,799,o),
(-16,799,o),
(87,740,c),
(-14,740,l),
(-14,590,l),
(74,590,l),
(74,0,l)
);
}
);
width = 327;
}
);
note = dvmAU_Reph;
},
{
glyphname = dvmAU_Reph_Anusvara;
layers = (
{
layerId = m01;
shapes = (
{
closed = 1;
nodes = (
(254,0,l),
(254,590,l),
(341,590,l),
(341,740,l),
(244,740,l),
(232,765,o),
(220,787,o),
(220,818,cs),
(220,871,o),
(253,907,o),
(303,907,cs),
(363,907,o),
(389,862,o),
(388,818,c),
(509,818,l),
(520,936,o),
(450,1021,o),
(327,1021,cs),
(229,1021,o),
(175,964,o),
(158,900,c),
(58,1071,o),
(15,1081,o),
(-113,1081,cs),
(-169,1081,l),
(-169,969,l),
(-108,969,ls),
(-44,969,o),
(-2,968,o),
(63,863,c),
(0,911,o),
(-25,911,o),
(-116,911,cs),
(-169,911,l),
(-169,799,l),
(-112,799,ls),
(-6,799,o),
(-16,799,o),
(87,740,c),
(-14,740,l),
(-14,590,l),
(74,590,l),
(74,0,l)
);
},
{
closed = 1;
nodes = (
(329,771,o),
(352,795,o),
(352,823,cs),
(352,853,o),
(329,876,o),
(299,876,cs),
(270,876,o),
(248,853,o),
(248,823,cs),
(248,795,o),
(270,771,o),
(299,771,cs)
);
}
);
width = 327;
}
);
note = dvmAU_Reph_Anusvara;
},
{
glyphname = dvmEcandra_Anusvara;
layers = (
{
layerId = m01;
shapes = (
{
closed = 1;
nodes = (
(-1,809,o),
(88,889,o),
(88,1031,c),
(-57,1031,l),
(-57,978,o),
(-95,936,o),
(-163,936,cs),
(-231,936,o),
(-270,978,o),
(-270,1031,c),
(-413,1031,l),
(-413,889,o),
(-325,809,o),
(-163,809,cs)
);
},
{
closed = 1;
nodes = (
(-125,988,o),
(-97,1017,o),
(-97,1054,cs),
(-97,1091,o),
(-125,1121,o),
(-164,1121,cs),
(-200,1121,o),
(-230,1091,o),
(-230,1054,cs),
(-230,1017,o),
(-200,988,o),
(-164,988,cs)
);
}
);
width = 0;
}
);
note = dvmEcandra_Anusvara;
},
{
glyphname = dvmOcandra_Anusvara;
layers = (
{
layerId = m01;
shapes = (
{
closed = 1;
nodes = (
(74,0,l),
(254,0,l),
(254,590,l),
(341,590,l),
(341,740,l),
(-14,740,l),
(-14,590,l),
(74,590,l)
);
},
{
closed = 1;
nodes = (
(326,809,o),
(415,889,o),
(415,1031,c),
(270,1031,l),
(270,978,o),
(232,936,o),
(164,936,cs),
(96,936,o),
(57,978,o),
(57,1031,c),
(-86,1031,l),
(-86,889,o),
(2,809,o),
(164,809,cs)
);
},
{
closed = 1;
nodes = (
(202,988,o),
(230,1017,o),
(230,1054,cs),
(230,1091,o),
(202,1121,o),
(163,1121,cs),
(127,1121,o),
(97,1091,o),
(97,1054,cs),
(97,1017,o),
(127,988,o),
(163,988,cs)
);
}
);
width = 327;
}
);
note = dvmOcandra_Anusvara;
},
{
glyphname = dvRA_mU;
layers = (
{
layerId = m01;
shapes = (
{
closed = 1;
nodes = (
(-14,590,l),
(289,590,l),
(289,552,ls),
(289,481,o),
(261,433,o),
(156,433,cs),
(56,433,l),
(56,209,ls),
(56,87,o),
(134,-9,o),
(283,-9,cs),
(418,-9,o),
(496,74,o),
(496,201,cs),
(496,204,o),
(496,211,o),
(495,218,c),
(322,218,l),
(322,195,ls),
(322,167,o),
(307,144,o),
(279,144,cs),
(248,144,o),
(235,169,o),
(235,200,cs),
(235,289,l),
(583,289,ls),
(617,289,o),
(637,272,o),
(637,246,cs),
(637,218,o),
(619,202,o),
(583,202,cs),
(570,202,o),
(560,203,o),
(550,205,c),
(550,62,l),
(562,59,o),
(583,57,o),
(600,57,cs),
(720,57,o),
(796,129,o),
(796,239,cs),
(796,363,o),
(725,433,o),
(569,433,cs),
(443,433,l),
(460,469,o),
(469,510,o),
(469,552,cs),
(469,590,l),
(841,590,l),
(841,740,l),
(-14,740,l)
);
}
);
width = 823;
}
);
note = dvRA_mU;
},
{
glyphname = dvRA_mUU;
layers = (
{
layerId = m01;
shapes = (
{
closed = 1;
nodes = (
(-14,590,l),
(289,590,l),
(289,552,ls),
(289,481,o),
(261,433,o),
(156,433,cs),
(56,433,l),
(56,209,ls),
(56,87,o),
(134,-9,o),
(283,-9,cs),
(418,-9,o),
(496,74,o),
(496,201,cs),
(496,204,o),
(496,211,o),
(495,218,c),
(322,218,l),
(322,195,ls),
(322,167,o),
(307,144,o),
(279,144,cs),
(248,144,o),
(235,169,o),
(235,200,cs),
(235,289,l),
(479,289,ls),
(542,289,o),
(573,254,o),
(573,201,cs),
(573,116,l),
(741,116,l),
(741,206,ls),
(741,343,o),
(661,433,o),
(499,433,cs),
(443,433,l),
(460,469,o),
(469,510,o),
(469,552,cs),
(469,590,l),
(786,590,l),
(786,740,l),
(-14,740,l)
);
}
);
width = 772;
}
);
note = dvRA_mUU;
},
{
glyphname = dvmI.a01;
layers = (
{
layerId = m01;
shapes = (
{
closed = 1;
nodes = (
(254,590,l),
(341,590,l),
(341,740,l),
(253,740,l),
(261,845,o),
(342,896,o),
(436,896,cs),
(535,896,o),
(621,833,o),
(621,715,cs),
(621,701,l),
(797,701,l),
(797,718,ls),
(797,901,o),
(665,1042,o),
(436,1042,cs),
(212,1042,o),
(83,914,o),
(74,740,c),
(-14,740,l),
(-14,590,l),
(74,590,l),
(74,0,l),
(254,0,l)
);
}
);
width = 327;
}
);
note = dvmI.a01;
},
{
glyphname = dvmI.a02;
layers = (
{
layerId = m01;
shapes = (
{
closed = 1;
nodes = (
(254,590,l),
(341,590,l),
(341,740,l),
(253,740,l),
(261,845,o),
(345,897,o),
(463,897,cs),
(588,897,o),
(678,834,o),
(678,713,cs),
(678,699,l),
(854,699,l),
(854,718,ls),
(854,903,o),
(720,1043,o),
(463,1043,cs),
(215,1043,o),
(84,918,o),
(75,740,c),
(-14,740,l),
(-14,590,l),
(74,590,l),
(74,0,l),
(254,0,l)
);
}
);
width = 327;
}
);
note = dvmI.a02;
},
{
glyphname = dvmI.a03;
layers = (
{
layerId = m01;
shapes = (
{
closed = 1;
nodes = (
(254,590,l),
(341,590,l),
(341,740,l),
(253,740,l),
(261,846,o),
(347,898,o),
(490,898,cs),
(642,898,o),
(736,835,o),
(736,710,cs),
(736,697,l),
(913,697,l),
(913,715,ls),
(913,904,o),
(775,1044,o),
(492,1044,cs),
(218,1044,o),
(84,919,o),
(75,740,c),
(-14,740,l),
(-14,590,l),
(74,590,l),
(74,0,l),
(254,0,l)
);
}
);
width = 327;
}
);
note = dvmI.a03;
},
{
glyphname = dvmI.a04;
layers = (
{
layerId = m01;
shapes = (
{
closed = 1;
nodes = (
(254,590,l),
(341,590,l),
(341,740,l),
(253,740,l),
(262,846,o),
(350,899,o),
(517,899,cs),
(697,899,o),
(793,834,o),
(793,709,cs),
(793,696,l),
(970,696,l),
(970,713,ls),
(970,904,o),
(830,1045,o),
(518,1045,cs),
(220,1045,o),
(84,922,o),
(75,740,c),
(-14,740,l),
(-14,590,l),
(74,590,l),
(74,0,l),
(254,0,l)
);
}
);
width = 327;
}
);
note = dvmI.a04;
},
{
glyphname = dvmI.a05;
layers = (
{
layerId = m01;
shapes = (
{
closed = 1;
nodes = (
(254,590,l),
(341,590,l),
(341,740,l),
(253,740,l),
(262,847,o),
(352,900,o),
(544,900,cs),
(751,900,o),
(851,835,o),
(851,707,cs),
(851,694,l),
(1028,694,l),
(1028,711,ls),
(1028,906,o),
(885,1046,o),
(547,1046,cs),
(223,1046,o),
(84,924,o),
(75,740,c),
(-14,740,l),
(-14,590,l),
(74,590,l),
(74,0,l),
(254,0,l)
);
}
);
width = 327;
}
);
note = dvmI.a05;
},
{
glyphname = dvmI.a06;
layers = (
{
layerId = m01;
shapes = (
{
closed = 1;
nodes = (
(254,590,l),
(341,590,l),
(341,740,l),
(253,740,l),
(262,847,o),
(354,901,o),
(571,901,cs),
(805,901,o),
(908,835,o),
(908,705,cs),
(908,693,l),
(1085,693,l),
(1085,709,ls),
(1085,907,o),
(940,1047,o),
(574,1047,cs),
(226,1047,o),
(84,925,o),
(75,740,c),
(-14,740,l),
(-14,590,l),
(74,590,l),
(74,0,l),
(254,0,l)
);
}
);
width = 327;
}
);
note = dvmI.a06;
},
{
glyphname = dvmI.a07;
layers = (
{
layerId = m01;
shapes = (
{
closed = 1;
nodes = (
(254,590,l),
(341,590,l),
(341,740,l),
(253,740,l),
(263,848,o),
(357,901,o),
(598,901,cs),
(859,901,o),
(966,837,o),
(966,703,cs),
(966,691,l),
(1142,691,l),
(1142,708,ls),
(1142,908,o),
(995,1047,o),
(603,1047,cs),
(230,1047,o),
(85,928,o),
(75,740,c),
(-14,740,l),
(-14,590,l),
(74,590,l),
(74,0,l),
(254,0,l)
);
}
);
width = 327;
}
);
note = dvmI.a07;
},
{
glyphname = dvmI.a08;
layers = (
{
layerId = m01;
shapes = (
{
closed = 1;
nodes = (
(254,590,l),
(341,590,l),
(341,740,l),
(253,740,l),
(263,849,o),
(359,902,o),
(626,902,cs),
(913,902,o),
(1024,837,o),
(1024,702,cs),
(1024,690,l),
(1200,690,l),
(1200,706,ls),
(1200,909,o),
(1051,1048,o),
(631,1048,cs),
(232,1048,o),
(85,931,o),
(75,740,c),
(-14,740,l),
(-14,590,l),
(74,590,l),
(74,0,l),
(254,0,l)
);
}
);
width = 327;
}
);
note = dvmI.a08;
},
{
glyphname = dvmI.a09;
layers = (
{
layerId = m01;
shapes = (
{
closed = 1;
nodes = (
(254,590,l),
(341,590,l),
(341,740,l),
(253,740,l),
(263,850,o),
(362,903,o),
(652,903,cs),
(966,903,o),
(1079,838,o),
(1079,699,cs),
(1079,689,l),
(1257,688,l),
(1257,703,ls),
(1257,911,o),
(1105,1049,o),
(658,1049,cs),
(234,1049,o),
(85,933,o),
(75,740,c),
(-14,740,l),
(-14,590,l),
(74,590,l),
(74,0,l),
(254,0,l)
);
}
);
width = 327;
}
);
note = dvmI.a09;
},
{
glyphname = dvmI.a10;
layers = (
{
layerId = m01;
shapes = (
{
closed = 1;
nodes = (
(254,590,l),
(341,590,l),
(341,740,l),
(253,740,l),
(263,851,o),
(363,904,o),
(679,904,cs),
(1021,904,o),
(1137,837,o),
(1137,697,cs),
(1137,687,l),
(1315,687,l),
(1315,702,ls),
(1315,911,o),
(1160,1050,o),
(685,1050,cs),
(237,1050,o),
(85,934,o),
(75,740,c),
(-14,740,l),
(-14,590,l),
(74,590,l),
(74,0,l),
(254,0,l)
);
}
);
width = 327;
}
);
note = dvmI.a10;
},
{
glyphname = dvmI.a11;
layers = (
{
layerId = m01;
shapes = (
{
closed = 1;
nodes = (
(254,590,l),
(341,590,l),
(341,740,l),
(253,740,l),
(264,851,o),
(366,905,o),
(707,905,cs),
(1075,905,o),
(1196,838,o),
(1196,695,cs),
(1196,685,l),
(1373,685,l),
(1373,700,ls),
(1373,913,o),
(1216,1051,o),
(713,1051,cs),
(241,1051,o),
(86,936,o),
(75,740,c),
(-14,740,l),
(-14,590,l),
(74,590,l),
(74,0,l),
(254,0,l)
);
}
);
width = 327;
}
);
note = dvmI.a11;
},
{
glyphname = dvmI.a12;
layers = (
{
layerId = m01;
shapes = (
{
closed = 1;
nodes = (
(254,590,l),
(341,590,l),
(341,740,l),
(253,740,l),
(264,852,o),
(369,906,o),
(733,906,cs),
(1129,906,o),
(1254,838,o),
(1254,694,cs),
(1254,684,l),
(1431,684,l),
(1431,698,ls),
(1431,914,o),
(1270,1052,o),
(741,1052,cs),
(243,1052,o),
(86,939,o),
(75,740,c),
(-14,740,l),
(-14,590,l),
(74,590,l),
(74,0,l),
(254,0,l)
);
}
);
width = 327;
}
);
note = dvmI.a12;
},
{
glyphname = dvmI.a13;
layers = (
{
layerId = m01;
shapes = (
{
closed = 1;
nodes = (
(254,590,l),
(341,590,l),
(341,740,l),
(253,740,l),
(264,851,o),
(371,907,o),
(760,907,cs),
(1182,907,o),
(1310,839,o),
(1310,693,cs),
(1310,682,l),
(1489,682,l),
(1489,696,ls),
(1489,915,o),
(1325,1053,o),
(769,1053,cs),
(246,1053,o),
(86,941,o),
(75,740,c),
(-14,740,l),
(-14,590,l),
(74,590,l),
(74,0,l),
(254,0,l)
);
}
);
width = 327;
}
);
note = dvmI.a13;
},
{
glyphname = dvmI.a14;
layers = (
{
layerId = m01;
shapes = (
{
closed = 1;
nodes = (
(254,590,l),
(341,590,l),
(341,740,l),
(253,740,l),
(265,853,o),
(375,908,o),
(788,908,cs),
(1236,908,o),
(1368,839,o),
(1368,690,cs),
(1368,682,l),
(1546,681,l),
(1546,693,ls),
(1546,917,o),
(1380,1054,o),
(797,1054,cs),
(249,1054,o),
(86,944,o),
(75,740,c),
(-14,740,l),
(-14,590,l),
(74,590,l),
(74,0,l),
(254,0,l)
);
}
);
width = 327;
}
);
note = dvmI.a14;
},
{
glyphname = dvmI.a15;
layers = (
{
layerId = m01;
shapes = (
{
closed = 1;
nodes = (
(254,590,l),
(341,590,l),
(341,740,l),
(253,740,l),
(265,854,o),
(377,909,o),
(815,909,cs),
(1290,909,o),
(1426,841,o),
(1426,688,cs),
(1426,680,l),
(1604,680,l),
(1604,693,ls),
(1604,917,o),
(1435,1055,o),
(825,1055,cs),
(252,1055,o),
(87,946,o),
(75,740,c),
(-14,740,l),
(-14,590,l),
(74,590,l),
(74,0,l),
(254,0,l)
);
}
);
width = 327;
}
);
note = dvmI.a15;
},
{
glyphname = dvmI.a16;
layers = (
{
layerId = m01;
shapes = (
{
closed = 1;
nodes = (
(254,590,l),
(341,590,l),
(341,740,l),
(253,740,l),
(266,855,o),
(381,910,o),
(842,910,cs),
(1345,910,o),
(1482,841,o),
(1482,686,cs),
(1482,679,l),
(1662,679,l),
(1662,691,ls),
(1662,919,o),
(1490,1056,o),
(852,1056,cs),
(254,1056,o),
(87,948,o),
(75,740,c),
(-14,740,l),
(-14,590,l),
(74,590,l),
(74,0,l),
(254,0,l)
);
}
);
width = 327;
}
);
note = dvmI.a16;
},
{
glyphname = dvmI.a17;
layers = (
{
layerId = m01;
shapes = (
{
closed = 1;
nodes = (
(254,590,l),
(341,590,l),
(341,740,l),
(253,740,l),
(266,855,o),
(383,911,o),
(869,911,cs),
(1399,911,o),
(1540,841,o),
(1540,684,cs),
(1540,677,l),
(1719,677,l),
(1719,689,ls),
(1719,920,o),
(1545,1057,o),
(880,1057,cs),
(257,1057,o),
(87,950,o),
(75,740,c),
(-14,740,l),
(-14,590,l),
(74,590,l),
(74,0,l),
(254,0,l)
);
}
);
width = 327;
}
);
note = dvmI.a17;
},
{
glyphname = dvmI.a18;
layers = (
{
layerId = m01;
shapes = (
{
closed = 1;
nodes = (
(254,590,l),
(341,590,l),
(341,740,l),
(253,740,l),
(267,856,o),
(385,912,o),
(897,912,cs),
(1452,912,o),
(1598,842,o),
(1598,683,cs),
(1598,675,l),
(1776,675,l),
(1776,687,ls),
(1776,922,o),
(1601,1058,o),
(908,1058,cs),
(261,1058,o),
(88,953,o),
(75,740,c),
(-14,740,l),
(-14,590,l),
(74,590,l),
(74,0,l),
(254,0,l)
);
}
);
width = 327;
}
);
note = dvmI.a18;
},
{
glyphname = dvmI.a19;
layers = (
{
layerId = m01;
shapes = (
{
closed = 1;
nodes = (
(254,590,l),
(341,590,l),
(341,740,l),
(253,740,l),
(267,856,o),
(388,913,o),
(923,913,cs),
(1505,913,o),
(1655,842,o),
(1655,681,cs),
(1655,674,l),
(1834,673,l),
(1834,685,ls),
(1834,923,o),
(1655,1059,o),
(935,1059,cs),
(264,1059,o),
(88,954,o),
(75,740,c),
(-14,740,l),
(-14,590,l),
(74,590,l),
(74,0,l),
(254,0,l)
);
}
);
width = 327;
}
);
note = dvmI.a19;
},
{
glyphname = dvmI.a20;
layers = (
{
layerId = m01;
shapes = (
{
closed = 1;
nodes = (
(254,590,l),
(341,590,l),
(341,740,l),
(253,740,l),
(268,857,o),
(392,914,o),
(949,914,cs),
(1560,914,o),
(1712,843,o),
(1712,678,cs),
(1712,673,l),
(1891,673,l),
(1891,683,ls),
(1891,924,o),
(1711,1060,o),
(963,1060,cs),
(266,1060,o),
(88,956,o),
(75,740,c),
(-14,740,l),
(-14,590,l),
(74,590,l),
(74,0,l),
(254,0,l)
);
}
);
width = 327;
}
);
note = dvmI.a20;
},
{
glyphname = dvmI.a21;
layers = (
{
layerId = m01;
shapes = (
{
closed = 1;
nodes = (
(254,590,l),
(341,590,l),
(341,740,l),
(253,740,l),
(268,857,o),
(395,914,o),
(977,914,cs),
(1614,914,o),
(1770,843,o),
(1770,676,cs),
(1770,671,l),
(1949,671,l),
(1949,681,ls),
(1949,925,o),
(1764,1061,o),
(991,1061,cs),
(268,1061,o),
(88,959,o),
(75,740,c),
(-14,740,l),
(-14,590,l),
(74,590,l),
(74,0,l),
(254,0,l)
);
}
);
width = 327;
}
);
note = dvmI.a21;
},
{
glyphname = dvmI.a22;
layers = (
{
layerId = m01;
shapes = (
{
closed = 1;
nodes = (
(254,590,l),
(341,590,l),
(341,740,l),
(253,740,l),
(268,857,o),
(396,915,o),
(1004,915,cs),
(1668,915,o),
(1828,844,o),
(1828,675,cs),
(1828,669,l),
(2007,669,l),
(2007,679,ls),
(2007,926,o),
(1820,1062,o),
(1019,1062,cs),
(271,1062,o),
(88,961,o),
(75,740,c),
(-14,740,l),
(-14,590,l),
(74,590,l),
(74,0,l),
(254,0,l)
);
}
);
width = 327;
}
);
note = dvmI.a22;
},
{
glyphname = dvmI.a23;
layers = (
{
layerId = m01;
shapes = (
{
closed = 1;
nodes = (
(254,590,l),
(341,590,l),
(341,740,l),
(254,740,l),
(268,859,o),
(400,916,o),
(1031,916,cs),
(1722,916,o),
(1884,844,o),
(1884,673,cs),
(1884,668,l),
(2065,667,l),
(2065,677,ls),
(2065,928,o),
(1875,1063,o),
(1046,1063,cs),
(276,1063,o),
(89,963,o),
(75,740,c),
(-14,740,l),
(-14,590,l),
(74,590,l),
(74,0,l),
(254,0,l)
);
}
);
width = 327;
}
);
note = dvmI.a23;
},
{
glyphname = dvmI.a24;
layers = (
{
layerId = m01;
shapes = (
{
closed = 1;
nodes = (
(254,590,l),
(341,590,l),
(341,740,l),
(254,740,l),
(269,860,o),
(403,917,o),
(1059,917,cs),
(1776,917,o),
(1942,845,o),
(1942,671,cs),
(1942,667,l),
(2122,666,l),
(2122,675,ls),
(2122,929,o),
(1930,1064,o),
(1075,1064,cs),
(278,1064,o),
(89,965,o),
(75,740,c),
(-14,740,l),
(-14,590,l),
(74,590,l),
(74,0,l),
(254,0,l)
);
}
);
width = 327;
}
);
note = dvmI.a24;
},
{
glyphname = exclam;
lastChange = "2022-10-20 09:46:53 +0000";
layers = (
{
layerId = m01;
shapes = (
{
closed = 1;
nodes = (
(128,274,ls),
(128,267,o),
(132,264,o),
(138,264,cs),
(285,264,ls),
(291,264,o),
(295,267,o),
(295,274,cs),
(318,731,ls),
(318,737,o),
(314,741,o),
(308,741,cs),
(115,741,ls),
(109,741,o),
(105,737,o),
(105,731,cs)
);
},
{
closed = 1;
nodes = (
(326,150,o),
(281,195,o),
(212,195,cs),
(142,195,o),
(97,150,o),
(97,93,cs),
(97,36,o),
(142,-8,o),
(212,-8,cs),
(281,-8,o),
(326,36,o),
(326,93,cs)
);
}
);
width = 423;
}
);
note = exclam;
unicode = 33;
},
{
glyphname = quotedbl;
lastChange = "2022-10-20 09:49:52 +0000";
layers = (
{
layerId = m01;
shapes = (
{
closed = 1;
nodes = (
(55,584,ls),
(55,577,o),
(60,574,o),
(66,574,cs),
(178,574,ls),
(184,574,o),
(188,577,o),
(188,584,cs),
(199,792,ls),
(199,798,o),
(196,802,o),
(190,802,cs),
(52,802,ls),
(46,802,o),
(43,798,o),
(43,792,cs)
);
},
{
closed = 1;
nodes = (
(263,584,ls),
(263,577,o),
(268,574,o),
(274,574,cs),
(385,574,ls),
(391,574,o),
(396,577,o),
(396,584,cs),
(407,792,ls),
(407,798,o),
(404,802,o),
(398,802,cs),
(260,802,ls),
(254,802,o),
(251,798,o),
(251,792,cs)
);
}
);
width = 451;
}
);
note = quotedbl;
unicode = 34;
},
{
glyphname = numbersign;
lastChange = "2022-10-20 09:47:37 +0000";
layers = (
{
layerId = m01;
shapes = (
{
closed = 1;
nodes = (
(541,356,ls),
(535,330,o),
(518,316,o),
(491,316,cs),
(430,316,ls),
(399,316,o),
(383,334,o),
(390,365,cs),
(395,390,ls),
(401,416,o),
(418,430,o),
(445,430,cs),
(506,430,ls),
(537,430,o),
(553,412,o),
(546,381,cs)
);
},
{
closed = 1;
nodes = (
(467,11,ls),
(466,4,o),
(469,0,o),
(476,0,cs),
(639,0,ls),
(645,0,o),
(649,3,o),
(650,9,cs),
(669,98,ls),
(675,124,o),
(691,138,o),
(718,138,cs),
(821,138,ls),
(827,138,o),
(831,142,o),
(831,148,cs),
(831,306,ls),
(831,312,o),
(827,316,o),
(821,316,cs),
(766,316,ls),
(735,316,o),
(719,334,o),
(726,365,cs),
(731,390,ls),
(737,416,o),
(754,430,o),
(781,430,cs),
(887,430,ls),
(893,430,o),
(897,434,o),
(897,440,cs),
(897,598,ls),
(897,604,o),
(893,608,o),
(887,608,cs),
(828,608,ls),
(797,608,o),
(782,627,o),
(788,657,cs),
(804,729,ls),
(805,736,o),
(802,740,o),
(795,740,cs),
(632,740,ls),
(626,740,o),
(622,737,o),
(621,731,cs),
(603,648,ls),
(597,622,o),
(581,608,o),
(554,608,cs),
(492,608,ls),
(461,608,o),
(446,627,o),
(452,657,cs),
(468,729,ls),
(469,736,o),
(466,740,o),
(459,740,cs),
(297,740,ls),
(291,740,o),
(287,737,o),
(286,731,cs),
(268,648,ls),
(262,622,o),
(246,608,o),
(219,608,cs),
(91,608,ls),
(85,608,o),
(81,604,o),
(81,598,cs),
(81,440,ls),
(81,434,o),
(85,430,o),
(91,430,cs),
(171,430,ls),
(202,430,o),
(218,412,o),
(211,381,cs),
(206,356,ls),
(200,330,o),
(183,316,o),
(156,316,cs),
(25,316,ls),
(19,316,o),
(15,312,o),
(15,306,cs),
(15,148,ls),
(15,142,o),
(19,138,o),
(25,138,cs),
(109,138,ls),
(140,138,o),
(155,120,o),
(149,89,cs),
(132,11,ls),
(131,4,o),
(134,0,o),
(141,0,cs),
(303,0,ls),
(309,0,o),
(313,3,o),
(314,9,cs),
(333,98,ls),
(339,124,o),
(355,138,o),
(382,138,cs),
(444,138,ls),
(475,138,o),
(490,120,o),
(484,89,cs)
);
}
);
width = 919;
}
);
note = numbersign;
unicode = 35;
},
{
glyphname = dollar;
layers = (
{
layerId = m01;
shapes = (
{
closed = 1;
nodes = (
(292,-87,l),
(355,-87,l),
(355,-7,l),
(523,-1,o),
(615,93,o),
(615,206,cs),
(615,367,o),
(464,398,o),
(355,431,c),
(355,558,l),
(375,549,o),
(390,530,o),
(393,497,c),
(604,497,l),
(595,630,o),
(501,704,o),
(355,715,c),
(355,796,l),
(292,796,l),
(292,715,l),
(151,708,o),
(37,633,o),
(37,504,cs),
(37,340,o),
(183,308,o),
(292,278,c),
(292,150,l),
(267,160,o),
(251,181,o),
(248,217,c),
(39,217,l),
(45,82,o),
(151,8,o),
(292,-5,c)
);
},
{
closed = 1;
nodes = (
(407,171,o),
(387,151,o),
(355,145,c),
(355,258,l),
(386,245,o),
(407,228,o),
(407,201,cs)
);
},
{
closed = 1;
nodes = (
(246,542,o),
(263,559,o),
(292,564,c),
(292,454,l),
(264,468,o),
(246,486,o),
(246,513,cs)
);
}
);
width = 661;
}
);
note = dollar;
unicode = 36;
},
{
glyphname = percent;
layers = (
{
layerId = m01;
shapes = (
{
closed = 1;
nodes = (
(26,427,o),
(101,368,o),
(200,368,cs),
(299,368,o),
(373,427,o),
(373,543,cs),
(373,660,o),
(299,718,o),
(200,718,cs),
(101,718,o),
(26,660,o),
(26,543,cs)
);
},
{
closed = 1;
nodes = (
(225,603,o),
(242,584,o),
(242,543,cs),
(242,502,o),
(225,483,o),
(199,483,cs),
(173,483,o),
(158,502,o),
(158,543,cs),
(158,584,o),
(173,603,o),
(199,603,cs)
);
},
{
closed = 1;
nodes = (
(169,0,l),
(357,0,l),
(736,707,l),
(548,707,l)
);
},
{
closed = 1;
nodes = (
(532,48,o),
(607,-11,o),
(706,-11,cs),
(805,-11,o),
(878,48,o),
(878,165,cs),
(878,281,o),
(805,340,o),
(706,340,cs),
(607,340,o),
(532,281,o),
(532,165,cs)
);
},
{
closed = 1;
nodes = (
(730,225,o),
(747,205,o),
(747,165,cs),
(747,123,o),
(730,104,o),
(705,104,cs),
(678,104,o),
(663,123,o),
(663,165,cs),
(663,205,o),
(678,225,o),
(705,225,cs)
);
}
);
width = 904;
}
);
note = percent;
unicode = 37;
},
{
glyphname = ampersand;
lastChange = "2022-10-20 09:47:53 +0000";
layers = (
{
layerId = m01;
shapes = (
{
closed = 1;
nodes = (
(569,528,ls),
(575,528,o),
(579,531,o),
(579,538,cs),
(576,632,o),
(501,719,o),
(354,719,cs),
(205,719,o),
(123,633,o),
(123,530,cs),
(123,487,o),
(136,450,o),
(170,407,c),
(79,362,o),
(36,288,o),
(36,205,cs),
(36,76,o),
(141,-11,o),
(309,-11,cs),
(398,-11,o),
(473,11,o),
(536,54,c),
(588,5,ls),
(591,2,o),
(595,0,o),
(600,0,cs),
(796,0,ls),
(805,0,o),
(808,5,o),
(801,12,cs),
(646,164,l),
(676,205,o),
(702,254,o),
(725,309,c),
(748,353,ls),
(751,360,o),
(748,365,o),
(741,365,cs),
(568,365,ls),
(563,365,o),
(558,362,o),
(556,358,cs),
(540,329,l),
(534,314,o),
(528,300,o),
(521,286,c),
(356,447,ls),
(323,480,o),
(306,507,o),
(306,532,cs),
(306,559,o),
(327,575,o),
(353,575,cs),
(374,575,o),
(393,563,o),
(397,538,cs),
(398,531,o),
(402,528,o),
(408,528,cs)
);
},
{
closed = 1;
nodes = (
(260,146,o),
(225,181,o),
(225,222,cs),
(225,251,o),
(242,280,o),
(277,301,c),
(416,169,l),
(389,154,o),
(358,146,o),
(322,146,cs)
);
}
);
width = 814;
}
);
note = ampersand;
unicode = 38;
},
{
glyphname = quotesingle;
lastChange = "2022-10-20 09:49:47 +0000";
layers = (
{
layerId = m01;
shapes = (
{
closed = 1;
nodes = (
(55,584,ls),
(55,577,o),
(60,574,o),
(66,574,cs),
(178,574,ls),
(184,574,o),
(188,577,o),
(188,584,cs),
(199,792,ls),
(199,798,o),
(196,802,o),
(190,802,cs),
(52,802,ls),
(46,802,o),
(43,798,o),
(43,792,cs)
);
}
);
width = 243;
}
);
note = quotesingle;
unicode = 39;
},
{
glyphname = parenleft;
layers = (
{
layerId = m01;
shapes = (
{
closed = 1;
nodes = (
(468,-219,l),
(468,-201,l),
(337,-64,o),
(258,136,o),
(258,340,cs),
(258,544,o),
(337,748,o),
(473,886,c),
(473,904,l),
(281,904,l),
(149,781,o),
(71,570,o),
(71,340,cs),
(71,111,o),
(149,-97,o),
(277,-219,c)
);
}
);
width = 470;
}
);
note = parenleft;
unicode = 40;
},
{
glyphname = parenright;
layers = (
{
layerId = m01;
shapes = (
{
closed = 1;
nodes = (
(2,-219,l),
(2,-201,l),
(133,-64,o),
(212,136,o),
(212,340,cs),
(212,544,o),
(133,748,o),
(-3,886,c),
(-3,904,l),
(189,904,l),
(321,781,o),
(399,570,o),
(399,340,cs),
(399,111,o),
(321,-97,o),
(193,-219,c)
);
}
);
width = 470;
}
);
note = parenright;
unicode = 41;
},
{
glyphname = asterisk;
lastChange = "2022-10-20 09:48:17 +0000";
layers = (
{
layerId = m01;
shapes = (
{
closed = 1;
nodes = (
(341,731,ls),
(342,737,o),
(339,742,o),
(332,742,cs),
(223,742,ls),
(216,742,o),
(214,737,o),
(215,731,cs),
(236,637,ls),
(238,627,o),
(232,624,o),
(225,630,cs),
(151,694,ls),
(146,699,o),
(141,697,o),
(138,691,cs),
(86,600,ls),
(83,594,o),
(86,589,o),
(92,587,cs),
(176,560,ls),
(185,557,o),
(185,550,o),
(176,547,cs),
(90,518,ls),
(84,516,o),
(82,510,o),
(85,504,cs),
(142,405,ls),
(145,399,o),
(151,398,o),
(156,403,cs),
(224,469,ls),
(231,475,o),
(238,472,o),
(236,463,cs),
(216,371,ls),
(215,364,o),
(218,360,o),
(225,360,cs),
(331,360,ls),
(338,360,o),
(341,364,o),
(340,371,cs),
(320,463,ls),
(318,473,o),
(324,476,o),
(331,470,cs),
(401,405,ls),
(406,400,o),
(412,401,o),
(415,407,cs),
(469,503,ls),
(472,509,o),
(470,514,o),
(464,516,cs),
(377,545,ls),
(368,548,o),
(368,555,o),
(377,558,cs),
(464,587,ls),
(470,589,o),
(473,595,o),
(470,601,cs),
(418,692,ls),
(415,698,o),
(410,700,o),
(405,695,cs),
(331,631,ls),
(323,624,o),
(318,627,o),
(320,637,cs)
);
}
);
width = 548;
}
);
note = asterisk;
unicode = 42;
},
{
glyphname = plus;
lastChange = "2022-10-20 09:48:50 +0000";
layers = (
{
layerId = m01;
shapes = (
{
closed = 1;
nodes = (
(211,600,ls),
(205,600,o),
(201,596,o),
(201,590,cs),
(201,478,ls),
(201,449,o),
(185,433,o),
(156,433,cs),
(49,433,ls),
(43,433,o),
(39,429,o),
(39,423,cs),
(39,266,ls),
(39,260,o),
(43,256,o),
(49,256,cs),
(156,256,ls),
(185,256,o),
(201,240,o),
(201,211,cs),
(201,100,ls),
(201,94,o),
(205,90,o),
(211,90,cs),
(379,90,ls),
(385,90,o),
(389,94,o),
(389,100,cs),
(389,211,ls),
(389,240,o),
(405,256,o),
(434,256,cs),
(540,256,ls),
(546,256,o),
(550,260,o),
(550,266,cs),
(550,423,ls),
(550,429,o),
(546,433,o),
(540,433,cs),
(434,433,ls),
(405,433,o),
(389,449,o),
(389,478,cs),
(389,590,ls),
(389,596,o),
(385,600,o),
(379,600,cs)
);
}
);
width = 589;
}
);
note = plus;
unicode = 43;
},
{
glyphname = comma;
lastChange = "2022-10-20 09:49:57 +0000";
layers = (
{
layerId = m01;
shapes = (
{
closed = 1;
nodes = (
(28,-145,ls),
(27,-151,o),
(30,-156,o),
(37,-156,cs),
(147,-156,ls),
(152,-156,o),
(156,-154,o),
(158,-148,cs),
(280,177,ls),
(282,184,o),
(279,189,o),
(272,189,cs),
(96,189,ls),
(90,189,o),
(86,186,o),
(85,180,cs)
);
}
);
width = 319;
}
);
note = comma;
unicode = 44;
},
{
glyphname = hyphen;
lastChange = "2022-10-20 09:48:54 +0000";
layers = (
{
layerId = m01;
shapes = (
{
closed = 1;
nodes = (
(36,275,ls),
(36,269,o),
(40,265,o),
(46,265,cs),
(479,265,ls),
(485,265,o),
(489,269,o),
(489,275,cs),
(489,418,ls),
(489,424,o),
(485,428,o),
(479,428,cs),
(46,428,ls),
(40,428,o),
(36,424,o),
(36,418,cs)
);
}
);
width = 578;
}
);
note = hyphen;
unicode = 45;
},
{
glyphname = period;
layers = (
{
layerId = m01;
shapes = (
{
closed = 1;
nodes = (
(265,150,o),
(220,195,o),
(151,195,cs),
(81,195,o),
(36,150,o),
(36,93,cs),
(36,36,o),
(81,-8,o),
(151,-8,cs),
(220,-8,o),
(265,36,o),
(265,93,cs)
);
}
);
width = 301;
}
);
note = period;
unicode = 46;
},
{
glyphname = slash;
layers = (
{
layerId = m01;
shapes = (
{
closed = 1;
nodes = (
(-13,-193,l),
(176,-193,l),
(443,952,l),
(254,952,l)
);
}
);
width = 426;
}
);
note = slash;
unicode = 47;
},
{
glyphname = zero;
layers = (
{
layerId = m01;
shapes = (
{
closed = 1;
nodes = (
(39,157,o),
(119,4,o),
(329,4,cs),
(539,4,o),
(620,157,o),
(620,376,cs),
(620,592,o),
(539,746,o),
(329,746,cs),
(119,746,o),
(39,592,o),
(39,376,cs)
);
},
{
closed = 1;
nodes = (
(426,272,o),
(416,189,o),
(329,189,cs),
(242,189,o),
(232,272,o),
(232,376,cs),
(232,477,o),
(242,561,o),
(329,561,cs),
(416,561,o),
(426,477,o),
(426,376,cs)
);
}
);
width = 657;
}
);
note = zero;
unicode = 48;
},
{
glyphname = one;
lastChange = "2022-10-20 09:38:26 +0000";
layers = (
{
layerId = m01;
shapes = (
{
closed = 1;
nodes = (
(121,0,l),
(326,0,l),
(326,686,ls),
(326,715,o),
(310,731,o),
(281,731,cs),
(57,731,l),
(18,547,l),
(76,547,ls),
(105,547,o),
(121,531,o),
(121,502,cs)
);
}
);
width = 387;
}
);
note = one;
unicode = 49;
},
{
glyphname = two;
lastChange = "2022-10-20 09:44:23 +0000";
layers = (
{
layerId = m01;
shapes = (
{
closed = 1;
nodes = (
(33,10,l),
(533,10,ls),
(539,10,o),
(543,14,o),
(543,20,cs),
(543,124,ls),
(543,153,o),
(527,169,o),
(498,169,cs),
(293,169,l),
(410,250,o),
(536,375,o),
(536,527,cs),
(536,647,o),
(467,746,o),
(293,746,cs),
(161,746,o),
(42,674,o),
(31,495,cs),
(31,489,o),
(35,485,o),
(41,485,cs),
(178,485,ls),
(206,485,o),
(218,500,o),
(225,529,cs),
(233,564,o),
(254,581,o),
(281,581,cs),
(319,581,o),
(338,555,o),
(338,513,cs),
(338,399,o),
(182,274,o),
(33,157,c)
);
}
);
width = 569;
}
);
note = two;
unicode = 50;
},
{
glyphname = three;
lastChange = "2022-10-20 09:44:51 +0000";
layers = (
{
layerId = m01;
shapes = (
{
closed = 1;
nodes = (
(199,513,ls),
(226,513,o),
(236,527,o),
(248,552,cs),
(256,570,o),
(271,584,o),
(297,584,cs),
(330,584,o),
(353,564,o),
(353,522,cs),
(353,460,o),
(300,454,o),
(262,455,cs),
(240,455,o),
(228,439,o),
(228,410,cs),
(228,341,ls),
(228,312,o),
(241,296,o),
(263,296,cs),
(337,296,o),
(367,272,o),
(367,222,cs),
(367,183,o),
(344,156,o),
(305,156,cs),
(269,156,o),
(246,172,o),
(236,199,cs),
(227,225,o),
(216,240,o),
(189,240,cs),
(50,240,ls),
(44,240,o),
(40,236,o),
(40,230,cs),
(48,63,o),
(158,-6,o),
(313,-6,cs),
(467,-6,o),
(557,81,o),
(557,207,cs),
(557,301,o),
(506,353,o),
(436,379,c),
(436,381,ls),
(436,382,o),
(440,384,o),
(448,387,cs),
(492,406,o),
(544,454,o),
(544,546,cs),
(544,658,o),
(460,747,o),
(302,747,cs),
(150,747,o),
(57,668,o),
(48,523,cs),
(48,517,o),
(52,513,o),
(58,513,cs)
);
}
);
width = 610;
}
);
note = three;
unicode = 51;
},
{
glyphname = four;
lastChange = "2022-10-20 09:45:15 +0000";
layers = (
{
layerId = m01;
shapes = (
{
closed = 1;
nodes = (
(375,10,ls),
(375,4,o),
(379,0,o),
(385,0,cs),
(563,0,ls),
(569,0,o),
(573,4,o),
(573,10,cs),
(573,120,l),
(640,120,ls),
(646,120,o),
(650,124,o),
(650,130,cs),
(650,290,l),
(618,290,ls),
(589,290,o),
(573,306,o),
(573,335,cs),
(573,710,ls),
(573,716,o),
(569,720,o),
(563,720,cs),
(358,720,l),
(51,282,l),
(51,120,l),
(375,120,l)
);
},
{
closed = 1;
nodes = (
(252,290,l),
(390,499,l),
(390,290,l)
);
}
);
width = 691;
}
);
note = four;
unicode = 52;
},
{
glyphname = five;
lastChange = "2022-10-20 09:45:31 +0000";
layers = (
{
layerId = m01;
shapes = (
{
closed = 1;
nodes = (
(103,731,ls),
(97,731,o),
(93,727,o),
(93,721,cs),
(93,289,l),
(284,289,l),
(288,314,o),
(309,336,o),
(347,336,cs),
(394,336,o),
(421,309,o),
(421,256,cs),
(421,205,o),
(399,168,o),
(350,168,cs),
(307,168,o),
(288,192,o),
(282,216,cs),
(280,222,o),
(277,225,o),
(271,225,cs),
(99,225,ls),
(93,225,o),
(89,221,o),
(89,215,cs),
(95,89,o),
(192,0,o),
(358,0,cs),
(518,0,o),
(611,96,o),
(611,253,cs),
(611,375,o),
(547,491,o),
(396,491,cs),
(342,491,o),
(296,473,o),
(271,447,c),
(271,558,l),
(526,558,ls),
(555,558,o),
(571,574,o),
(571,603,cs),
(571,721,ls),
(571,727,o),
(567,731,o),
(561,731,cs)
);
}
);
width = 655;
}
);
note = five;
unicode = 53;
},
{
glyphname = six;
lastChange = "2022-10-20 09:45:47 +0000";
layers = (
{
layerId = m01;
shapes = (
{
closed = 1;
nodes = (
(558,521,ls),
(564,521,o),
(568,525,o),
(567,531,cs),
(556,641,o),
(487,745,o),
(327,745,cs),
(136,745,o),
(57,624,o),
(57,365,cs),
(57,153,o),
(111,-5,o),
(333,-5,cs),
(492,-5,o),
(587,92,o),
(587,240,cs),
(587,393,o),
(498,472,o),
(373,472,cs),
(311,472,o),
(258,446,o),
(231,405,c),
(232,524,o),
(251,587,o),
(316,587,cs),
(344,587,o),
(362,577,o),
(373,558,cs),
(386,534,o),
(399,521,o),
(425,521,cs)
);
},
{
closed = 1;
nodes = (
(374,320,o),
(403,290,o),
(403,241,cs),
(403,189,o),
(373,162,o),
(326,162,cs),
(275,162,o),
(245,190,o),
(245,243,cs),
(245,294,o),
(280,320,o),
(325,320,cs)
);
}
);
width = 635;
}
);
note = six;
unicode = 54;
},
{
glyphname = seven;
lastChange = "2022-10-20 09:46:11 +0000";
layers = (
{
layerId = m01;
shapes = (
{
closed = 1;
nodes = (
(33,730,ls),
(27,730,o),
(23,726,o),
(23,720,cs),
(23,607,ls),
(23,578,o),
(39,562,o),
(68,562,cs),
(251,562,ls),
(285,562,o),
(298,540,o),
(285,509,cs),
(71,12,ls),
(68,5,o),
(72,0,o),
(79,0,cs),
(259,0,ls),
(264,0,o),
(268,2,o),
(270,8,cs),
(507,585,l),
(507,720,ls),
(507,726,o),
(503,730,o),
(497,730,cs)
);
}
);
width = 523;
}
);
note = seven;
unicode = 55;
},
{
glyphname = eight;
layers = (
{
layerId = m01;
shapes = (
{
closed = 1;
nodes = (
(89,361,o),
(51,301,o),
(51,219,cs),
(51,68,o),
(177,-13,o),
(326,-13,cs),
(475,-13,o),
(601,68,o),
(601,219,cs),
(601,301,o),
(563,361,o),
(495,397,c),
(548,426,o),
(584,477,o),
(584,550,cs),
(584,654,o),
(503,746,o),
(326,746,cs),
(149,746,o),
(68,654,o),
(68,550,cs),
(68,476,o),
(103,427,o),
(157,397,c)
);
},
{
closed = 1;
nodes = (
(289,447,o),
(260,472,o),
(260,519,cs),
(260,566,o),
(288,593,o),
(326,593,cs),
(365,593,o),
(392,566,o),
(392,519,cs),
(392,472,o),
(363,447,o),
(326,447,cs)
);
},
{
closed = 1;
nodes = (
(377,313,o),
(410,280,o),
(410,230,cs),
(410,184,o),
(380,148,o),
(326,148,cs),
(272,148,o),
(241,184,o),
(241,230,cs),
(241,281,o),
(276,313,o),
(326,313,cs)
);
}
);
width = 653;
}
);
note = eight;
unicode = 56;
},
{
glyphname = nine;
lastChange = "2022-10-20 09:46:30 +0000";
layers = (
{
layerId = m01;
shapes = (
{
closed = 1;
nodes = (
(69,221,ls),
(63,221,o),
(59,217,o),
(60,211,cs),
(71,99,o),
(153,-5,o),
(310,-5,cs),
(507,-5,o),
(569,137,o),
(569,386,cs),
(569,601,o),
(512,747,o),
(295,747,cs),
(139,747,o),
(41,652,o),
(41,502,cs),
(41,346,o),
(134,269,o),
(257,269,cs),
(317,269,o),
(368,293,o),
(394,332,c),
(394,214,o),
(378,153,o),
(316,153,cs),
(287,153,o),
(267,164,o),
(255,185,cs),
(241,208,o),
(229,221,o),
(203,221,cs)
);
},
{
closed = 1;
nodes = (
(253,421,o),
(225,452,o),
(225,498,cs),
(225,549,o),
(255,577,o),
(302,577,cs),
(349,577,o),
(379,551,o),
(379,497,cs),
(379,450,o),
(350,421,o),
(304,421,cs)
);
}
);
width = 606;
}
);
note = nine;
unicode = 57;
},
{
glyphname = colon;
layers = (
{
layerId = m01;
shapes = (
{
closed = 1;
nodes = (
(265,150,o),
(220,195,o),
(151,195,cs),
(81,195,o),
(36,150,o),
(36,93,cs),
(36,36,o),
(81,-8,o),
(151,-8,cs),
(220,-8,o),
(265,36,o),
(265,93,cs)
);
},
{
closed = 1;
nodes = (
(265,552,o),
(220,597,o),
(151,597,cs),
(81,597,o),
(36,552,o),
(36,495,cs),
(36,438,o),
(81,394,o),
(151,394,cs),
(220,394,o),
(265,438,o),
(265,495,cs)
);
}
);
width = 302;
}
);
note = colon;
unicode = 58;
},
{
glyphname = semicolon;
layers = (
{
layerId = m01;
shapes = (
{
closed = 1;
nodes = (
(298,540,o),
(253,585,o),
(184,585,cs),
(114,585,o),
(69,540,o),
(69,483,cs),
(69,426,o),
(114,382,o),
(184,382,cs),
(253,382,o),
(298,426,o),
(298,483,cs)
);
},
{
closed = 1;
nodes = (
(49,-156,l),
(178,-156,l),
(307,189,l),
(110,189,l)
);
}
);
width = 366;
}
);
note = semicolon;
unicode = 59;
},
{
glyphname = less;
lastChange = "2022-10-20 09:50:11 +0000";
layers = (
{
layerId = m01;
shapes = (
{
closed = 1;
nodes = (
(312,313,ls),
(294,334,o),
(294,356,o),
(312,377,cs),
(465,552,ls),
(470,558,o),
(468,564,o),
(460,564,cs),
(237,564,ls),
(232,564,o),
(228,562,o),
(225,558,cs),
(66,377,ls),
(48,356,o),
(48,334,o),
(66,313,cs),
(225,133,ls),
(228,129,o),
(232,127,o),
(237,127,cs),
(460,127,ls),
(468,127,o),
(471,133,o),
(465,139,cs)
);
}
);
width = 524;
}
);
note = less;
unicode = 60;
},
{
glyphname = equal;
lastChange = "2022-10-20 09:48:59 +0000";
layers = (
{
layerId = m01;
shapes = (
{
closed = 1;
nodes = (
(44,133,ls),
(44,127,o),
(48,123,o),
(54,123,cs),
(607,123,ls),
(613,123,o),
(617,127,o),
(617,133,cs),
(617,289,ls),
(617,295,o),
(613,299,o),
(607,299,cs),
(54,299,ls),
(48,299,o),
(44,295,o),
(44,289,cs)
);
},
{
closed = 1;
nodes = (
(44,400,ls),
(44,394,o),
(48,390,o),
(54,390,cs),
(607,390,ls),
(613,390,o),
(617,394,o),
(617,400,cs),
(617,557,ls),
(617,563,o),
(613,567,o),
(607,567,cs),
(54,567,ls),
(48,567,o),
(44,563,o),
(44,557,cs)
);
}
);
width = 661;
}
);
note = equal;
unicode = 61;
},
{
glyphname = greater;
lastChange = "2022-10-20 09:50:18 +0000";
layers = (
{
layerId = m01;
shapes = (
{
closed = 1;
nodes = (
(50,133,o),
(53,127,o),
(61,127,cs),
(284,127,ls),
(289,127,o),
(293,129,o),
(296,133,cs),
(455,313,ls),
(473,334,o),
(473,356,o),
(455,377,cs),
(296,558,ls),
(293,562,o),
(289,564,o),
(284,564,cs),
(61,564,ls),
(53,564,o),
(51,558,o),
(56,552,cs),
(209,377,ls),
(227,356,o),
(227,334,o),
(209,313,cs),
(56,139,ls)
);
}
);
width = 519;
}
);
note = greater;
unicode = 62;
},
{
glyphname = question;
lastChange = "2022-10-20 09:50:25 +0000";
layers = (
{
layerId = m01;
shapes = (
{
closed = 1;
nodes = (
(198,536,ls),
(204,536,o),
(208,539,o),
(208,546,cs),
(212,576,o),
(230,597,o),
(265,597,cs),
(297,597,o),
(318,577,o),
(319,542,cs),
(321,484,o),
(264,468,o),
(179,468,cs),
(107,468,l),
(113,279,ls),
(113,272,o),
(117,269,o),
(123,269,cs),
(276,269,ls),
(282,269,o),
(287,272,o),
(287,279,cs),
(291,342,l),
(420,344,o),
(511,417,o),
(511,541,cs),
(511,684,o),
(410,757,o),
(270,757,cs),
(106,757,o),
(24,662,o),
(23,546,cs),
(23,539,o),
(27,536,o),
(33,536,cs)
);
},
{
closed = 1;
nodes = (
(315,150,o),
(270,195,o),
(201,195,cs),
(131,195,o),
(86,150,o),
(86,93,cs),
(86,36,o),
(131,-8,o),
(201,-8,cs),
(270,-8,o),
(315,36,o),
(315,93,cs)
);
}
);
width = 538;
}
);
note = question;
unicode = 63;
},
{
glyphname = at;
lastChange = "2022-10-20 09:47:11 +0000";
layers = (
{
layerId = m01;
shapes = (
{
closed = 1;
nodes = (
(938,-5,o),
(1030,142,o),
(1030,314,cs),
(1030,529,o),
(874,677,o),
(632,677,cs),
(315,677,o),
(75,450,o),
(75,135,cs),
(75,-90,o),
(228,-235,o),
(464,-235,cs),
(543,-235,o),
(617,-221,o),
(681,-195,cs),
(687,-192,o),
(689,-188,o),
(688,-182,cs),
(670,-113,ls),
(663,-84,o),
(643,-74,o),
(614,-83,cs),
(573,-95,o),
(526,-102,o),
(477,-102,cs),
(314,-102,o),
(219,-6,o),
(219,149,cs),
(219,369,o),
(388,547,o),
(614,547,cs),
(782,547,o),
(884,454,o),
(884,308,cs),
(884,216,o),
(857,122,o),
(794,122,cs),
(759,122,o),
(754,149,o),
(761,191,cs),
(794,378,ls),
(799,408,o),
(784,427,o),
(753,427,cs),
(657,427,ls),
(651,427,o),
(647,424,o),
(646,418,cs),
(638,371,l),
(622,409,o),
(585,433,o),
(528,433,cs),
(395,433,o),
(303,300,o),
(303,156,cs),
(303,53,o),
(362,-7,o),
(460,-7,cs),
(530,-7,o),
(589,22,o),
(624,74,c),
(644,24,o),
(693,-5,o),
(766,-5,cs)
);
},
{
closed = 1;
nodes = (
(610,175,o),
(569,131,o),
(524,131,cs),
(489,131,o),
(469,155,o),
(469,192,cs),
(469,249,o),
(506,296,o),
(554,296,cs),
(589,296,o),
(610,270,o),
(610,232,cs)
);
}
);
width = 1104;
}
);
note = at;
unicode = 64;
},
{
glyphname = A;
lastChange = "2022-10-20 08:59:31 +0000";
layers = (
{
layerId = m01;
shapes = (
{
closed = 1;
nodes = (
(531,29,ls),
(537,12,o),
(552,0,o),
(570,0,cs),
(735,0,ls),
(742,0,o),
(745,4,o),
(743,11,cs),
(501,678,ls),
(495,695,o),
(480,705,o),
(462,705,cs),
(294,705,ls),
(276,705,o),
(261,695,o),
(255,678,cs),
(12,11,ls),
(10,4,o),
(13,0,o),
(20,0,cs),
(184,0,ls),
(202,0,o),
(217,12,o),
(223,29,cs),
(249,107,ls),
(251,112,o),
(256,115,o),
(261,115,cs),
(493,115,ls),
(498,115,o),
(503,112,o),
(505,107,cs)
);
},
{
closed = 1;
nodes = (
(449,276,ls),
(451,269,o),
(448,265,o),
(441,265,cs),
(314,265,ls),
(307,265,o),
(304,269,o),
(306,276,cs),
(371,474,ls),
(374,483,o),
(380,483,o),
(383,474,cs)
);
}
);
width = 755;
}
);
note = A;
unicode = 65;
},
{
glyphname = B;
lastChange = "2022-10-20 09:00:23 +0000";
layers = (
{
layerId = m01;
shapes = (
{
closed = 1;
nodes = (
(440,178,o),
(415,158,o),
(366,158,cs),
(252,158,l),
(252,241,ls),
(252,270,o),
(268,286,o),
(297,286,cs),
(365,286,ls),
(413,286,o),
(440,263,o),
(440,220,cs)
);
},
{
closed = 1;
nodes = (
(425,445,o),
(399,425,o),
(351,425,cs),
(252,425,l),
(252,504,ls),
(252,533,o),
(268,549,o),
(297,549,cs),
(351,549,ls),
(399,549,o),
(425,528,o),
(425,486,cs)
);
},
{
closed = 1;
nodes = (
(641,272,o),
(590,343,o),
(506,362,c),
(575,381,o),
(625,437,o),
(625,522,cs),
(625,639,o),
(537,705,o),
(394,705,cs),
(66,705,ls),
(60,705,o),
(56,701,o),
(56,695,cs),
(56,10,ls),
(56,4,o),
(60,0,o),
(66,0,cs),
(405,0,ls),
(556,0,o),
(641,73,o),
(641,192,cs)
);
}
);
width = 671;
}
);
note = B;
unicode = 66;
},
{
glyphname = C;
lastChange = "2022-10-20 09:01:09 +0000";
layers = (
{
layerId = m01;
shapes = (
{
closed = 1;
nodes = (
(32,143,o),
(171,-5,o),
(383,-5,cs),
(540,-5,o),
(658,76,o),
(706,206,cs),
(718,237,o),
(700,257,o),
(668,257,cs),
(518,257,ls),
(513,257,o),
(509,255,o),
(506,250,cs),
(481,201,o),
(435,175,o),
(380,175,cs),
(290,175,o),
(231,245,o),
(231,354,cs),
(231,462,o),
(290,532,o),
(380,532,cs),
(435,532,o),
(481,506,o),
(506,457,cs),
(509,452,o),
(513,450,o),
(518,450,cs),
(668,450,ls),
(700,450,o),
(718,470,o),
(706,501,cs),
(658,631,o),
(540,712,o),
(383,712,cs),
(171,712,o),
(32,564,o),
(32,354,cs)
);
}
);
width = 758;
}
);
note = C;
unicode = 67;
},
{
glyphname = D;
lastChange = "2022-10-20 10:15:10 +0000";
layers = (
{
layerId = m01;
shapes = (
{
closed = 1;
nodes = (
(81,705,ls),
(65,705,o),
(56,696,o),
(56,680,cs),
(56,25,ls),
(56,9,o),
(65,0,o),
(81,0,cs),
(335,0,ls),
(560,0,o),
(703,149,o),
(703,353,cs),
(703,560,o),
(560,705,o),
(335,705,cs)
);
},
{
closed = 1;
nodes = (
(252,173,l),
(252,490,ls),
(252,519,o),
(268,535,o),
(297,535,cs),
(320,535,ls),
(433,535,o),
(504,470,o),
(504,353,cs),
(504,237,o),
(433,173,o),
(320,173,cs)
);
}
);
width = 735;
}
);
note = D;
unicode = 68;
},
{
glyphname = E;
lastChange = "2022-10-20 09:04:25 +0000";
layers = (
{
layerId = m01;
shapes = (
{
closed = 1;
nodes = (
(507,695,ls),
(507,701,o),
(503,705,o),
(497,705,cs),
(66,705,ls),
(60,705,o),
(56,701,o),
(56,695,cs),
(56,10,ls),
(56,4,o),
(60,0,o),
(66,0,cs),
(497,0,ls),
(503,0,o),
(507,4,o),
(507,10,cs),
(507,112,ls),
(507,141,o),
(491,157,o),
(462,157,cs),
(297,157,ls),
(268,157,o),
(252,173,o),
(252,202,cs),
(252,274,ls),
(252,280,o),
(256,284,o),
(262,284,cs),
(467,284,ls),
(473,284,o),
(477,288,o),
(477,294,cs),
(477,423,ls),
(477,429,o),
(473,433,o),
(467,433,cs),
(262,433,ls),
(256,433,o),
(252,437,o),
(252,443,cs),
(252,503,ls),
(252,532,o),
(268,548,o),
(297,548,cs),
(462,548,ls),
(491,548,o),
(507,564,o),
(507,593,cs)
);
}
);
width = 548;
}
);
note = E;
unicode = 69;
},
{
glyphname = F;
lastChange = "2022-10-20 09:05:23 +0000";
layers = (
{
layerId = m01;
shapes = (
{
closed = 1;
nodes = (
(56,10,ls),
(56,4,o),
(60,0,o),
(66,0,cs),
(242,0,ls),
(248,0,o),
(252,4,o),
(252,10,cs),
(252,266,ls),
(252,272,o),
(256,276,o),
(262,276,cs),
(450,276,ls),
(456,276,o),
(460,280,o),
(460,286,cs),
(460,415,ls),
(460,421,o),
(456,425,o),
(450,425,cs),
(262,425,ls),
(256,425,o),
(252,429,o),
(252,435,cs),
(252,504,ls),
(252,533,o),
(268,549,o),
(297,549,cs),
(489,549,ls),
(518,549,o),
(534,565,o),
(534,594,cs),
(534,695,ls),
(534,701,o),
(530,705,o),
(524,705,cs),
(101,705,ls),
(72,705,o),
(56,689,o),
(56,660,cs)
);
}
);
width = 561;
}
);
note = F;
unicode = 70;
},
{
glyphname = G;
lastChange = "2022-10-20 09:10:28 +0000";
layers = (
{
layerId = m01;
shapes = (
{
closed = 1;
nodes = (
(173,712,o),
(32,564,o),
(32,354,cs),
(32,143,o),
(174,-5,o),
(390,-5,cs),
(574,-5,o),
(683,109,o),
(725,212,c),
(725,392,ls),
(725,398,o),
(721,402,o),
(715,402,cs),
(404,402,ls),
(375,402,o),
(359,386,o),
(359,357,cs),
(359,271,ls),
(359,265,o),
(363,261,o),
(369,261,cs),
(556,261,l),
(527,200,o),
(477,168,o),
(409,168,cs),
(293,168,o),
(231,233,o),
(231,354,cs),
(231,462,o),
(291,531,o),
(390,531,cs),
(430,531,o),
(462,520,o),
(485,499,cs),
(502,483,o),
(516,473,o),
(540,473,cs),
(706,473,ls),
(713,473,o),
(716,477,o),
(715,484,cs),
(683,625,o),
(563,712,o),
(389,712,cs)
);
}
);
width = 757;
}
);
note = G;
unicode = 71;
},
{
glyphname = H;
lastChange = "2022-10-20 09:11:12 +0000";
layers = (
{
layerId = m01;
shapes = (
{
closed = 1;
nodes = (
(491,45,ls),
(491,16,o),
(507,0,o),
(536,0,cs),
(677,0,ls),
(683,0,o),
(687,4,o),
(687,10,cs),
(687,695,ls),
(687,701,o),
(683,705,o),
(677,705,cs),
(501,705,ls),
(495,705,o),
(491,701,o),
(491,695,cs),
(491,485,ls),
(491,456,o),
(475,440,o),
(446,440,cs),
(262,440,ls),
(256,440,o),
(252,444,o),
(252,450,cs),
(252,660,ls),
(252,689,o),
(236,705,o),
(207,705,cs),
(66,705,ls),
(60,705,o),
(56,701,o),
(56,695,cs),
(56,10,ls),
(56,4,o),
(60,0,o),
(66,0,cs),
(242,0,ls),
(248,0,o),
(252,4,o),
(252,10,cs),
(252,238,ls),
(252,267,o),
(268,283,o),
(297,283,cs),
(481,283,ls),
(487,283,o),
(491,279,o),
(491,273,cs)
);
}
);
width = 743;
}
);
note = H;
unicode = 72;
},
{
glyphname = I;
lastChange = "2022-10-20 09:11:47 +0000";
layers = (
{
layerId = m01;
shapes = (
{
closed = 1;
nodes = (
(56,10,ls),
(56,4,o),
(60,0,o),
(66,0,cs),
(242,0,ls),
(248,0,o),
(252,4,o),
(252,10,cs),
(252,660,ls),
(252,689,o),
(236,705,o),
(207,705,cs),
(66,705,ls),
(60,705,o),
(56,701,o),
(56,695,cs)
);
}
);
width = 308;
}
);
note = I;
unicode = 73;
},
{
glyphname = J;
lastChange = "2022-10-20 09:13:07 +0000";
layers = (
{
layerId = m01;
shapes = (
{
closed = 1;
nodes = (
(327,238,ls),
(327,189,o),
(306,170,o),
(273,170,cs),
(247,170,o),
(227,181,o),
(218,210,cs),
(209,238,o),
(197,253,o),
(170,253,cs),
(28,253,ls),
(22,253,o),
(18,249,o),
(18,243,cs),
(22,78,o),
(129,-7,o),
(281,-7,cs),
(429,-7,o),
(523,76,o),
(523,238,cs),
(523,695,ls),
(523,701,o),
(519,705,o),
(513,705,cs),
(372,705,ls),
(343,705,o),
(327,689,o),
(327,660,cs)
);
}
);
width = 584;
}
);
note = J;
unicode = 74;
},
{
glyphname = K;
lastChange = "2022-10-20 09:13:57 +0000";
layers = (
{
layerId = m01;
shapes = (
{
closed = 1;
nodes = (
(469,6,ls),
(472,1,o),
(476,0,o),
(481,0,cs),
(695,0,ls),
(703,0,o),
(706,6,o),
(701,12,cs),
(446,352,ls),
(441,359,o),
(441,366,o),
(446,373,cs),
(688,693,ls),
(693,699,o),
(690,705,o),
(682,705,cs),
(479,705,ls),
(474,705,o),
(470,704,o),
(467,699,cs),
(270,426,ls),
(262,414,o),
(252,418,o),
(252,432,cs),
(252,660,ls),
(252,689,o),
(236,705,o),
(207,705,cs),
(66,705,ls),
(60,705,o),
(56,701,o),
(56,695,cs),
(56,45,ls),
(56,16,o),
(72,0,o),
(101,0,cs),
(242,0,ls),
(248,0,o),
(252,4,o),
(252,10,cs),
(252,277,ls),
(252,291,o),
(262,295,o),
(270,283,cs)
);
}
);
width = 726;
}
);
note = K;
unicode = 75;
},
{
glyphname = L;
lastChange = "2022-10-20 09:14:39 +0000";
layers = (
{
layerId = m01;
shapes = (
{
closed = 1;
nodes = (
(66,705,ls),
(60,705,o),
(56,701,o),
(56,695,cs),
(56,10,ls),
(56,4,o),
(60,0,o),
(66,0,cs),
(426,0,ls),
(455,0,o),
(471,16,o),
(471,45,cs),
(471,140,ls),
(471,146,o),
(467,150,o),
(461,150,cs),
(297,150,ls),
(268,150,o),
(252,166,o),
(252,195,cs),
(252,660,ls),
(252,689,o),
(236,705,o),
(207,705,cs)
);
}
);
width = 491;
}
);
note = L;
unicode = 76;
},
{
glyphname = M;
lastChange = "2022-10-20 09:15:11 +0000";
layers = (
{
layerId = m01;
shapes = (
{
closed = 1;
nodes = (
(56,10,ls),
(56,4,o),
(60,0,o),
(66,0,cs),
(207,0,ls),
(236,0,o),
(252,16,o),
(252,45,cs),
(252,357,ls),
(252,366,o),
(260,368,o),
(263,359,cs),
(374,37,ls),
(382,12,o),
(399,0,o),
(425,0,cs),
(511,0,ls),
(537,0,o),
(555,13,o),
(563,37,cs),
(672,356,ls),
(675,365,o),
(683,363,o),
(683,354,cs),
(683,45,ls),
(683,16,o),
(699,0,o),
(728,0,cs),
(869,0,ls),
(875,0,o),
(879,4,o),
(879,10,cs),
(879,695,ls),
(879,701,o),
(875,705,o),
(869,705,cs),
(681,705,ls),
(655,705,o),
(639,694,o),
(630,669,cs),
(477,264,ls),
(474,256,o),
(466,256,o),
(463,264,cs),
(307,670,ls),
(298,694,o),
(281,705,o),
(255,705,cs),
(66,705,ls),
(60,705,o),
(56,701,o),
(56,695,cs)
);
}
);
width = 935;
}
);
note = M;
unicode = 77;
},
{
glyphname = N;
lastChange = "2022-10-20 09:16:01 +0000";
layers = (
{
layerId = m01;
shapes = (
{
closed = 1;
nodes = (
(523,705,ls),
(517,705,o),
(513,701,o),
(513,695,cs),
(513,306,l),
(256,698,ls),
(253,702,o),
(249,705,o),
(244,705,cs),
(66,705,ls),
(60,705,o),
(56,701,o),
(56,695,cs),
(56,45,ls),
(56,16,o),
(72,0,o),
(101,0,cs),
(242,0,ls),
(248,0,o),
(252,4,o),
(252,10,cs),
(252,394,l),
(509,6,ls),
(512,2,o),
(516,0,o),
(521,0,cs),
(699,0,ls),
(705,0,o),
(709,4,o),
(709,10,cs),
(709,660,ls),
(709,689,o),
(693,705,o),
(664,705,cs)
);
}
);
width = 765;
}
);
note = N;
unicode = 78;
},
{
glyphname = O;
layers = (
{
layerId = m01;
shapes = (
{
closed = 1;
nodes = (
(755,567,o),
(595,716,o),
(394,716,cs),
(194,716,o),
(32,567,o),
(32,355,cs),
(32,143,o),
(194,-7,o),
(394,-7,cs),
(594,-7,o),
(755,143,o),
(755,355,cs)
);
},
{
closed = 1;
nodes = (
(232,466,o),
(292,536,o),
(394,536,cs),
(495,536,o),
(556,466,o),
(556,355,cs),
(556,246,o),
(495,175,o),
(394,175,cs),
(292,175,o),
(232,246,o),
(232,355,cs)
);
}
);
width = 787;
}
);
note = O;
unicode = 79;
},
{
glyphname = P;
lastChange = "2022-10-20 09:16:57 +0000";
layers = (
{
layerId = m01;
shapes = (
{
closed = 1;
nodes = (
(252,394,l),
(252,502,ls),
(252,531,o),
(268,547,o),
(297,547,cs),
(330,547,ls),
(389,547,o),
(413,517,o),
(413,470,cs),
(413,424,o),
(389,394,o),
(330,394,cs)
);
},
{
closed = 1;
nodes = (
(613,606,o),
(524,705,o),
(349,705,cs),
(66,705,ls),
(60,705,o),
(56,701,o),
(56,695,cs),
(56,10,ls),
(56,4,o),
(60,0,o),
(66,0,cs),
(207,0,ls),
(236,0,o),
(252,16,o),
(252,45,cs),
(252,238,l),
(349,238,ls),
(528,238,o),
(613,347,o),
(613,470,cs)
);
}
);
width = 636;
}
);
note = P;
unicode = 80;
},
{
glyphname = Q;
lastChange = "2022-10-20 09:17:26 +0000";
layers = (
{
layerId = m01;
shapes = (
{
closed = 1;
nodes = (
(232,466,o),
(292,536,o),
(394,536,cs),
(495,536,o),
(556,466,o),
(556,355,cs),
(556,246,o),
(495,175,o),
(394,175,cs),
(292,175,o),
(232,246,o),
(232,355,cs)
);
},
{
closed = 1;
nodes = (
(755,567,o),
(595,716,o),
(394,716,cs),
(194,716,o),
(32,567,o),
(32,355,cs),
(32,143,o),
(194,-7,o),
(394,-7,cs),
(417,-7,o),
(439,-5,o),
(461,-1,c),
(535,-112,ls),
(538,-116,o),
(542,-118,o),
(547,-118,cs),
(757,-118,ls),
(765,-118,o),
(768,-112,o),
(763,-106,cs),
(624,72,l),
(704,136,o),
(755,236,o),
(755,355,cs)
);
}
);
width = 788;
}
);
note = Q;
unicode = 81;
},
{
glyphname = R;
lastChange = "2022-10-20 09:18:23 +0000";
layers = (
{
layerId = m01;
shapes = (
{
closed = 1;
nodes = (
(429,420,o),
(402,394,o),
(349,394,cs),
(252,394,l),
(252,496,ls),
(252,525,o),
(268,541,o),
(297,541,cs),
(349,541,ls),
(402,541,o),
(429,512,o),
(429,468,cs)
);
},
{
closed = 1;
nodes = (
(101,705,ls),
(72,705,o),
(56,689,o),
(56,660,cs),
(56,10,ls),
(56,4,o),
(60,0,o),
(66,0,cs),
(242,0,ls),
(248,0,o),
(252,4,o),
(252,10,cs),
(252,260,l),
(273,260,l),
(396,32,ls),
(408,10,o),
(424,0,o),
(449,0,cs),
(618,0,ls),
(626,0,o),
(629,5,o),
(625,12,cs),
(473,275,l),
(578,307,o),
(628,387,o),
(628,479,cs),
(628,605,o),
(540,705,o),
(365,705,cs)
);
}
);
width = 661;
}
);
note = R;
unicode = 82;
},
{
glyphname = S;
lastChange = "2022-10-20 09:19:01 +0000";
layers = (
{
layerId = m01;
shapes = (
{
closed = 1;
nodes = (
(585,440,o),
(246,406,o),
(246,511,cs),
(246,545,o),
(269,562,o),
(298,561,cs),
(321,561,o),
(341,553,o),
(352,535,cs),
(367,511,o),
(376,497,o),
(402,497,cs),
(566,497,ls),
(572,497,o),
(576,501,o),
(575,507,cs),
(564,641,o),
(459,716,o),
(301,716,cs),
(152,716,o),
(37,642,o),
(37,504,cs),
(34,259,o),
(376,312,o),
(377,199,cs),
(377,166,o),
(350,148,o),
(315,148,cs),
(290,148,o),
(267,157,o),
(254,180,cs),
(241,205,o),
(230,219,o),
(204,219,cs),
(45,219,ls),
(39,219,o),
(35,215,o),
(36,209,cs),
(49,65,o),
(169,-7,o),
(322,-7,cs),
(489,-7,o),
(585,90,o),
(585,214,cs)
);
}
);
width = 620;
}
);
note = S;
unicode = 83;
},
{
glyphname = T;
lastChange = "2022-10-20 09:19:36 +0000";
layers = (
{
layerId = m01;
shapes = (
{
closed = 1;
nodes = (
(17,559,ls),
(17,553,o),
(21,549,o),
(27,549,cs),
(158,549,ls),
(187,549,o),
(203,533,o),
(203,504,cs),
(203,10,ls),
(203,4,o),
(207,0,o),
(213,0,cs),
(389,0,ls),
(395,0,o),
(399,4,o),
(399,10,cs),
(399,504,ls),
(399,533,o),
(415,549,o),
(444,549,cs),
(577,549,ls),
(583,549,o),
(587,553,o),
(587,559,cs),
(587,695,ls),
(587,701,o),
(583,705,o),
(577,705,cs),
(27,705,ls),
(21,705,o),
(17,701,o),
(17,695,cs)
);
}
);
width = 604;
}
);
note = T;
unicode = 84;
},
{
glyphname = U;
lastChange = "2022-10-20 09:24:40 +0000";
layers = (
{
layerId = m01;
shapes = (
{
closed = 1;
nodes = (
(53,296,ls),
(53,95,o),
(181,-7,o),
(351,-7,cs),
(520,-7,o),
(660,95,o),
(660,296,cs),
(660,695,ls),
(660,701,o),
(656,705,o),
(650,705,cs),
(509,705,ls),
(480,705,o),
(464,689,o),
(464,660,cs),
(464,296,ls),
(464,223,o),
(429,177,o),
(355,177,cs),
(281,177,o),
(248,223,o),
(248,296,cs),
(248,660,ls),
(248,689,o),
(232,705,o),
(203,705,cs),
(63,705,ls),
(57,705,o),
(53,701,o),
(53,695,cs)
);
}
);
width = 712;
}
);
note = U;
unicode = 85;
},
{
glyphname = V;
lastChange = "2022-10-20 09:27:40 +0000";
layers = (
{
layerId = m01;
shapes = (
{
closed = 1;
nodes = (
(380,216,ls),
(377,206,o),
(371,206,o),
(368,216,cs),
(226,668,ls),
(218,694,o),
(201,705,o),
(175,705,cs),
(16,705,ls),
(9,705,o),
(6,701,o),
(8,694,cs),
(235,36,ls),
(243,12,o),
(261,0,o),
(287,0,cs),
(460,0,ls),
(486,0,o),
(504,12,o),
(512,36,cs),
(738,694,ls),
(740,701,o),
(737,705,o),
(730,705,cs),
(572,705,ls),
(546,705,o),
(529,694,o),
(521,668,cs)
);
}
);
width = 747;
}
);
note = V;
unicode = 86;
},
{
glyphname = W;
lastChange = "2022-10-20 09:28:30 +0000";
layers = (
{
layerId = m01;
shapes = (
{
closed = 1;
nodes = (
(189,39,ls),
(195,12,o),
(211,0,o),
(238,0,cs),
(399,0,ls),
(426,0,o),
(442,12,o),
(448,39,cs),
(532,405,ls),
(534,414,o),
(542,414,o),
(544,405,cs),
(626,40,ls),
(632,14,o),
(649,0,o),
(676,0,cs),
(836,0,ls),
(863,0,o),
(880,13,o),
(886,39,cs),
(1046,694,ls),
(1048,701,o),
(1045,705,o),
(1038,705,cs),
(878,705,ls),
(851,705,o),
(835,692,o),
(830,664,cs),
(760,257,ls),
(758,248,o),
(750,248,o),
(748,257,cs),
(656,666,ls),
(650,693,o),
(634,705,o),
(607,705,cs),
(472,705,ls),
(445,705,o),
(429,693,o),
(423,666,cs),
(328,252,ls),
(326,243,o),
(318,244,o),
(316,253,cs),
(246,664,ls),
(241,692,o),
(225,705,o),
(198,705,cs),
(38,705,ls),
(31,705,o),
(28,701,o),
(30,694,cs)
);
}
);
width = 1076;
}
);
note = W;
unicode = 87;
},
{
glyphname = X;
lastChange = "2022-10-20 09:32:00 +0000";
layers = (
{
layerId = m01;
shapes = (
{
closed = 1;
nodes = (
(493,6,ls),
(496,1,o),
(500,0,o),
(505,0,cs),
(713,0,ls),
(721,0,o),
(724,6,o),
(720,12,cs),
(508,319,ls),
(494,340,o),
(493,361,o),
(507,382,cs),
(705,693,ls),
(709,700,o),
(707,705,o),
(699,705,cs),
(498,705,ls),
(493,705,o),
(489,702,o),
(486,698,cs),
(406,561,ls),
(389,532,o),
(362,531,o),
(343,559,cs),
(247,699,ls),
(244,704,o),
(240,705,o),
(235,705,cs),
(27,705,ls),
(19,705,o),
(16,699,o),
(20,693,cs),
(228,392,ls),
(242,371,o),
(243,350,o),
(229,329,cs),
(28,12,ls),
(24,5,o),
(26,0,o),
(34,0,cs),
(235,0,ls),
(240,0,o),
(244,3,o),
(247,7,cs),
(330,149,ls),
(347,178,o),
(374,179,o),
(393,151,cs)
);
}
);
width = 739;
}
);
note = X;
unicode = 88;
},
{
glyphname = Y;
lastChange = "2022-10-20 09:33:00 +0000";
layers = (
{
layerId = m01;
shapes = (
{
closed = 1;
nodes = (
(252,224,l),
(252,10,ls),
(252,4,o),
(256,0,o),
(262,0,cs),
(439,0,ls),
(445,0,o),
(449,4,o),
(449,10,cs),
(449,224,l),
(691,693,ls),
(694,700,o),
(691,705,o),
(684,705,cs),
(513,705,ls),
(488,705,o),
(471,694,o),
(461,671,cs),
(359,448,ls),
(356,440,o),
(348,440,o),
(345,448,cs),
(243,671,ls),
(233,694,o),
(216,705,o),
(191,705,cs),
(17,705,ls),
(10,705,o),
(7,700,o),
(10,693,cs)
);
}
);
width = 701;
}
);
note = Y;
unicode = 89;
},
{
glyphname = Z;
lastChange = "2022-10-20 09:35:40 +0000";
layers = (
{
layerId = m01;
shapes = (
{
closed = 1;
nodes = (
(563,695,ls),
(563,701,o),
(559,705,o),
(553,705,cs),
(60,705,ls),
(54,705,o),
(50,701,o),
(50,695,cs),
(50,592,ls),
(50,563,o),
(66,547,o),
(95,547,cs),
(325,547,ls),
(333,547,o),
(336,541,o),
(331,535,cs),
(50,149,l),
(50,0,l),
(553,0,ls),
(559,0,o),
(563,4,o),
(563,10,cs),
(563,114,ls),
(563,143,o),
(547,159,o),
(518,159,cs),
(285,159,ls),
(277,159,o),
(274,165,o),
(279,171,cs),
(563,556,l)
);
}
);
width = 613;
}
);
note = Z;
unicode = 90;
},
{
glyphname = bracketleft;
lastChange = "2022-10-20 09:49:16 +0000";
layers = (
{
layerId = m01;
shapes = (
{
closed = 1;
nodes = (
(108,-209,ls),
(108,-215,o),
(112,-219,o),
(118,-219,cs),
(438,-219,ls),
(444,-219,o),
(448,-215,o),
(448,-209,cs),
(448,-70,ls),
(448,-64,o),
(444,-60,o),
(438,-60,cs),
(337,-60,ls),
(308,-60,o),
(292,-44,o),
(292,-15,cs),
(292,701,ls),
(292,730,o),
(308,746,o),
(337,746,cs),
(438,746,ls),
(444,746,o),
(448,750,o),
(448,756,cs),
(448,894,ls),
(448,900,o),
(444,904,o),
(438,904,cs),
(118,904,ls),
(112,904,o),
(108,900,o),
(108,894,cs)
);
}
);
width = 522;
}
);
note = bracketleft;
unicode = 91;
},
{
glyphname = backslash;
layers = (
{
layerId = m01;
shapes = (
{
closed = 1;
nodes = (
(380,952,l),
(192,952,l),
(446,-193,l),
(634,-193,l)
);
}
);
width = 840;
}
);
note = backslash;
unicode = 92;
},
{
glyphname = bracketright;
lastChange = "2022-10-20 09:49:35 +0000";
layers = (
{
layerId = m01;
shapes = (
{
closed = 1;
nodes = (
(413,-209,ls),
(413,-215,o),
(409,-219,o),
(403,-219,cs),
(83,-219,ls),
(77,-219,o),
(73,-215,o),
(73,-209,cs),
(73,-70,ls),
(73,-64,o),
(77,-60,o),
(83,-60,cs),
(184,-60,ls),
(213,-60,o),
(229,-44,o),
(229,-15,cs),
(229,701,ls),
(229,730,o),
(213,746,o),
(184,746,cs),
(83,746,ls),
(77,746,o),
(73,750,o),
(73,756,cs),
(73,894,ls),
(73,900,o),
(77,904,o),
(83,904,cs),
(403,904,ls),
(409,904,o),
(413,900,o),
(413,894,cs)
);
}
);
width = 521;
}
);
note = bracketright;
unicode = 93;
},
{
glyphname = asciicircum;
layers = (
{
layerId = m01;
shapes = (
{
closed = 1;
nodes = (
(510,163,l),
(706,163,l),
(464,707,l),
(271,707,l),
(28,163,l),
(224,163,l),
(368,483,l)
);
}
);
width = 733;
}
);
note = asciicircum;
unicode = 94;
},
{
glyphname = underscore;
lastChange = "2022-10-20 09:48:35 +0000";
layers = (
{
layerId = m01;
shapes = (
{
closed = 1;
nodes = (
(67,-222,ls),
(67,-228,o),
(71,-232,o),
(77,-232,cs),
(705,-232,ls),
(711,-232,o),
(715,-228,o),
(715,-222,cs),
(715,-52,ls),
(715,-46,o),
(711,-42,o),
(705,-42,cs),
(77,-42,ls),
(71,-42,o),
(67,-46,o),
(67,-52,cs)
);
}
);
width = 772;
}
);
note = underscore;
unicode = 95;
},
{
glyphname = grave;
layers = (
{
layerId = m01;
shapes = (
{
closed = 1;
nodes = (
(10,697,l),
(260,599,l),
(260,732,l),
(10,845,l)
);
}
);
width = 307;
}
);
note = grave;
unicode = 96;
},
{
glyphname = a;
lastChange = "2022-10-20 08:59:56 +0000";
layers = (
{
layerId = m01;
shapes = (
{
closed = 1;
nodes = (
(24,102,o),
(130,-7,o),
(263,-7,cs),
(342,-7,o),
(399,28,o),
(428,78,c),
(428,45,ls),
(428,16,o),
(444,0,o),
(473,0,cs),
(614,0,ls),
(620,0,o),
(624,4,o),
(624,10,cs),
(624,516,ls),
(624,545,o),
(608,561,o),
(579,561,cs),
(438,561,ls),
(432,561,o),
(428,557,o),
(428,551,cs),
(428,483,l),
(399,533,o),
(343,568,o),
(263,568,cs),
(130,568,o),
(24,460,o),
(24,281,cs)
);
},
{
closed = 1;
nodes = (
(418,205,o),
(371,164,o),
(316,164,cs),
(260,164,o),
(214,206,o),
(214,281,cs),
(214,357,o),
(260,397,o),
(316,397,cs),
(371,397,o),
(418,356,o),
(418,281,cs)
);
}
);
width = 680;
}
);
note = a;
unicode = 97;
},
{
glyphname = b;
lastChange = "2022-10-20 09:00:43 +0000";
layers = (
{
layerId = m01;
shapes = (
{
closed = 1;
nodes = (
(252,730,ls),
(252,736,o),
(248,740,o),
(242,740,cs),
(101,740,ls),
(72,740,o),
(56,724,o),
(56,695,cs),
(56,10,ls),
(56,4,o),
(60,0,o),
(66,0,cs),
(207,0,ls),
(236,0,o),
(252,16,o),
(252,45,cs),
(252,78,l),
(282,27,o),
(337,-7,o),
(416,-7,cs),
(550,-7,o),
(655,102,o),
(655,281,cs),
(655,460,o),
(550,568,o),
(416,568,cs),
(338,568,o),
(282,534,o),
(252,483,c)
);
},
{
closed = 1;
nodes = (
(461,206,o),
(414,164,o),
(359,164,cs),
(304,164,o),
(257,205,o),
(257,281,cs),
(257,356,o),
(304,397,o),
(359,397,cs),
(414,397,o),
(461,357,o),
(461,281,cs)
);
}
);
width = 680;
}
);
note = b;
unicode = 98;
},
{
glyphname = c;
lastChange = "2022-10-20 09:02:17 +0000";
layers = (
{
layerId = m01;
shapes = (
{
closed = 1;
nodes = (
(24,102,o),
(141,-7,o),
(308,-7,cs),
(432,-7,o),
(527,56,o),
(567,164,cs),
(579,195,o),
(561,215,o),
(529,215,cs),
(383,215,ls),
(378,215,o),
(373,212,o),
(371,207,cs),
(359,177,o),
(338,160,o),
(304,160,cs),
(256,160,o),
(224,200,o),
(224,281,cs),
(224,361,o),
(256,401,o),
(304,401,cs),
(338,401,o),
(359,383,o),
(371,354,cs),
(373,349,o),
(378,346,o),
(383,346,cs),
(529,346,ls),
(561,346,o),
(579,366,o),
(568,397,cs),
(527,506,o),
(432,568,o),
(308,568,cs),
(141,568,o),
(24,459,o),
(24,281,cs)
);
}
);
width = 607;
}
);
note = c;
unicode = 99;
},
{
glyphname = d;
lastChange = "2022-10-20 09:03:59 +0000";
layers = (
{
layerId = m01;
shapes = (
{
closed = 1;
nodes = (
(24,102,o),
(130,-7,o),
(263,-7,cs),
(342,-7,o),
(398,28,o),
(427,78,c),
(427,45,ls),
(427,16,o),
(443,0,o),
(472,0,cs),
(614,0,ls),
(620,0,o),
(624,4,o),
(624,10,cs),
(624,695,ls),
(624,724,o),
(608,740,o),
(579,740,cs),
(437,740,ls),
(431,740,o),
(427,736,o),
(427,730,cs),
(427,484,l),
(396,535,o),
(338,568,o),
(264,568,cs),
(130,568,o),
(24,460,o),
(24,281,cs)
);
},
{
closed = 1;
nodes = (
(408,205,o),
(361,164,o),
(306,164,cs),
(250,164,o),
(204,206,o),
(204,281,cs),
(204,357,o),
(250,397,o),
(306,397,cs),
(361,397,o),
(408,356,o),
(408,281,cs)
);
}
);
width = 680;
}
);
note = d;
unicode = 100;
},
{
glyphname = e;
lastChange = "2022-10-20 09:04:49 +0000";
layers = (
{
layerId = m01;
shapes = (
{
closed = 1;
nodes = (
(350,413,o),
(386,390,o),
(391,347,cs),
(392,340,o),
(388,336,o),
(382,336,cs),
(230,336,ls),
(223,336,o),
(220,340,o),
(221,347,c),
(233,391,o),
(265,413,o),
(308,413,cs)
);
},
{
closed = 1;
nodes = (
(371,194,l),
(360,171,o),
(339,150,o),
(301,150,cs),
(257,150,o),
(222,176,o),
(218,241,c),
(589,241,l),
(591,256,o),
(592,272,o),
(592,287,cs),
(592,461,o),
(475,568,o),
(309,568,cs),
(141,568,o),
(24,459,o),
(24,281,cs),
(24,102,o),
(143,-7,o),
(309,-7,cs),
(437,-7,o),
(536,65,o),
(572,166,cs),
(578,183,o),
(569,194,o),
(551,194,cs)
);
}
);
width = 616;
}
);
note = e;
unicode = 101;
},
{
glyphname = f;
lastChange = "2022-10-20 09:05:42 +0000";
layers = (
{
layerId = m01;
shapes = (
{
closed = 1;
nodes = (
(74,10,ls),
(74,4,o),
(78,0,o),
(84,0,cs),
(261,0,ls),
(267,0,o),
(271,4,o),
(271,10,cs),
(271,388,ls),
(271,394,o),
(275,398,o),
(281,398,cs),
(349,398,ls),
(355,398,o),
(359,402,o),
(359,408,cs),
(359,551,ls),
(359,557,o),
(355,561,o),
(349,561,cs),
(282,561,ls),
(276,561,o),
(271,565,o),
(272,572,cs),
(276,600,o),
(288,615,o),
(312,620,cs),
(341,626,o),
(357,637,o),
(357,665,cs),
(357,778,ls),
(357,784,o),
(354,788,o),
(347,789,cs),
(171,798,o),
(74,718,o),
(74,566,cs),
(74,563,o),
(70,561,o),
(64,561,cs),
(23,561,ls),
(17,561,o),
(13,557,o),
(13,551,cs),
(13,408,ls),
(13,402,o),
(17,398,o),
(23,398,cs),
(29,398,ls),
(58,398,o),
(74,382,o),
(74,353,cs)
);
}
);
width = 373;
}
);
note = f;
unicode = 102;
},
{
glyphname = g;
lastChange = "2022-10-20 09:10:53 +0000";
layers = (
{
layerId = m01;
shapes = (
{
closed = 1;
nodes = (
(24,102,o),
(130,-7,o),
(263,-7,cs),
(342,-7,o),
(399,28,o),
(428,78,c),
(428,6,ls),
(428,-81,o),
(383,-106,o),
(328,-106,cs),
(295,-106,o),
(269,-97,o),
(253,-80,cs),
(235,-62,o),
(225,-49,o),
(200,-49,cs),
(54,-49,ls),
(48,-49,o),
(43,-53,o),
(44,-60,cs),
(63,-192,o),
(169,-276,o),
(340,-276,cs),
(542,-276,o),
(624,-144,o),
(624,6,cs),
(624,551,ls),
(624,557,o),
(620,561,o),
(614,561,cs),
(473,561,ls),
(444,561,o),
(428,545,o),
(428,516,cs),
(428,483,l),
(399,533,o),
(342,568,o),
(263,568,cs),
(130,568,o),
(24,460,o),
(24,281,cs)
);
},
{
closed = 1;
nodes = (
(428,205,o),
(381,164,o),
(326,164,cs),
(270,164,o),
(224,206,o),
(224,281,cs),
(224,357,o),
(270,397,o),
(326,397,cs),
(381,397,o),
(428,356,o),
(428,281,cs)
);
}
);
width = 680;
}
);
note = g;
unicode = 103;
},
{
glyphname = h;
lastChange = "2022-10-20 09:11:33 +0000";
layers = (
{
layerId = m01;
shapes = (
{
closed = 1;
nodes = (
(56,10,ls),
(56,4,o),
(60,0,o),
(66,0,cs),
(242,0,ls),
(248,0,o),
(252,4,o),
(252,10,cs),
(252,301,ls),
(252,366,o),
(288,404,o),
(346,404,cs),
(402,404,o),
(438,366,o),
(438,301,cs),
(438,45,ls),
(438,16,o),
(454,0,o),
(483,0,cs),
(624,0,ls),
(630,0,o),
(634,4,o),
(634,10,cs),
(634,327,ls),
(634,474,o),
(553,566,o),
(425,566,cs),
(344,566,o),
(285,529,o),
(252,481,c),
(252,695,ls),
(252,724,o),
(236,740,o),
(207,740,cs),
(66,740,ls),
(60,740,o),
(56,736,o),
(56,730,cs)
);
}
);
width = 686;
}
);
note = h;
unicode = 104;
},
{
glyphname = i;
lastChange = "2022-10-20 09:12:06 +0000";
layers = (
{
layerId = m01;
shapes = (
{
closed = 1;
nodes = (
(56,45,ls),
(56,16,o),
(72,0,o),
(101,0,cs),
(242,0,ls),
(248,0,o),
(252,4,o),
(252,10,cs),
(252,516,ls),
(252,545,o),
(236,561,o),
(207,561,cs),
(66,561,ls),
(60,561,o),
(56,557,o),
(56,551,cs)
);
},
{
closed = 1;
nodes = (
(224,613,o),
(269,657,o),
(269,713,cs),
(269,770,o),
(224,815,o),
(155,815,cs),
(85,815,o),
(40,770,o),
(40,713,cs),
(40,657,o),
(85,613,o),
(155,613,cs)
);
}
);
width = 308;
}
);
note = i;
unicode = 105;
},
{
glyphname = j;
lastChange = "2022-10-20 09:13:24 +0000";
layers = (
{
layerId = m01;
shapes = (
{
closed = 1;
nodes = (
(223,613,o),
(268,657,o),
(268,713,cs),
(268,770,o),
(223,815,o),
(154,815,cs),
(84,815,o),
(39,770,o),
(39,713,cs),
(39,657,o),
(84,613,o),
(154,613,cs)
);
},
{
closed = 1;
nodes = (
(66,561,ls),
(60,561,o),
(56,557,o),
(56,551,cs),
(56,-58,ls),
(56,-88,o),
(43,-101,o),
(9,-101,cs),
(-18,-101,o),
(-33,-117,o),
(-33,-146,cs),
(-33,-258,ls),
(-33,-264,o),
(-29,-268,o),
(-23,-268,cs),
(38,-268,ls),
(162,-268,o),
(252,-215,o),
(252,-55,cs),
(252,516,ls),
(252,545,o),
(236,561,o),
(207,561,cs)
);
}
);
width = 307;
}
);
note = j;
unicode = 106;
},
{
glyphname = k;
lastChange = "2022-10-20 09:14:20 +0000";
layers = (
{
layerId = m01;
shapes = (
{
closed = 1;
nodes = (
(56,45,ls),
(56,16,o),
(72,0,o),
(101,0,cs),
(242,0,ls),
(248,0,o),
(252,4,o),
(252,10,cs),
(252,197,ls),
(252,211,o),
(262,215,o),
(270,203,cs),
(403,6,ls),
(406,1,o),
(410,0,o),
(415,0,cs),
(630,0,ls),
(638,0,o),
(641,5,o),
(636,12,cs),
(429,269,ls),
(424,276,o),
(424,283,o),
(429,290,cs),
(632,549,ls),
(637,555,o),
(634,561,o),
(626,561,cs),
(415,561,ls),
(410,561,o),
(406,560,o),
(403,555,cs),
(270,367,ls),
(262,355,o),
(252,359,o),
(252,373,cs),
(252,695,ls),
(252,724,o),
(236,740,o),
(207,740,cs),
(66,740,ls),
(60,740,o),
(56,736,o),
(56,730,cs)
);
}
);
width = 647;
}
);
note = k;
unicode = 107;
},
{
glyphname = l;
lastChange = "2022-10-20 09:14:52 +0000";
layers = (
{
layerId = m01;
shapes = (
{
closed = 1;
nodes = (
(56,45,ls),
(56,16,o),
(72,0,o),
(101,0,cs),
(242,0,ls),
(248,0,o),
(252,4,o),
(252,10,cs),
(252,695,ls),
(252,724,o),
(236,740,o),
(207,740,cs),
(66,740,ls),
(60,740,o),
(56,736,o),
(56,730,cs)
);
}
);
width = 308;
}
);
note = l;
unicode = 108;
},
{
glyphname = m;
lastChange = "2022-10-20 09:15:35 +0000";
layers = (
{
layerId = m01;
shapes = (
{
closed = 1;
nodes = (
(820,45,ls),
(820,16,o),
(836,0,o),
(865,0,cs),
(1006,0,ls),
(1012,0,o),
(1016,4,o),
(1016,10,cs),
(1016,327,ls),
(1016,474,o),
(931,566,o),
(789,566,cs),
(706,566,o),
(640,520,o),
(602,463,c),
(565,528,o),
(499,566,o),
(415,566,cs),
(339,566,o),
(284,532,o),
(252,487,c),
(252,516,ls),
(252,545,o),
(236,561,o),
(207,561,cs),
(66,561,ls),
(60,561,o),
(56,557,o),
(56,551,cs),
(56,10,ls),
(56,4,o),
(60,0,o),
(66,0,cs),
(242,0,ls),
(248,0,o),
(252,4,o),
(252,10,cs),
(252,301,ls),
(252,362,o),
(288,396,o),
(346,396,cs),
(402,396,o),
(438,362,o),
(438,301,cs),
(438,45,ls),
(438,16,o),
(454,0,o),
(483,0,cs),
(624,0,ls),
(630,0,o),
(634,4,o),
(634,10,cs),
(634,301,ls),
(634,362,o),
(670,396,o),
(727,396,cs),
(783,396,o),
(820,362,o),
(820,301,cs)
);
}
);
width = 1067;
}
);
note = m;
unicode = 109;
},
{
glyphname = n;
lastChange = "2022-10-20 09:16:36 +0000";
layers = (
{
layerId = m01;
shapes = (
{
closed = 1;
nodes = (
(438,45,ls),
(438,16,o),
(454,0,o),
(483,0,cs),
(624,0,ls),
(630,0,o),
(634,4,o),
(634,10,cs),
(634,327,ls),
(634,474,o),
(553,566,o),
(423,566,cs),
(344,566,o),
(285,529,o),
(252,481,c),
(252,516,ls),
(252,545,o),
(236,561,o),
(207,561,cs),
(66,561,ls),
(60,561,o),
(56,557,o),
(56,551,cs),
(56,10,ls),
(56,4,o),
(60,0,o),
(66,0,cs),
(242,0,ls),
(248,0,o),
(252,4,o),
(252,10,cs),
(252,301,ls),
(252,366,o),
(288,404,o),
(346,404,cs),
(402,404,o),
(438,366,o),
(438,301,cs)
);
}
);
width = 686;
}
);
note = n;
unicode = 110;
},
{
glyphname = o;
layers = (
{
layerId = m01;
shapes = (
{
closed = 1;
nodes = (
(612,459,o),
(485,568,o),
(318,568,cs),
(151,568,o),
(24,459,o),
(24,281,cs),
(24,102,o),
(150,-7,o),
(317,-7,cs),
(484,-7,o),
(612,102,o),
(612,281,cs)
);
},
{
closed = 1;
nodes = (
(224,361,o),
(268,398,o),
(318,398,cs),
(368,398,o),
(413,361,o),
(413,281,cs),
(413,200,o),
(367,163,o),
(317,163,cs),
(266,163,o),
(224,200,o),
(224,281,cs)
);
}
);
width = 636;
}
);
note = o;
unicode = 111;
},
{
glyphname = p;
lastChange = "2022-10-20 09:17:15 +0000";
layers = (
{
layerId = m01;
shapes = (
{
closed = 1;
nodes = (
(252,516,ls),
(252,545,o),
(236,561,o),
(207,561,cs),
(66,561,ls),
(60,561,o),
(56,557,o),
(56,551,cs),
(56,-223,ls),
(56,-252,o),
(72,-268,o),
(101,-268,cs),
(242,-268,ls),
(248,-268,o),
(252,-264,o),
(252,-258,cs),
(252,78,l),
(282,29,o),
(337,-7,o),
(416,-7,cs),
(550,-7,o),
(655,102,o),
(655,281,cs),
(655,460,o),
(550,568,o),
(416,568,cs),
(338,568,o),
(281,533,o),
(252,483,c)
);
},
{
closed = 1;
nodes = (
(470,206,o),
(423,164,o),
(368,164,cs),
(313,164,o),
(266,205,o),
(266,281,cs),
(266,356,o),
(313,397,o),
(368,397,cs),
(423,397,o),
(470,357,o),
(470,281,cs)
);
}
);
width = 680;
}
);
note = p;
unicode = 112;
},
{
glyphname = q;
lastChange = "2022-10-20 09:17:45 +0000";
layers = (
{
layerId = m01;
shapes = (
{
closed = 1;
nodes = (
(24,108,o),
(140,-7,o),
(275,-7,cs),
(341,-7,o),
(390,21,o),
(428,66,c),
(428,-258,ls),
(428,-264,o),
(432,-268,o),
(438,-268,cs),
(579,-268,ls),
(608,-268,o),
(624,-252,o),
(624,-223,cs),
(624,551,ls),
(624,557,o),
(620,561,o),
(614,561,cs),
(473,561,ls),
(444,561,o),
(428,545,o),
(428,516,cs),
(428,504,l),
(392,545,o),
(342,566,o),
(276,566,cs),
(140,566,o),
(24,448,o),
(24,278,cs)
);
},
{
closed = 1;
nodes = (
(415,198,o),
(358,164,o),
(313,164,cs),
(267,164,o),
(211,195,o),
(211,278,cs),
(211,361,o),
(267,396,o),
(313,396,cs),
(358,396,o),
(415,363,o),
(415,281,cs)
);
}
);
width = 680;
}
);
note = q;
unicode = 113;
},
{
glyphname = r;
lastChange = "2022-10-20 09:18:45 +0000";
layers = (
{
layerId = m01;
shapes = (
{
closed = 1;
nodes = (
(252,245,ls),
(252,331,o),
(297,357,o),
(378,357,cs),
(388,357,ls),
(417,357,o),
(433,373,o),
(433,402,cs),
(433,556,ls),
(433,562,o),
(429,566,o),
(423,566,cs),
(352,562,o),
(292,520,o),
(252,462,c),
(252,516,ls),
(252,545,o),
(236,561,o),
(207,561,cs),
(66,561,ls),
(60,561,o),
(56,557,o),
(56,551,cs),
(56,10,ls),
(56,4,o),
(60,0,o),
(66,0,cs),
(242,0,ls),
(248,0,o),
(252,4,o),
(252,10,cs)
);
}
);
width = 447;
}
);
note = r;
unicode = 114;
},
{
glyphname = s;
lastChange = "2022-10-20 09:19:20 +0000";
layers = (
{
layerId = m01;
shapes = (
{
closed = 1;
nodes = (
(527,378,o),
(228,314,o),
(228,394,cs),
(228,415,o),
(245,428,o),
(277,428,cs),
(303,428,o),
(323,420,o),
(335,405,cs),
(352,385,o),
(362,372,o),
(387,372,cs),
(516,372,ls),
(522,372,o),
(527,376,o),
(526,383,cs),
(509,488,o),
(429,568,o),
(281,568,cs),
(129,568,o),
(48,487,o),
(48,389,cs),
(48,183,o),
(346,250,o),
(346,168,cs),
(346,148,o),
(327,132,o),
(294,132,cs),
(268,132,o),
(246,140,o),
(232,156,cs),
(215,176,o),
(205,189,o),
(180,189,cs),
(38,189,ls),
(32,189,o),
(27,185,o),
(28,179,cs),
(42,72,o),
(144,-7,o),
(295,-7,cs),
(440,-7,o),
(528,67,o),
(528,165,cs)
);
}
);
width = 568;
}
);
note = s;
unicode = 115;
},
{
glyphname = t;
lastChange = "2022-10-20 09:24:29 +0000";
layers = (
{
layerId = m01;
shapes = (
{
closed = 1;
nodes = (
(87,213,ls),
(87,52,o),
(178,0,o),
(302,0,cs),
(377,0,ls),
(383,0,o),
(387,4,o),
(387,10,cs),
(387,122,ls),
(387,151,o),
(371,167,o),
(342,167,cs),
(330,167,ls),
(297,167,o),
(284,180,o),
(284,210,cs),
(284,398,l),
(376,398,ls),
(382,398,o),
(386,402,o),
(386,408,cs),
(386,551,ls),
(386,557,o),
(382,561,o),
(376,561,cs),
(284,561,l),
(284,687,ls),
(284,693,o),
(280,697,o),
(274,697,cs),
(97,697,ls),
(91,697,o),
(87,693,o),
(87,687,cs),
(87,606,ls),
(87,577,o),
(71,561,o),
(42,561,cs),
(18,561,l),
(18,398,l),
(87,398,l)
);
}
);
width = 421;
}
);
note = t;
unicode = 116;
},
{
glyphname = u;
lastChange = "2022-10-20 09:27:12 +0000";
layers = (
{
layerId = m01;
shapes = (
{
closed = 1;
nodes = (
(630,551,ls),
(630,557,o),
(626,561,o),
(620,561,cs),
(443,561,ls),
(437,561,o),
(433,557,o),
(433,551,cs),
(433,260,ls),
(433,195,o),
(397,157,o),
(340,157,cs),
(284,157,o),
(247,195,o),
(247,260,cs),
(247,516,ls),
(247,545,o),
(231,561,o),
(202,561,cs),
(62,561,ls),
(56,561,o),
(52,557,o),
(52,551,cs),
(52,235,ls),
(52,87,o),
(133,-5,o),
(263,-5,cs),
(342,-5,o),
(401,32,o),
(433,80,c),
(433,45,ls),
(433,16,o),
(449,0,o),
(478,0,cs),
(620,0,ls),
(626,0,o),
(630,4,o),
(630,10,cs)
);
}
);
width = 686;
}
);
note = u;
unicode = 117;
},
{
glyphname = v;
lastChange = "2022-10-20 09:28:05 +0000";
layers = (
{
layerId = m01;
shapes = (
{
closed = 1;
nodes = (
(21,561,ls),
(14,561,o),
(11,557,o),
(13,550,cs),
(189,37,ls),
(197,13,o),
(215,0,o),
(241,0,cs),
(407,0,ls),
(433,0,o),
(451,13,o),
(459,37,cs),
(635,550,ls),
(637,557,o),
(634,561,o),
(627,561,cs),
(470,561,ls),
(444,561,o),
(426,548,o),
(419,523,cs),
(331,207,ls),
(328,198,o),
(322,198,o),
(319,207,cs),
(229,523,ls),
(222,548,o),
(204,561,o),
(178,561,cs)
);
}
);
width = 649;
}
);
note = v;
unicode = 118;
},
{
glyphname = w;
lastChange = "2022-10-20 09:28:48 +0000";
layers = (
{
layerId = m01;
shapes = (
{
closed = 1;
nodes = (
(134,39,ls),
(141,12,o),
(157,0,o),
(184,0,cs),
(323,0,ls),
(350,0,o),
(366,12,o),
(372,39,cs),
(438,314,ls),
(440,323,o),
(448,323,o),
(450,314,cs),
(513,39,ls),
(519,12,o),
(535,0,o),
(562,0,cs),
(702,0,ls),
(729,0,o),
(745,13,o),
(752,39,cs),
(882,550,ls),
(884,557,o),
(881,561,o),
(874,561,cs),
(743,561,ls),
(716,561,o),
(698,547,o),
(694,520,cs),
(644,218,ls),
(642,209,o),
(634,209,o),
(632,218,cs),
(562,522,ls),
(556,549,o),
(540,561,o),
(513,561,cs),
(384,561,ls),
(357,561,o),
(340,547,o),
(334,521,cs),
(267,219,ls),
(265,210,o),
(257,210,o),
(255,219,cs),
(204,520,ls),
(199,548,o),
(183,561,o),
(156,561,cs),
(13,561,ls),
(6,561,o),
(3,557,o),
(5,550,cs)
);
}
);
width = 885;
}
);
note = w;
unicode = 119;
},
{
glyphname = x;
lastChange = "2022-10-20 09:32:39 +0000";
layers = (
{
layerId = m01;
shapes = (
{
closed = 1;
nodes = (
(402,6,ls),
(405,1,o),
(409,0,o),
(414,0,cs),
(611,0,ls),
(619,0,o),
(622,6,o),
(617,12,cs),
(450,244,ls),
(435,265,o),
(435,285,o),
(449,307,cs),
(611,549,ls),
(615,555,o),
(612,561,o),
(604,561,cs),
(412,561,ls),
(407,561,o),
(403,558,o),
(400,554,cs),
(352,470,ls),
(335,440,o),
(309,439,o),
(289,467,cs),
(226,555,ls),
(223,560,o),
(219,561,o),
(214,561,cs),
(17,561,ls),
(9,561,o),
(6,555,o),
(11,549,cs),
(175,322,ls),
(190,301,o),
(190,280,o),
(176,259,cs),
(18,12,ls),
(14,5,o),
(16,0,o),
(24,0,cs),
(217,0,ls),
(222,0,o),
(226,3,o),
(229,7,cs),
(276,90,ls),
(293,120,o),
(319,122,o),
(339,94,cs)
);
}
);
width = 628;
}
);
note = x;
unicode = 120;
},
{
glyphname = y;
lastChange = "2022-10-20 09:35:21 +0000";
layers = (
{
layerId = m01;
shapes = (
{
closed = 1;
nodes = (
(337,261,ls),
(334,253,o),
(327,253,o),
(324,261,cs),
(216,553,ls),
(214,559,o),
(210,561,o),
(205,561,cs),
(8,561,ls),
(1,561,o),
(-3,556,o),
(0,549,cs),
(225,24,l),
(96,-255,ls),
(93,-262,o),
(97,-267,o),
(104,-267,cs),
(267,-267,ls),
(292,-267,o),
(309,-256,o),
(319,-233,cs),
(655,549,ls),
(658,556,o),
(654,561,o),
(647,561,cs),
(483,561,ls),
(457,561,o),
(441,549,o),
(432,525,cs)
);
}
);
width = 655;
}
);
note = y;
unicode = 121;
},
{
glyphname = z;
lastChange = "2022-10-20 09:36:34 +0000";
layers = (
{
layerId = m01;
shapes = (
{
closed = 1;
nodes = (
(473,551,ls),
(473,557,o),
(469,561,o),
(463,561,cs),
(38,561,ls),
(32,561,o),
(28,557,o),
(28,551,cs),
(28,443,ls),
(28,414,o),
(44,398,o),
(73,398,cs),
(232,398,ls),
(240,398,o),
(244,393,o),
(238,386,cs),
(26,155,l),
(26,10,ls),
(26,4,o),
(30,0,o),
(36,0,cs),
(481,0,l),
(481,118,ls),
(481,147,o),
(465,163,o),
(436,163,cs),
(259,163,ls),
(251,163,o),
(248,168,o),
(254,175,cs),
(473,406,l)
);
}
);
width = 507;
}
);
note = z;
unicode = 122;
},
{
glyphname = braceleft;
layers = (
{
layerId = m01;
shapes = (
{
closed = 1;
nodes = (
(169,137,o),
(146,46,o),
(146,-27,cs),
(146,-152,o),
(230,-221,o),
(355,-221,cs),
(429,-221,l),
(429,-62,l),
(393,-62,ls),
(349,-62,o),
(333,-42,o),
(333,-7,cs),
(333,41,o),
(350,137,o),
(350,200,cs),
(350,274,o),
(317,327,o),
(243,341,c),
(243,343,l),
(317,357,o),
(350,410,o),
(350,484,cs),
(350,547,o),
(333,643,o),
(333,690,cs),
(333,726,o),
(349,746,o),
(393,746,cs),
(429,746,l),
(429,905,l),
(355,905,ls),
(230,905,o),
(146,836,o),
(146,711,cs),
(146,638,o),
(169,547,o),
(169,491,cs),
(169,447,o),
(144,423,o),
(76,422,c),
(76,263,l),
(144,261,o),
(169,234,o),
(169,192,cs)
);
}
);
width = 492;
}
);
note = braceleft;
unicode = 123;
},
{
glyphname = bar;
layers = (
{
layerId = m01;
shapes = (
{
closed = 1;
nodes = (
(40,822,l),
(40,-137,l),
(237,-137,l),
(237,822,l)
);
}
);
width = 277;
}
);
note = bar;
unicode = 124;
},
{
glyphname = braceright;
layers = (
{
layerId = m01;
shapes = (
{
closed = 1;
nodes = (
(323,137,o),
(346,46,o),
(346,-27,cs),
(346,-152,o),
(262,-221,o),
(137,-221,cs),
(63,-221,l),
(63,-62,l),
(99,-62,ls),
(143,-62,o),
(159,-42,o),
(159,-7,cs),
(159,41,o),
(142,137,o),
(142,200,cs),
(142,274,o),
(175,327,o),
(249,341,c),
(249,343,l),
(175,357,o),
(142,410,o),
(142,484,cs),
(142,547,o),
(159,643,o),
(159,690,cs),
(159,726,o),
(143,746,o),
(99,746,cs),
(63,746,l),
(63,905,l),
(137,905,ls),
(262,905,o),
(346,836,o),
(346,711,cs),
(346,638,o),
(323,547,o),
(323,491,cs),
(323,447,o),
(348,423,o),
(416,422,c),
(416,263,l),
(348,261,o),
(323,234,o),
(323,192,cs)
);
}
);
width = 492;
}
);
note = braceright;
unicode = 125;
},
{
glyphname = asciitilde;
layers = (
{
layerId = m01;
shapes = (
{
closed = 1;
nodes = (
(168,194,l),
(176,242,o),
(195,262,o),
(231,262,cs),
(290,262,o),
(340,196,o),
(432,196,cs),
(539,196,o),
(623,265,o),
(650,436,c),
(504,436,l),
(497,388,o),
(477,369,o),
(442,369,cs),
(384,369,o),
(333,435,o),
(241,435,cs),
(133,435,o),
(51,365,o),
(24,194,c)
);
}
);
width = 674;
}
);
note = asciitilde;
unicode = 126;
},
{
glyphname = exclamdown;
layers = (
{
layerId = m01;
shapes = (
{
closed = 1;
nodes = (
(128,302,l),
(295,302,l),
(318,-175,l),
(105,-175,l)
);
},
{
closed = 1;
nodes = (
(326,416,o),
(281,371,o),
(212,371,cs),
(142,371,o),
(97,416,o),
(97,473,cs),
(97,530,o),
(142,574,o),
(212,574,cs),
(281,574,o),
(326,530,o),
(326,473,cs)
);
}
);
width = 423;
}
);
note = exclamdown;
unicode = 161;
},
{
glyphname = cent;
lastChange = "2023-01-11 16:09:51 +0000";
layers = (
{
layerId = m01;
shapes = (
{
closed = 1;
nodes = (
(24,102,o),
(141,-7,o),
(308,-7,cs),
(432,-7,o),
(527,56,o),
(567,164,cs),
(579,195,o),
(561,215,o),
(529,215,cs),
(383,215,ls),
(378,215,o),
(373,212,o),
(371,207,cs),
(359,177,o),
(338,160,o),
(304,160,cs),
(256,160,o),
(224,200,o),
(224,281,cs),
(224,361,o),
(256,401,o),
(304,401,cs),
(338,401,o),
(359,383,o),
(371,354,cs),
(373,349,o),
(378,346,o),
(383,346,cs),
(529,346,ls),
(561,346,o),
(579,366,o),
(568,397,cs),
(527,506,o),
(432,568,o),
(308,568,cs),
(141,568,o),
(24,459,o),
(24,281,cs)
);
},
{
closed = 1;
nodes = (
(279,526,l),
(333,526,l),
(333,633,l),
(279,633,l)
);
},
{
closed = 1;
nodes = (
(279,-58,l),
(333,-58,l),
(333,49,l),
(279,49,l)
);
}
);
width = 605;
}
);
note = cent;
unicode = 162;
},
{
glyphname = sterling;
layers = (
{
layerId = m01;
shapes = (
{
closed = 1;
nodes = (
(95,490,o),
(103,448,o),
(113,412,c),
(34,412,l),
(34,281,l),
(140,281,l),
(137,193,o),
(107,140,o),
(45,89,c),
(71,-5,l),
(602,-5,l),
(602,148,l),
(261,148,l),
(307,187,o),
(322,242,o),
(325,281,c),
(478,281,l),
(478,412,l),
(303,412,l),
(292,450,o),
(281,486,o),
(281,516,cs),
(281,570,o),
(304,599,o),
(349,599,cs),
(396,599,o),
(415,568,o),
(418,526,c),
(599,526,l),
(591,658,o),
(509,759,o),
(343,759,cs),
(198,759,o),
(95,678,o),
(95,537,cs)
);
}
);
width = 671;
}
);
note = sterling;
unicode = 163;
},
{
glyphname = currency;
layers = (
{
layerId = m01;
shapes = (
{
closed = 1;
nodes = (
(363,328,o),
(330,308,o),
(296,308,cs),
(262,308,o),
(231,328,o),
(231,377,cs),
(231,427,o),
(262,448,o),
(297,448,cs),
(331,448,o),
(363,427,o),
(363,377,cs)
);
},
{
closed = 1;
nodes = (
(457,144,l),
(530,218,l),
(479,270,l),
(502,299,o),
(515,336,o),
(515,379,cs),
(515,423,o),
(502,460,o),
(478,489,c),
(530,541,l),
(457,615,l),
(389,547,l),
(361,555,o),
(330,560,o),
(297,560,cs),
(262,560,o),
(231,555,o),
(202,546,c),
(133,615,l),
(60,541,l),
(115,486,l),
(92,458,o),
(79,422,o),
(79,379,cs),
(79,337,o),
(91,300,o),
(114,271,c),
(60,218,l),
(133,144,l),
(199,210,l),
(228,200,o),
(260,194,o),
(296,194,cs),
(331,194,o),
(363,199,o),
(392,209,c)
);
}
);
width = 590;
}
);
note = currency;
unicode = 164;
},
{
glyphname = yen;
layers = (
{
layerId = m01;
shapes = (
{
closed = 1;
nodes = (
(648,131,l),
(648,260,l),
(468,260,l),
(493,309,l),
(648,309,l),
(648,439,l),
(560,439,l),
(697,705,l),
(476,705,l),
(352,407,l),
(228,705,l),
(4,705,l),
(141,439,l),
(51,439,l),
(51,309,l),
(208,309,l),
(233,260,l),
(51,260,l),
(51,131,l),
(252,131,l),
(252,0,l),
(449,0,l),
(449,131,l)
);
}
);
width = 701;
}
);
note = yen;
unicode = 165;
},
{
glyphname = brokenbar;
layers = (
{
layerId = m01;
shapes = (
{
closed = 1;
nodes = (
(105,284,l),
(105,-137,l),
(302,-137,l),
(302,284,l)
);
},
{
closed = 1;
nodes = (
(302,402,l),
(302,822,l),
(105,822,l),
(105,402,l)
);
}
);
width = 407;
}
);
note = brokenbar;
unicode = 166;
},
{
glyphname = section;
layers = (
{
layerId = m01;
shapes = (
{
closed = 1;
nodes = (
(63,481,o),
(83,432,o),
(126,391,c),
(51,360,o),
(26,303,o),
(26,244,cs),
(26,164,o),
(84,105,o),
(180,61,cs),
(294,6,o),
(330,-15,o),
(330,-55,cs),
(330,-80,o),
(316,-92,o),
(295,-92,cs),
(272,-92,o),
(256,-77,o),
(254,-30,c),
(59,-30,l),
(67,-147,o),
(148,-230,o),
(291,-230,cs),
(443,-230,o),
(528,-151,o),
(528,-44,cs),
(528,7,o),
(508,56,o),
(465,97,c),
(541,134,o),
(566,184,o),
(566,244,cs),
(566,324,o),
(506,382,o),
(411,428,cs),
(296,482,o),
(261,503,o),
(261,543,cs),
(261,568,o),
(275,580,o),
(296,580,cs),
(319,580,o),
(335,565,o),
(337,518,c),
(532,518,l),
(524,635,o),
(443,718,o),
(300,718,cs),
(148,718,o),
(63,639,o),
(63,532,cs)
);
},
{
closed = 1;
nodes = (
(358,207,o),
(335,177,o),
(296,177,cs),
(257,177,o),
(234,207,o),
(234,244,cs),
(234,282,o),
(258,311,o),
(297,311,cs),
(337,311,o),
(358,281,o),
(358,244,cs)
);
}
);
width = 591;
}
);
note = section;
unicode = 167;
},
{
glyphname = dieresis;
layers = (
{
layerId = m01;
shapes = (
{
closed = 1;
nodes = (
(135,620,o),
(170,654,o),
(170,699,cs),
(170,745,o),
(135,780,o),
(89,780,cs),
(44,780,o),
(10,745,o),
(10,699,cs),
(10,654,o),
(44,620,o),
(89,620,cs)
);
},
{
closed = 1;
nodes = (
(348,620,o),
(382,654,o),
(382,699,cs),
(382,745,o),
(348,780,o),
(302,780,cs),
(257,780,o),
(223,745,o),
(223,699,cs),
(223,654,o),
(257,620,o),
(302,620,cs)
);
}
);
width = 392;
}
);
note = dieresis;
unicode = 168;
},
{
glyphname = copyright;
layers = (
{
layerId = m01;
shapes = (
{
closed = 1;
nodes = (
(34,144,o),
(178,-7,o),
(388,-7,cs),
(598,-7,o),
(741,144,o),
(741,356,cs),
(741,568,o),
(598,716,o),
(388,716,cs),
(178,716,o),
(34,568,o),
(34,356,cs)
);
},
{
closed = 1;
nodes = (
(677,174,o),
(566,54,o),
(388,54,cs),
(209,54,o),
(99,174,o),
(99,356,cs),
(99,538,o),
(209,656,o),
(388,656,cs),
(566,656,o),
(677,538,o),
(677,356,cs)
);
},
{
closed = 1;
nodes = (
(436,406,l),
(429,429,o),
(412,448,o),
(383,448,cs),
(345,448,o),
(321,418,o),
(321,355,cs),
(321,292,o),
(345,262,o),
(383,262,cs),
(414,262,o),
(428,282,o),
(436,304,c),
(601,304,l),
(583,199,o),
(497,132,o),
(390,132,cs),
(259,132,o),
(166,218,o),
(166,355,cs),
(166,492,o),
(259,578,o),
(390,578,cs),
(497,578,o),
(583,513,o),
(601,406,c)
);
}
);
width = 775;
}
);
note = copyright;
unicode = 169;
},
{
glyphname = ordfeminine;
layers = (
{
layerId = m01;
shapes = (
{
closed = 1;
nodes = (
(246,349,o),
(280,366,o),
(304,395,c),
(304,355,l),
(450,355,l),
(450,707,l),
(304,707,l),
(304,666,l),
(279,694,o),
(244,711,o),
(188,711,cs),
(95,711,o),
(23,645,o),
(23,530,cs),
(23,415,o),
(96,349,o),
(190,349,cs)
);
},
{
closed = 1;
nodes = (
(273,596,o),
(304,573,o),
(304,531,cs),
(304,488,o),
(273,466,o),
(239,466,cs),
(204,466,o),
(173,486,o),
(173,529,cs),
(173,572,o),
(204,596,o),
(239,596,cs)
);
}
);
width = 475;
}
);
note = ordfeminine;
unicode = 170;
},
{
glyphname = guillemotleft;
layers = (
{
layerId = m01;
shapes = (
{
closed = 1;
nodes = (
(222,295,l),
(305,470,l),
(126,470,l),
(45,295,l),
(126,120,l),
(305,120,l)
);
},
{
closed = 1;
nodes = (
(462,295,l),
(545,470,l),
(366,470,l),
(285,295,l),
(366,120,l),
(545,120,l)
);
}
);
width = 588;
}
);
note = guillemotleft;
unicode = 171;
},
{
glyphname = logicalnot;
layers = (
{
layerId = m01;
shapes = (
{
closed = 1;
nodes = (
(51,297,l),
(491,297,l),
(491,168,l),
(688,168,l),
(688,445,l),
(51,445,l)
);
}
);
width = 748;
}
);
note = logicalnot;
unicode = 172;
},
{
glyphname = uni00AD;
layers = (
{
layerId = m01;
shapes = (
{
closed = 1;
nodes = (
(36,265,l),
(489,265,l),
(489,428,l),
(36,428,l)
);
}
);
width = 578;
}
);
note = uni00AD;
unicode = 173;
},
{
glyphname = registered;
layers = (
{
layerId = m01;
shapes = (
{
closed = 1;
nodes = (
(352,657,o),
(413,593,o),
(413,498,cs),
(413,404,o),
(352,338,o),
(257,338,cs),
(160,338,o),
(99,404,o),
(99,498,cs),
(99,593,o),
(160,657,o),
(257,657,cs)
);
},
{
closed = 1;
nodes = (
(386,278,o),
(478,369,o),
(478,498,cs),
(478,626,o),
(386,717,o),
(257,717,cs),
(127,717,o),
(35,626,o),
(35,498,cs),
(35,369,o),
(127,278,o),
(257,278,cs)
);
},
{
closed = 1;
nodes = (
(356,580,o),
(325,606,o),
(279,606,cs),
(163,606,l),
(163,395,l),
(239,395,l),
(239,468,l),
(245,468,l),
(283,395,l),
(367,395,l),
(319,477,l),
(342,488,o),
(356,510,o),
(356,538,cs)
);
},
{
closed = 1;
nodes = (
(263,545,ls),
(272,545,o),
(278,540,o),
(278,531,cs),
(278,521,o),
(272,517,o),
(263,517,cs),
(237,517,l),
(237,545,l)
);
}
);
width = 512;
}
);
note = registered;
unicode = 174;
},
{
glyphname = macron;
layers = (
{
layerId = m01;
shapes = (
{
closed = 1;
nodes = (
(10,625,l),
(426,625,l),
(426,757,l),
(10,757,l)
);
}
);
width = 436;
}
);
note = macron;
unicode = 175;
},
{
glyphname = degree;
layers = (
{
layerId = m01;
shapes = (
{
closed = 1;
nodes = (
(24,419,o),
(114,347,o),
(243,347,cs),
(371,347,o),
(456,419,o),
(456,531,cs),
(456,645,o),
(369,712,o),
(241,712,cs),
(112,712,o),
(24,645,o),
(24,531,cs)
);
},
{
closed = 1;
nodes = (
(305,474,o),
(273,452,o),
(243,452,cs),
(211,452,o),
(175,474,o),
(175,530,cs),
(175,586,o),
(210,609,o),
(241,609,cs),
(271,609,o),
(305,586,o),
(305,530,cs)
);
}
);
width = 480;
}
);
note = degree;
unicode = 176;
},
{
glyphname = plusminus;
layers = (
{
layerId = m01;
shapes = (
{
closed = 1;
nodes = (
(201,628,l),
(201,527,l),
(40,527,l),
(40,351,l),
(201,351,l),
(201,280,l),
(40,280,l),
(40,103,l),
(550,103,l),
(550,280,l),
(389,280,l),
(389,351,l),
(550,351,l),
(550,527,l),
(389,527,l),
(389,628,l)
);
}
);
width = 590;
}
);
note = plusminus;
unicode = 177;
},
{
glyphname = twosuperior;
layers = (
{
layerId = m01;
shapes = (
{
closed = 1;
nodes = (
(183,577,l),
(184,600,o),
(192,612,o),
(206,612,cs),
(217,612,o),
(224,606,o),
(224,595,cs),
(224,574,o),
(208,553,o),
(172,533,cs),
(44,461,l),
(44,352,l),
(371,352,l),
(371,465,l),
(199,465,l),
(249,487,ls),
(340,526,o),
(378,558,o),
(378,606,cs),
(378,658,o),
(335,716,o),
(224,716,cs),
(110,716,o),
(42,658,o),
(37,577,c)
);
}
);
width = 403;
}
);
note = twosuperior;
unicode = 178;
},
{
glyphname = threesuperior;
layers = (
{
layerId = m01;
shapes = (
{
closed = 1;
nodes = (
(160,585,l),
(161,605,o),
(168,614,o),
(183,614,cs),
(197,614,o),
(204,605,o),
(204,591,cs),
(204,570,o),
(193,561,o),
(171,561,cs),
(147,561,l),
(147,506,l),
(179,506,ls),
(200,506,o),
(212,498,o),
(212,477,cs),
(212,458,o),
(202,450,o),
(190,450,cs),
(176,450,o),
(168,457,o),
(166,476,c),
(14,476,l),
(20,399,o),
(67,349,o),
(201,349,cs),
(301,349,o),
(367,385,o),
(367,451,cs),
(367,492,o),
(343,518,o),
(288,532,c),
(288,535,l),
(334,544,o),
(359,568,o),
(359,610,cs),
(359,672,o),
(299,716,o),
(199,716,cs),
(68,716,o),
(22,651,o),
(20,585,c)
);
}
);
width = 389;
}
);
note = threesuperior;
unicode = 179;
},
{
glyphname = acute;
layers = (
{
layerId = m01;
shapes = (
{
closed = 1;
nodes = (
(10,732,l),
(10,599,l),
(260,697,l),
(260,845,l)
);
}
);
width = 270;
}
);
note = acute;
unicode = 180;
},
{
glyphname = uni00B5;
layers = (
{
layerId = m01;
shapes = (
{
closed = 1;
nodes = (
(653,561,l),
(457,561,l),
(457,261,ls),
(457,200,o),
(421,165,o),
(363,165,cs),
(307,165,o),
(271,200,o),
(271,261,cs),
(271,561,l),
(75,561,l),
(75,-268,l),
(271,-268,l),
(271,-3,l),
(277,-4,o),
(284,-5,o),
(291,-5,cs),
(369,-5,o),
(425,31,o),
(457,81,c),
(457,0,l),
(653,0,l)
);
}
);
width = 728;
}
);
note = uni00B5;
unicode = 181;
},
{
glyphname = paragraph;
layers = (
{
layerId = m01;
shapes = (
{
closed = 1;
nodes = (
(264,705,ls),
(93,705,o),
(25,596,o),
(25,486,cs),
(25,377,o),
(93,269,o),
(264,269,cs),
(291,269,l),
(291,0,l),
(449,0,l),
(449,557,l),
(509,557,l),
(509,0,l),
(668,0,l),
(668,705,l)
);
}
);
width = 743;
}
);
note = paragraph;
unicode = 182;
},
{
glyphname = periodcentered;
layers = (
{
layerId = m01;
shapes = (
{
closed = 1;
nodes = (
(277,362,o),
(232,407,o),
(163,407,cs),
(93,407,o),
(48,362,o),
(48,305,cs),
(48,248,o),
(93,204,o),
(163,204,cs),
(232,204,o),
(277,248,o),
(277,305,cs)
);
}
);
width = 324;
}
);
note = periodcentered;
unicode = 183;
},
{
glyphname = cedilla;
layers = (
{
layerId = m01;
shapes = (
{
closed = 1;
nodes = (
(188,7,l),
(72,7,l),
(72,-124,l),
(150,-124,ls),
(171,-124,o),
(183,-130,o),
(183,-145,cs),
(183,-159,o),
(171,-166,o),
(150,-166,cs),
(10,-166,l),
(10,-269,l),
(173,-269,ls),
(241,-269,o),
(318,-239,o),
(318,-150,cs),
(318,-61,o),
(242,-32,o),
(188,-32,c)
);
}
);
width = 328;
}
);
note = cedilla;
unicode = 184;
},
{
glyphname = onesuperior;
layers = (
{
layerId = m01;
shapes = (
{
closed = 1;
nodes = (
(83,352,l),
(229,352,l),
(229,704,l),
(20,704,l),
(20,591,l),
(83,591,l)
);
}
);
width = 267;
}
);
note = onesuperior;
unicode = 185;
},
{
glyphname = ordmasculine;
layers = (
{
layerId = m01;
shapes = (
{
closed = 1;
nodes = (
(23,425,o),
(103,347,o),
(231,347,cs),
(359,347,o),
(441,425,o),
(441,529,cs),
(441,634,o),
(360,709,o),
(232,709,cs),
(104,709,o),
(23,634,o),
(23,529,cs)
);
},
{
closed = 1;
nodes = (
(292,483,o),
(264,460,o),
(231,460,cs),
(199,460,o),
(172,483,o),
(172,529,cs),
(172,575,o),
(199,597,o),
(232,597,cs),
(264,597,o),
(292,575,o),
(292,529,cs)
);
}
);
width = 464;
}
);
note = ordmasculine;
unicode = 186;
},
{
glyphname = guillemotright;
layers = (
{
layerId = m01;
shapes = (
{
closed = 1;
nodes = (
(470,120,l),
(550,295,l),
(470,470,l),
(290,470,l),
(374,295,l),
(290,120,l)
);
},
{
closed = 1;
nodes = (
(230,120,l),
(310,295,l),
(230,470,l),
(50,470,l),
(134,295,l),
(50,120,l)
);
}
);
width = 588;
}
);
note = guillemotright;
unicode = 187;
},
{
glyphname = onequarter;
layers = (
{
layerId = m01;
shapes = (
{
closed = 1;
nodes = (
(99,0,l),
(290,0,l),
(676,705,l),
(486,705,l)
);
},
{
closed = 1;
nodes = (
(769,141,l),
(769,351,l),
(566,351,l),
(423,136,l),
(423,60,l),
(622,60,l),
(622,0,l),
(769,0,l),
(769,60,l),
(807,60,l),
(807,141,l)
);
},
{
closed = 1;
nodes = (
(561,144,l),
(629,258,l),
(629,144,l)
);
},
{
closed = 1;
nodes = (
(105,352,l),
(251,352,l),
(251,704,l),
(42,704,l),
(42,591,l),
(105,591,l)
);
}
);
width = 833;
}
);
note = onequarter;
unicode = 188;
},
{
glyphname = onehalf;
layers = (
{
layerId = m01;
shapes = (
{
closed = 1;
nodes = (
(99,0,l),
(290,0,l),
(681,707,l),
(491,707,l)
);
},
{
closed = 1;
nodes = (
(105,352,l),
(251,352,l),
(251,704,l),
(42,704,l),
(42,591,l),
(105,591,l)
);
},
{
closed = 1;
nodes = (
(615,224,l),
(616,247,o),
(624,259,o),
(638,259,cs),
(649,259,o),
(656,253,o),
(656,242,cs),
(656,221,o),
(640,200,o),
(604,180,cs),
(476,108,l),
(476,-1,l),
(803,-1,l),
(803,112,l),
(631,112,l),
(681,134,ls),
(772,173,o),
(810,205,o),
(810,253,cs),
(810,305,o),
(767,363,o),
(656,363,cs),
(542,363,o),
(474,305,o),
(469,224,c)
);
}
);
width = 874;
}
);
note = onehalf;
unicode = 189;
},
{
glyphname = threequarters;
layers = (
{
layerId = m01;
shapes = (
{
closed = 1;
nodes = (
(232,0,l),
(423,0,l),
(800,707,l),
(609,707,l)
);
},
{
closed = 1;
nodes = (
(903,141,l),
(903,351,l),
(685,351,l),
(556,136,l),
(556,60,l),
(756,60,l),
(756,0,l),
(903,0,l),
(903,60,l),
(940,60,l),
(940,141,l)
);
},
{
closed = 1;
nodes = (
(695,141,l),
(764,274,l),
(764,141,l)
);
},
{
closed = 1;
nodes = (
(204,585,l),
(205,605,o),
(212,614,o),
(227,614,cs),
(241,614,o),
(248,605,o),
(248,591,cs),
(248,570,o),
(237,561,o),
(215,561,cs),
(191,561,l),
(191,506,l),
(223,506,ls),
(244,506,o),
(256,498,o),
(256,477,cs),
(256,458,o),
(246,450,o),
(234,450,cs),
(220,450,o),
(212,457,o),
(210,476,c),
(58,476,l),
(64,399,o),
(111,349,o),
(245,349,cs),
(345,349,o),
(411,385,o),
(411,451,cs),
(411,492,o),
(387,518,o),
(332,532,c),
(332,535,l),
(378,544,o),
(403,568,o),
(403,610,cs),
(403,672,o),
(343,716,o),
(243,716,cs),
(112,716,o),
(66,651,o),
(64,585,c)
);
}
);
width = 957;
}
);
note = threequarters;
unicode = 190;
},
{
glyphname = questiondown;
layers = (
{
layerId = m01;
shapes = (
{
closed = 1;
nodes = (
(328,33,l),
(328,-2,o),
(310,-28,o),
(271,-28,cs),
(239,-28,o),
(218,-8,o),
(217,27,cs),
(215,85,o),
(272,101,o),
(357,101,cs),
(429,101,l),
(423,300,l),
(250,300,l),
(245,227,l),
(116,225,o),
(25,152,o),
(25,28,cs),
(25,-115,o),
(126,-188,o),
(266,-188,cs),
(435,-188,o),
(517,-87,o),
(513,33,c)
);
},
{
closed = 1;
nodes = (
(221,419,o),
(266,374,o),
(335,374,cs),
(405,374,o),
(450,419,o),
(450,476,cs),
(450,533,o),
(405,577,o),
(335,577,cs),
(266,577,o),
(221,533,o),
(221,476,cs)
);
}
);
width = 538;
}
);
note = questiondown;
unicode = 191;
},
{
glyphname = Agrave;
layers = (
{
layerId = m01;
shapes = (
{
closed = 1;
nodes = (
(540,0,l),
(747,0,l),
(491,705,l),
(265,705,l),
(8,0,l),
(214,0,l),
(252,115,l),
(502,115,l)
);
},
{
closed = 1;
nodes = (
(250,844,l),
(500,746,l),
(500,879,l),
(250,992,l)
);
},
{
closed = 1;
nodes = (
(453,265,l),
(302,265,l),
(377,493,l)
);
}
);
width = 755;
}
);
note = Agrave;
unicode = 192;
},
{
glyphname = Aacute;
layers = (
{
layerId = m01;
shapes = (
{
closed = 1;
nodes = (
(540,0,l),
(747,0,l),
(491,705,l),
(265,705,l),
(8,0,l),
(214,0,l),
(252,115,l),
(502,115,l)
);
},
{
closed = 1;
nodes = (
(250,879,l),
(250,746,l),
(500,844,l),
(500,992,l)
);
},
{
closed = 1;
nodes = (
(453,265,l),
(302,265,l),
(377,493,l)
);
}
);
width = 755;
}
);
note = Aacute;
unicode = 193;
},
{
glyphname = Acircumflex;
layers = (
{
layerId = m01;
shapes = (
{
closed = 1;
nodes = (
(540,0,l),
(747,0,l),
(491,705,l),
(265,705,l),
(8,0,l),
(214,0,l),
(252,115,l),
(502,115,l)
);
},
{
closed = 1;
nodes = (
(537,877,l),
(378,954,l),
(217,877,l),
(217,746,l),
(378,826,l),
(537,746,l)
);
},
{
closed = 1;
nodes = (
(453,265,l),
(302,265,l),
(377,493,l)
);
}
);
width = 755;
}
);
note = Acircumflex;
unicode = 194;
},
{
glyphname = Atilde;
layers = (
{
layerId = m01;
shapes = (
{
closed = 1;
nodes = (
(540,0,l),
(747,0,l),
(491,705,l),
(265,705,l),
(8,0,l),
(214,0,l),
(252,115,l),
(502,115,l)
);
},
{
closed = 1;
nodes = (
(258,750,l),
(264,782,o),
(279,796,o),
(303,796,cs),
(343,796,o),
(378,751,o),
(440,751,cs),
(516,751,o),
(570,796,o),
(590,913,c),
(491,913,l),
(486,882,o),
(471,867,o),
(447,867,cs),
(407,867,o),
(372,913,o),
(310,913,cs),
(234,913,o),
(180,867,o),
(160,750,c)
);
},
{
closed = 1;
nodes = (
(453,265,l),
(302,265,l),
(377,493,l)
);
}
);
width = 755;
}
);
note = Atilde;
unicode = 195;
},
{
glyphname = Adieresis;
layers = (
{
layerId = m01;
shapes = (
{
closed = 1;
nodes = (
(540,0,l),
(747,0,l),
(491,705,l),
(265,705,l),
(8,0,l),
(214,0,l),
(252,115,l),
(502,115,l)
);
},
{
closed = 1;
nodes = (
(317,767,o),
(352,801,o),
(352,846,cs),
(352,892,o),
(317,927,o),
(271,927,cs),
(226,927,o),
(192,892,o),
(192,846,cs),
(192,801,o),
(226,767,o),
(271,767,cs)
);
},
{
closed = 1;
nodes = (
(530,767,o),
(564,801,o),
(564,846,cs),
(564,892,o),
(530,927,o),
(484,927,cs),
(439,927,o),
(405,892,o),
(405,846,cs),
(405,801,o),
(439,767,o),
(484,767,cs)
);
},
{
closed = 1;
nodes = (
(453,265,l),
(302,265,l),
(377,493,l)
);
}
);
width = 755;
}
);
note = Adieresis;
unicode = 196;
},
{
glyphname = Aring;
layers = (
{
layerId = m01;
shapes = (
{
closed = 1;
nodes = (
(540,0,l),
(747,0,l),
(491,705,l),
(265,705,l),
(8,0,l),
(214,0,l),
(252,115,l),
(502,115,l)
);
},
{
closed = 1;
nodes = (
(352,822,o),
(331,841,o),
(331,870,cs),
(331,899,o),
(352,918,o),
(378,918,cs),
(404,918,o),
(424,899,o),
(424,870,cs),
(424,841,o),
(404,822,o),
(378,822,cs)
);
},
{
closed = 1;
nodes = (
(307,996,o),
(250,948,o),
(250,869,cs),
(250,791,o),
(307,743,o),
(378,743,cs),
(448,743,o),
(505,791,o),
(505,869,cs),
(505,948,o),
(448,996,o),
(378,996,cs)
);
},
{
closed = 1;
nodes = (
(453,265,l),
(302,265,l),
(377,493,l)
);
}
);
width = 755;
}
);
note = Aring;
unicode = 197;
},
{
glyphname = AE;
layers = (
{
layerId = m01;
shapes = (
{
closed = 1;
nodes = (
(486,556,l),
(486,256,l),
(340,256,l)
);
},
{
closed = 1;
nodes = (
(929,550,l),
(929,705,l),
(352,705,l),
(3,0,l),
(216,0,l),
(268,108,l),
(486,108,l),
(486,0,l),
(929,0,l),
(929,156,l),
(682,156,l),
(682,287,l),
(899,287,l),
(899,435,l),
(682,435,l),
(682,550,l)
);
}
);
width = 971;
}
);
note = AE;
unicode = 198;
},
{
glyphname = Ccedilla;
layers = (
{
layerId = m01;
shapes = (
{
closed = 1;
nodes = (
(32,161,o),
(148,21,o),
(329,-2,c),
(329,-129,l),
(407,-129,ls),
(428,-129,o),
(440,-135,o),
(440,-150,cs),
(440,-164,o),
(428,-171,o),
(407,-171,cs),
(267,-171,l),
(267,-274,l),
(430,-274,ls),
(498,-274,o),
(575,-244,o),
(575,-155,cs),
(575,-66,o),
(499,-37,o),
(445,-37,c),
(445,-1,l),
(589,21,o),
(690,116,o),
(721,257,c),
(510,257,l),
(485,204,o),
(438,175,o),
(380,175,cs),
(290,175,o),
(231,245,o),
(231,354,cs),
(231,462,o),
(290,532,o),
(380,532,cs),
(438,532,o),
(485,503,o),
(510,450,c),
(721,450,l),
(686,610,o),
(560,712,o),
(383,712,cs),
(171,712,o),
(32,564,o),
(32,354,cs)
);
}
);
width = 758;
}
);
note = Ccedilla;
unicode = 199;
},
{
glyphname = Egrave;
layers = (
{
layerId = m01;
shapes = (
{
closed = 1;
nodes = (
(507,705,l),
(56,705,l),
(56,0,l),
(507,0,l),
(507,157,l),
(252,157,l),
(252,284,l),
(477,284,l),
(477,433,l),
(252,433,l),
(252,548,l),
(507,548,l)
);
},
{
closed = 1;
nodes = (
(149,844,l),
(399,746,l),
(399,879,l),
(149,992,l)
);
}
);
width = 548;
}
);
note = Egrave;
unicode = 200;
},
{
glyphname = Eacute;
layers = (
{
layerId = m01;
shapes = (
{
closed = 1;
nodes = (
(507,705,l),
(56,705,l),
(56,0,l),
(507,0,l),
(507,157,l),
(252,157,l),
(252,284,l),
(477,284,l),
(477,433,l),
(252,433,l),
(252,548,l),
(507,548,l)
);
},
{
closed = 1;
nodes = (
(149,879,l),
(149,746,l),
(399,844,l),
(399,992,l)
);
}
);
width = 548;
}
);
note = Eacute;
unicode = 201;
},
{
glyphname = Ecircumflex;
layers = (
{
layerId = m01;
shapes = (
{
closed = 1;
nodes = (
(507,705,l),
(56,705,l),
(56,0,l),
(507,0,l),
(507,157,l),
(252,157,l),
(252,284,l),
(477,284,l),
(477,433,l),
(252,433,l),
(252,548,l),
(507,548,l)
);
},
{
closed = 1;
nodes = (
(437,877,l),
(278,954,l),
(117,877,l),
(117,746,l),
(278,826,l),
(437,746,l)
);
}
);
width = 548;
}
);
note = Ecircumflex;
unicode = 202;
},
{
glyphname = Edieresis;
layers = (
{
layerId = m01;
shapes = (
{
closed = 1;
nodes = (
(507,705,l),
(56,705,l),
(56,0,l),
(507,0,l),
(507,157,l),
(252,157,l),
(252,284,l),
(477,284,l),
(477,433,l),
(252,433,l),
(252,548,l),
(507,548,l)
);
},
{
closed = 1;
nodes = (
(216,767,o),
(251,801,o),
(251,846,cs),
(251,892,o),
(216,927,o),
(170,927,cs),
(125,927,o),
(91,892,o),
(91,846,cs),
(91,801,o),
(125,767,o),
(170,767,cs)
);
},
{
closed = 1;
nodes = (
(429,767,o),
(463,801,o),
(463,846,cs),
(463,892,o),
(429,927,o),
(383,927,cs),
(338,927,o),
(304,892,o),
(304,846,cs),
(304,801,o),
(338,767,o),
(383,767,cs)
);
}
);
width = 548;
}
);
note = Edieresis;
unicode = 203;
},
{
glyphname = Igrave;
layers = (
{
layerId = m01;
shapes = (
{
closed = 1;
nodes = (
(56,0,l),
(252,0,l),
(252,705,l),
(56,705,l)
);
},
{
closed = 1;
nodes = (
(27,844,l),
(277,746,l),
(277,879,l),
(27,992,l)
);
}
);
width = 308;
}
);
note = Igrave;
unicode = 204;
},
{
glyphname = Iacute;
layers = (
{
layerId = m01;
shapes = (
{
closed = 1;
nodes = (
(56,0,l),
(252,0,l),
(252,705,l),
(56,705,l)
);
},
{
closed = 1;
nodes = (
(27,879,l),
(27,746,l),
(277,844,l),
(277,992,l)
);
}
);
width = 308;
}
);
note = Iacute;
unicode = 205;
},
{
glyphname = Icircumflex;
layers = (
{
layerId = m01;
shapes = (
{
closed = 1;
nodes = (
(56,0,l),
(252,0,l),
(252,705,l),
(56,705,l)
);
},
{
closed = 1;
nodes = (
(314,877,l),
(155,954,l),
(-6,877,l),
(-6,746,l),
(155,826,l),
(314,746,l)
);
}
);
width = 308;
}
);
note = Icircumflex;
unicode = 206;
},
{
glyphname = Idieresis;
layers = (
{
layerId = m01;
shapes = (
{
closed = 1;
nodes = (
(56,0,l),
(252,0,l),
(252,705,l),
(56,705,l)
);
},
{
closed = 1;
nodes = (
(93,767,o),
(128,801,o),
(128,846,cs),
(128,892,o),
(93,927,o),
(47,927,cs),
(2,927,o),
(-32,892,o),
(-32,846,cs),
(-32,801,o),
(2,767,o),
(47,767,cs)
);
},
{
closed = 1;
nodes = (
(306,767,o),
(340,801,o),
(340,846,cs),
(340,892,o),
(306,927,o),
(260,927,cs),
(215,927,o),
(181,892,o),
(181,846,cs),
(181,801,o),
(215,767,o),
(260,767,cs)
);
}
);
width = 308;
}
);
note = Idieresis;
unicode = 207;
},
{
glyphname = Eth;
layers = (
{
layerId = m01;
shapes = (
{
closed = 1;
nodes = (
(58,705,l),
(58,433,l),
(2,433,l),
(2,274,l),
(58,274,l),
(58,0,l),
(338,0,ls),
(563,0,o),
(706,149,o),
(706,353,cs),
(706,560,o),
(563,705,o),
(338,705,cs)
);
},
{
closed = 1;
nodes = (
(255,172,l),
(255,274,l),
(397,274,l),
(397,433,l),
(255,433,l),
(255,535,l),
(322,535,ls),
(436,535,o),
(506,470,o),
(506,353,cs),
(506,237,o),
(436,172,o),
(322,172,cs)
);
}
);
width = 738;
}
);
note = Eth;
unicode = 208;
},
{
glyphname = Ntilde;
layers = (
{
layerId = m01;
shapes = (
{
closed = 1;
nodes = (
(513,705,l),
(513,306,l),
(252,705,l),
(56,705,l),
(56,0,l),
(252,0,l),
(252,394,l),
(513,0,l),
(709,0,l),
(709,705,l)
);
},
{
closed = 1;
nodes = (
(263,750,l),
(269,782,o),
(284,796,o),
(308,796,cs),
(348,796,o),
(383,751,o),
(445,751,cs),
(521,751,o),
(575,796,o),
(595,913,c),
(496,913,l),
(491,882,o),
(476,867,o),
(452,867,cs),
(412,867,o),
(377,913,o),
(315,913,cs),
(239,913,o),
(185,867,o),
(165,750,c)
);
}
);
width = 765;
}
);
note = Ntilde;
unicode = 209;
},
{
glyphname = Ograve;
layers = (
{
layerId = m01;
shapes = (
{
closed = 1;
nodes = (
(755,567,o),
(595,716,o),
(394,716,cs),
(194,716,o),
(32,567,o),
(32,355,cs),
(32,143,o),
(194,-7,o),
(394,-7,cs),
(594,-7,o),
(755,143,o),
(755,355,cs)
);
},
{
closed = 1;
nodes = (
(232,466,o),
(292,536,o),
(394,536,cs),
(495,536,o),
(556,466,o),
(556,355,cs),
(556,246,o),
(495,175,o),
(394,175,cs),
(292,175,o),
(232,246,o),
(232,355,cs)
);
},
{
closed = 1;
nodes = (
(266,844,l),
(516,746,l),
(516,879,l),
(266,992,l)
);
}
);
width = 787;
}
);
note = Ograve;
unicode = 210;
},
{
glyphname = Oacute;
layers = (
{
layerId = m01;
shapes = (
{
closed = 1;
nodes = (
(755,567,o),
(595,716,o),
(394,716,cs),
(194,716,o),
(32,567,o),
(32,355,cs),
(32,143,o),
(194,-7,o),
(394,-7,cs),
(594,-7,o),
(755,143,o),
(755,355,cs)
);
},
{
closed = 1;
nodes = (
(232,466,o),
(292,536,o),
(394,536,cs),
(495,536,o),
(556,466,o),
(556,355,cs),
(556,246,o),
(495,175,o),
(394,175,cs),
(292,175,o),
(232,246,o),
(232,355,cs)
);
},
{
closed = 1;
nodes = (
(266,879,l),
(266,746,l),
(516,844,l),
(516,992,l)
);
}
);
width = 787;
}
);
note = Oacute;
unicode = 211;
},
{
glyphname = Ocircumflex;
layers = (
{
layerId = m01;
shapes = (
{
closed = 1;
nodes = (
(755,567,o),
(595,716,o),
(394,716,cs),
(194,716,o),
(32,567,o),
(32,355,cs),
(32,143,o),
(194,-7,o),
(394,-7,cs),
(594,-7,o),
(755,143,o),
(755,355,cs)
);
},
{
closed = 1;
nodes = (
(232,466,o),
(292,536,o),
(394,536,cs),
(495,536,o),
(556,466,o),
(556,355,cs),
(556,246,o),
(495,175,o),
(394,175,cs),
(292,175,o),
(232,246,o),
(232,355,cs)
);
},
{
closed = 1;
nodes = (
(554,877,l),
(395,954,l),
(234,877,l),
(234,746,l),
(395,826,l),
(554,746,l)
);
}
);
width = 787;
}
);
note = Ocircumflex;
unicode = 212;
},
{
glyphname = Otilde;
layers = (
{
layerId = m01;
shapes = (
{
closed = 1;
nodes = (
(755,567,o),
(595,716,o),
(394,716,cs),
(194,716,o),
(32,567,o),
(32,355,cs),
(32,143,o),
(194,-7,o),
(394,-7,cs),
(594,-7,o),
(755,143,o),
(755,355,cs)
);
},
{
closed = 1;
nodes = (
(232,466,o),
(292,536,o),
(394,536,cs),
(495,536,o),
(556,466,o),
(556,355,cs),
(556,246,o),
(495,175,o),
(394,175,cs),
(292,175,o),
(232,246,o),
(232,355,cs)
);
},
{
closed = 1;
nodes = (
(275,750,l),
(281,782,o),
(296,796,o),
(320,796,cs),
(360,796,o),
(395,751,o),
(457,751,cs),
(533,751,o),
(587,796,o),
(607,913,c),
(508,913,l),
(503,882,o),
(488,867,o),
(464,867,cs),
(424,867,o),
(389,913,o),
(327,913,cs),
(251,913,o),
(197,867,o),
(177,750,c)
);
}
);
width = 787;
}
);
note = Otilde;
unicode = 213;
},
{
glyphname = Odieresis;
layers = (
{
layerId = m01;
shapes = (
{
closed = 1;
nodes = (
(755,567,o),
(595,716,o),
(394,716,cs),
(194,716,o),
(32,567,o),
(32,355,cs),
(32,143,o),
(194,-7,o),
(394,-7,cs),
(594,-7,o),
(755,143,o),
(755,355,cs)
);
},
{
closed = 1;
nodes = (
(232,466,o),
(292,536,o),
(394,536,cs),
(495,536,o),
(556,466,o),
(556,355,cs),
(556,246,o),
(495,175,o),
(394,175,cs),
(292,175,o),
(232,246,o),
(232,355,cs)
);
},
{
closed = 1;
nodes = (
(333,767,o),
(368,801,o),
(368,846,cs),
(368,892,o),
(333,927,o),
(287,927,cs),
(242,927,o),
(208,892,o),
(208,846,cs),
(208,801,o),
(242,767,o),
(287,767,cs)
);
},
{
closed = 1;
nodes = (
(546,767,o),
(580,801,o),
(580,846,cs),
(580,892,o),
(546,927,o),
(500,927,cs),
(455,927,o),
(421,892,o),
(421,846,cs),
(421,801,o),
(455,767,o),
(500,767,cs)
);
}
);
width = 787;
}
);
note = Odieresis;
unicode = 214;
},
{
glyphname = multiply;
layers = (
{
layerId = m01;
shapes = (
{
closed = 1;
nodes = (
(171,93,l),
(302,225,l),
(435,92,l),
(564,220,l),
(430,354,l),
(555,480,l),
(428,606,l),
(303,481,l),
(178,606,l),
(48,478,l),
(175,351,l),
(44,219,l)
);
}
);
width = 609;
}
);
note = multiply;
unicode = 215;
},
{
glyphname = Oslash;
layers = (
{
layerId = m01;
shapes = (
{
closed = 1;
nodes = (
(754,451,o),
(721,535,o),
(666,597,c),
(766,708,l),
(657,708,l),
(606,651,l),
(546,693,o),
(473,716,o),
(393,716,cs),
(193,716,o),
(31,567,o),
(31,355,cs),
(31,258,o),
(65,175,o),
(120,112,c),
(20,1,l),
(130,1,l),
(181,58,l),
(241,16,o),
(314,-7,o),
(393,-7,cs),
(593,-7,o),
(754,143,o),
(754,355,cs)
);
},
{
closed = 1;
nodes = (
(231,466,o),
(291,536,o),
(393,536,cs),
(427,536,o),
(457,528,o),
(481,513,c),
(251,258,l),
(238,285,o),
(231,318,o),
(231,355,cs)
);
},
{
closed = 1;
nodes = (
(359,175,o),
(330,183,o),
(306,197,c),
(535,452,l),
(548,425,o),
(555,392,o),
(555,355,cs),
(555,246,o),
(494,175,o),
(393,175,cs)
);
}
);
width = 787;
}
);
note = Oslash;
unicode = 216;
},
{
glyphname = Ugrave;
layers = (
{
layerId = m01;
shapes = (
{
closed = 1;
nodes = (
(53,296,ls),
(53,95,o),
(181,-7,o),
(351,-7,cs),
(520,-7,o),
(660,95,o),
(660,296,cs),
(660,705,l),
(464,705,l),
(464,296,ls),
(464,223,o),
(429,177,o),
(355,177,cs),
(281,177,o),
(248,223,o),
(248,296,cs),
(248,705,l),
(53,705,l)
);
},
{
closed = 1;
nodes = (
(229,844,l),
(479,746,l),
(479,879,l),
(229,992,l)
);
}
);
width = 712;
}
);
note = Ugrave;
unicode = 217;
},
{
glyphname = Uacute;
layers = (
{
layerId = m01;
shapes = (
{
closed = 1;
nodes = (
(53,296,ls),
(53,95,o),
(181,-7,o),
(351,-7,cs),
(520,-7,o),
(660,95,o),
(660,296,cs),
(660,705,l),
(464,705,l),
(464,296,ls),
(464,223,o),
(429,177,o),
(355,177,cs),
(281,177,o),
(248,223,o),
(248,296,cs),
(248,705,l),
(53,705,l)
);
},
{
closed = 1;
nodes = (
(229,879,l),
(229,746,l),
(479,844,l),
(479,992,l)
);
}
);
width = 712;
}
);
note = Uacute;
unicode = 218;
},
{
glyphname = Ucircumflex;
layers = (
{
layerId = m01;
shapes = (
{
closed = 1;
nodes = (
(53,296,ls),
(53,95,o),
(181,-7,o),
(351,-7,cs),
(520,-7,o),
(660,95,o),
(660,296,cs),
(660,705,l),
(464,705,l),
(464,296,ls),
(464,223,o),
(429,177,o),
(355,177,cs),
(281,177,o),
(248,223,o),
(248,296,cs),
(248,705,l),
(53,705,l)
);
},
{
closed = 1;
nodes = (
(516,877,l),
(357,954,l),
(196,877,l),
(196,746,l),
(357,826,l),
(516,746,l)
);
}
);
width = 712;
}
);
note = Ucircumflex;
unicode = 219;
},
{
glyphname = Udieresis;
layers = (
{
layerId = m01;
shapes = (
{
closed = 1;
nodes = (
(53,296,ls),
(53,95,o),
(181,-7,o),
(351,-7,cs),
(520,-7,o),
(660,95,o),
(660,296,cs),
(660,705,l),
(464,705,l),
(464,296,ls),
(464,223,o),
(429,177,o),
(355,177,cs),
(281,177,o),
(248,223,o),
(248,296,cs),
(248,705,l),
(53,705,l)
);
},
{
closed = 1;
nodes = (
(295,767,o),
(330,801,o),
(330,846,cs),
(330,892,o),
(295,927,o),
(249,927,cs),
(204,927,o),
(170,892,o),
(170,846,cs),
(170,801,o),
(204,767,o),
(249,767,cs)
);
},
{
closed = 1;
nodes = (
(508,767,o),
(542,801,o),
(542,846,cs),
(542,892,o),
(508,927,o),
(462,927,cs),
(417,927,o),
(383,892,o),
(383,846,cs),
(383,801,o),
(417,767,o),
(462,767,cs)
);
}
);
width = 712;
}
);
note = Udieresis;
unicode = 220;
},
{
glyphname = Yacute;
layers = (
{
layerId = m01;
shapes = (
{
closed = 1;
nodes = (
(252,224,l),
(252,0,l),
(449,0,l),
(449,224,l),
(697,705,l),
(476,705,l),
(352,433,l),
(228,705,l),
(4,705,l)
);
},
{
closed = 1;
nodes = (
(223,879,l),
(223,746,l),
(473,844,l),
(473,992,l)
);
}
);
width = 701;
}
);
note = Yacute;
unicode = 221;
},
{
glyphname = Thorn;
layers = (
{
layerId = m01;
shapes = (
{
closed = 1;
nodes = (
(252,276,l),
(252,431,l),
(330,431,ls),
(389,431,o),
(413,400,o),
(413,353,cs),
(413,307,o),
(389,276,o),
(330,276,cs)
);
},
{
closed = 1;
nodes = (
(613,485,o),
(524,580,o),
(349,580,cs),
(251,580,l),
(251,705,l),
(56,705,l),
(56,0,l),
(252,0,l),
(252,129,l),
(349,129,ls),
(528,129,o),
(613,234,o),
(613,353,cs)
);
}
);
width = 636;
}
);
note = Thorn;
unicode = 222;
},
{
glyphname = germandbls;
layers = (
{
layerId = m01;
shapes = (
{
closed = 1;
nodes = (
(46,0,l),
(241,0,l),
(241,510,ls),
(241,567,o),
(274,603,o),
(335,603,cs),
(383,603,o),
(416,581,o),
(416,545,cs),
(416,490,o),
(316,441,o),
(316,362,cs),
(316,302,o),
(361,268,o),
(476,226,cs),
(543,201,o),
(556,187,o),
(556,164,cs),
(556,141,o),
(539,128,o),
(513,128,cs),
(480,128,o),
(455,151,o),
(449,184,c),
(273,184,l),
(294,59,o),
(379,-10,o),
(517,-10,cs),
(651,-10,o),
(741,63,o),
(741,173,cs),
(741,254,o),
(700,300,o),
(597,340,cs),
(521,370,o),
(511,380,o),
(511,396,cs),
(511,431,o),
(610,477,o),
(610,579,cs),
(610,682,o),
(502,765,o),
(346,765,cs),
(169,765,o),
(46,671,o),
(46,522,cs)
);
}
);
width = 788;
}
);
note = germandbls;
unicode = 223;
},
{
glyphname = agrave;
layers = (
{
layerId = m01;
shapes = (
{
closed = 1;
nodes = (
(24,102,o),
(130,-7,o),
(263,-7,cs),
(342,-7,o),
(399,28,o),
(428,78,c),
(428,0,l),
(624,0,l),
(624,561,l),
(428,561,l),
(428,483,l),
(399,533,o),
(343,568,o),
(263,568,cs),
(130,568,o),
(24,460,o),
(24,281,cs)
);
},
{
closed = 1;
nodes = (
(428,205,o),
(381,164,o),
(326,164,cs),
(270,164,o),
(224,206,o),
(224,281,cs),
(224,357,o),
(270,397,o),
(326,397,cs),
(381,397,o),
(428,356,o),
(428,281,cs)
);
},
{
closed = 1;
nodes = (
(217,697,l),
(467,599,l),
(467,732,l),
(217,845,l)
);
}
);
width = 680;
}
);
note = agrave;
unicode = 224;
},
{
glyphname = aacute;
layers = (
{
layerId = m01;
shapes = (
{
closed = 1;
nodes = (
(24,102,o),
(130,-7,o),
(263,-7,cs),
(342,-7,o),
(399,28,o),
(428,78,c),
(428,0,l),
(624,0,l),
(624,561,l),
(428,561,l),
(428,483,l),
(399,533,o),
(343,568,o),
(263,568,cs),
(130,568,o),
(24,460,o),
(24,281,cs)
);
},
{
closed = 1;
nodes = (
(428,205,o),
(381,164,o),
(326,164,cs),
(270,164,o),
(224,206,o),
(224,281,cs),
(224,357,o),
(270,397,o),
(326,397,cs),
(381,397,o),
(428,356,o),
(428,281,cs)
);
},
{
closed = 1;
nodes = (
(217,732,l),
(217,599,l),
(467,697,l),
(467,845,l)
);
}
);
width = 680;
}
);
note = aacute;
unicode = 225;
},
{
glyphname = acircumflex;
layers = (
{
layerId = m01;
shapes = (
{
closed = 1;
nodes = (
(24,102,o),
(130,-7,o),
(263,-7,cs),
(342,-7,o),
(399,28,o),
(428,78,c),
(428,0,l),
(624,0,l),
(624,561,l),
(428,561,l),
(428,483,l),
(399,533,o),
(343,568,o),
(263,568,cs),
(130,568,o),
(24,460,o),
(24,281,cs)
);
},
{
closed = 1;
nodes = (
(428,205,o),
(381,164,o),
(326,164,cs),
(270,164,o),
(224,206,o),
(224,281,cs),
(224,357,o),
(270,397,o),
(326,397,cs),
(381,397,o),
(428,356,o),
(428,281,cs)
);
},
{
closed = 1;
nodes = (
(505,730,l),
(346,807,l),
(185,730,l),
(185,599,l),
(346,679,l),
(505,599,l)
);
}
);
width = 680;
}
);
note = acircumflex;
unicode = 226;
},
{
glyphname = atilde;
layers = (
{
layerId = m01;
shapes = (
{
closed = 1;
nodes = (
(24,102,o),
(130,-7,o),
(263,-7,cs),
(342,-7,o),
(399,28,o),
(428,78,c),
(428,0,l),
(624,0,l),
(624,561,l),
(428,561,l),
(428,483,l),
(399,533,o),
(343,568,o),
(263,568,cs),
(130,568,o),
(24,460,o),
(24,281,cs)
);
},
{
closed = 1;
nodes = (
(428,205,o),
(381,164,o),
(326,164,cs),
(270,164,o),
(224,206,o),
(224,281,cs),
(224,357,o),
(270,397,o),
(326,397,cs),
(381,397,o),
(428,356,o),
(428,281,cs)
);
},
{
closed = 1;
nodes = (
(225,603,l),
(231,635,o),
(246,649,o),
(270,649,cs),
(310,649,o),
(345,604,o),
(407,604,cs),
(483,604,o),
(537,649,o),
(557,766,c),
(458,766,l),
(453,735,o),
(438,720,o),
(414,720,cs),
(374,720,o),
(339,766,o),
(277,766,cs),
(201,766,o),
(147,720,o),
(127,603,c)
);
}
);
width = 680;
}
);
note = atilde;
unicode = 227;
},
{
glyphname = adieresis;
layers = (
{
layerId = m01;
shapes = (
{
closed = 1;
nodes = (
(24,102,o),
(130,-7,o),
(263,-7,cs),
(342,-7,o),
(399,28,o),
(428,78,c),
(428,0,l),
(624,0,l),
(624,561,l),
(428,561,l),
(428,483,l),
(399,533,o),
(343,568,o),
(263,568,cs),
(130,568,o),
(24,460,o),
(24,281,cs)
);
},
{
closed = 1;
nodes = (
(428,205,o),
(381,164,o),
(326,164,cs),
(270,164,o),
(224,206,o),
(224,281,cs),
(224,357,o),
(270,397,o),
(326,397,cs),
(381,397,o),
(428,356,o),
(428,281,cs)
);
},
{
closed = 1;
nodes = (
(284,620,o),
(319,654,o),
(319,699,cs),
(319,745,o),
(284,780,o),
(238,780,cs),
(193,780,o),
(159,745,o),
(159,699,cs),
(159,654,o),
(193,620,o),
(238,620,cs)
);
},
{
closed = 1;
nodes = (
(497,620,o),
(531,654,o),
(531,699,cs),
(531,745,o),
(497,780,o),
(451,780,cs),
(406,780,o),
(372,745,o),
(372,699,cs),
(372,654,o),
(406,620,o),
(451,620,cs)
);
}
);
width = 680;
}
);
note = adieresis;
unicode = 228;
},
{
glyphname = aring;
layers = (
{
layerId = m01;
shapes = (
{
closed = 1;
nodes = (
(24,102,o),
(130,-7,o),
(263,-7,cs),
(342,-7,o),
(399,28,o),
(428,78,c),
(428,0,l),
(624,0,l),
(624,561,l),
(428,561,l),
(428,483,l),
(399,533,o),
(343,568,o),
(263,568,cs),
(130,568,o),
(24,460,o),
(24,281,cs)
);
},
{
closed = 1;
nodes = (
(428,205,o),
(381,164,o),
(326,164,cs),
(270,164,o),
(224,206,o),
(224,281,cs),
(224,357,o),
(270,397,o),
(326,397,cs),
(381,397,o),
(428,356,o),
(428,281,cs)
);
},
{
closed = 1;
nodes = (
(275,849,o),
(218,801,o),
(218,722,cs),
(218,644,o),
(275,596,o),
(346,596,cs),
(416,596,o),
(473,644,o),
(473,722,cs),
(473,801,o),
(416,849,o),
(346,849,cs)
);
},
{
closed = 1;
nodes = (
(320,675,o),
(299,694,o),
(299,723,cs),
(299,752,o),
(320,771,o),
(346,771,cs),
(372,771,o),
(392,752,o),
(392,723,cs),
(392,694,o),
(372,675,o),
(346,675,cs)
);
}
);
width = 680;
}
);
note = aring;
unicode = 229;
},
{
glyphname = ae;
layers = (
{
layerId = m01;
shapes = (
{
closed = 1;
nodes = (
(790,413,o),
(837,385,o),
(838,330,c),
(630,330,l),
(641,390,o),
(685,413,o),
(735,413,cs)
);
},
{
closed = 1;
nodes = (
(816,194,l),
(804,167,o),
(777,148,o),
(729,148,cs),
(681,148,o),
(639,173,o),
(630,242,c),
(1033,242,l),
(1036,257,o),
(1037,273,o),
(1037,288,cs),
(1037,460,o),
(937,568,o),
(794,568,cs),
(714,568,o),
(655,539,o),
(621,484,c),
(621,561,l),
(429,561,l),
(429,484,l),
(397,537,o),
(341,568,o),
(265,568,cs),
(130,568,o),
(24,460,o),
(24,281,cs),
(24,102,o),
(130,-7,o),
(263,-7,cs),
(341,-7,o),
(398,27,o),
(429,78,c),
(429,0,l),
(621,0,l),
(621,78,l),
(652,26,o),
(713,-7,o),
(794,-7,cs),
(914,-7,o),
(999,79,o),
(1025,194,c)
);
},
{
closed = 1;
nodes = (
(224,357,o),
(270,397,o),
(326,397,cs),
(381,397,o),
(428,356,o),
(428,281,cs),
(428,205,o),
(381,164,o),
(326,164,cs),
(270,164,o),
(224,206,o),
(224,281,cs)
);
}
);
width = 1061;
}
);
note = ae;
unicode = 230;
},
{
glyphname = ccedilla;
layers = (
{
layerId = m01;
shapes = (
{
closed = 1;
nodes = (
(24,124,o),
(115,20,o),
(250,-2,c),
(250,-129,l),
(328,-129,ls),
(349,-129,o),
(361,-135,o),
(361,-150,cs),
(361,-164,o),
(349,-171,o),
(328,-171,cs),
(188,-171,l),
(188,-274,l),
(351,-274,ls),
(419,-274,o),
(496,-244,o),
(496,-155,cs),
(496,-66,o),
(420,-37,o),
(366,-37,c),
(366,-2,l),
(478,18,o),
(558,96,o),
(582,215,c),
(374,215,l),
(363,180,o),
(341,160,o),
(304,160,cs),
(256,160,o),
(224,200,o),
(224,281,cs),
(224,361,o),
(256,401,o),
(304,401,cs),
(341,401,o),
(363,380,o),
(374,346,c),
(582,346,l),
(554,487,o),
(450,568,o),
(308,568,cs),
(141,568,o),
(24,459,o),
(24,281,cs)
);
}
);
width = 607;
}
);
note = ccedilla;
unicode = 231;
},
{
glyphname = egrave;
layers = (
{
layerId = m01;
shapes = (
{
closed = 1;
nodes = (
(353,413,o),
(392,386,o),
(392,336,c),
(219,336,l),
(228,387,o),
(261,413,o),
(308,413,cs)
);
},
{
closed = 1;
nodes = (
(371,194,l),
(360,171,o),
(339,150,o),
(301,150,cs),
(257,150,o),
(222,176,o),
(218,241,c),
(589,241,l),
(591,256,o),
(592,272,o),
(592,287,cs),
(592,461,o),
(475,568,o),
(309,568,cs),
(141,568,o),
(24,459,o),
(24,281,cs),
(24,102,o),
(143,-7,o),
(309,-7,cs),
(449,-7,o),
(554,79,o),
(580,194,c)
);
},
{
closed = 1;
nodes = (
(180,702,l),
(430,604,l),
(430,737,l),
(180,850,l)
);
}
);
width = 616;
}
);
note = egrave;
unicode = 232;
},
{
glyphname = eacute;
layers = (
{
layerId = m01;
shapes = (
{
closed = 1;
nodes = (
(353,413,o),
(392,386,o),
(392,336,c),
(219,336,l),
(228,387,o),
(261,413,o),
(308,413,cs)
);
},
{
closed = 1;
nodes = (
(371,194,l),
(360,171,o),
(339,150,o),
(301,150,cs),
(257,150,o),
(222,176,o),
(218,241,c),
(589,241,l),
(591,256,o),
(592,272,o),
(592,287,cs),
(592,461,o),
(475,568,o),
(309,568,cs),
(141,568,o),
(24,459,o),
(24,281,cs),
(24,102,o),
(143,-7,o),
(309,-7,cs),
(449,-7,o),
(554,79,o),
(580,194,c)
);
},
{
closed = 1;
nodes = (
(180,737,l),
(180,604,l),
(430,702,l),
(430,850,l)
);
}
);
width = 616;
}
);
note = eacute;
unicode = 233;
},
{
glyphname = ecircumflex;
layers = (
{
layerId = m01;
shapes = (
{
closed = 1;
nodes = (
(353,413,o),
(392,386,o),
(392,336,c),
(219,336,l),
(228,387,o),
(261,413,o),
(308,413,cs)
);
},
{
closed = 1;
nodes = (
(371,194,l),
(360,171,o),
(339,150,o),
(301,150,cs),
(257,150,o),
(222,176,o),
(218,241,c),
(589,241,l),
(591,256,o),
(592,272,o),
(592,287,cs),
(592,461,o),
(475,568,o),
(309,568,cs),
(141,568,o),
(24,459,o),
(24,281,cs),
(24,102,o),
(143,-7,o),
(309,-7,cs),
(449,-7,o),
(554,79,o),
(580,194,c)
);
},
{
closed = 1;
nodes = (
(468,735,l),
(309,812,l),
(148,735,l),
(148,604,l),
(309,684,l),
(468,604,l)
);
}
);
width = 616;
}
);
note = ecircumflex;
unicode = 234;
},
{
glyphname = edieresis;
layers = (
{
layerId = m01;
shapes = (
{
closed = 1;
nodes = (
(353,413,o),
(392,386,o),
(392,336,c),
(219,336,l),
(228,387,o),
(261,413,o),
(308,413,cs)
);
},
{
closed = 1;
nodes = (
(371,194,l),
(360,171,o),
(339,150,o),
(301,150,cs),
(257,150,o),
(222,176,o),
(218,241,c),
(589,241,l),
(591,256,o),
(592,272,o),
(592,287,cs),
(592,461,o),
(475,568,o),
(309,568,cs),
(141,568,o),
(24,459,o),
(24,281,cs),
(24,102,o),
(143,-7,o),
(309,-7,cs),
(449,-7,o),
(554,79,o),
(580,194,c)
);
},
{
closed = 1;
nodes = (
(247,625,o),
(282,659,o),
(282,704,cs),
(282,750,o),
(247,785,o),
(201,785,cs),
(156,785,o),
(122,750,o),
(122,704,cs),
(122,659,o),
(156,625,o),
(201,625,cs)
);
},
{
closed = 1;
nodes = (
(460,625,o),
(494,659,o),
(494,704,cs),
(494,750,o),
(460,785,o),
(414,785,cs),
(369,785,o),
(335,750,o),
(335,704,cs),
(335,659,o),
(369,625,o),
(414,625,cs)
);
}
);
width = 616;
}
);
note = edieresis;
unicode = 235;
},
{
glyphname = igrave;
layers = (
{
layerId = m01;
shapes = (
{
closed = 1;
nodes = (
(75,0,l),
(272,0,l),
(272,561,l),
(75,561,l)
);
},
{
closed = 1;
nodes = (
(46,697,l),
(296,599,l),
(296,732,l),
(46,845,l)
);
}
);
width = 347;
}
);
note = igrave;
unicode = 236;
},
{
glyphname = iacute;
layers = (
{
layerId = m01;
shapes = (
{
closed = 1;
nodes = (
(75,0,l),
(272,0,l),
(272,561,l),
(75,561,l)
);
},
{
closed = 1;
nodes = (
(46,732,l),
(46,599,l),
(296,697,l),
(296,845,l)
);
}
);
width = 347;
}
);
note = iacute;
unicode = 237;
},
{
glyphname = icircumflex;
layers = (
{
layerId = m01;
shapes = (
{
closed = 1;
nodes = (
(75,0,l),
(272,0,l),
(272,561,l),
(75,561,l)
);
},
{
closed = 1;
nodes = (
(333,730,l),
(174,807,l),
(13,730,l),
(13,599,l),
(174,679,l),
(333,599,l)
);
}
);
width = 347;
}
);
note = icircumflex;
unicode = 238;
},
{
glyphname = idieresis;
layers = (
{
layerId = m01;
shapes = (
{
closed = 1;
nodes = (
(75,0,l),
(272,0,l),
(272,561,l),
(75,561,l)
);
},
{
closed = 1;
nodes = (
(113,620,o),
(148,654,o),
(148,699,cs),
(148,745,o),
(113,780,o),
(67,780,cs),
(22,780,o),
(-12,745,o),
(-12,699,cs),
(-12,654,o),
(22,620,o),
(67,620,cs)
);
},
{
closed = 1;
nodes = (
(326,620,o),
(360,654,o),
(360,699,cs),
(360,745,o),
(326,780,o),
(280,780,cs),
(235,780,o),
(201,745,o),
(201,699,cs),
(201,654,o),
(235,620,o),
(280,620,cs)
);
}
);
width = 347;
}
);
note = idieresis;
unicode = 239;
},
{
glyphname = eth;
layers = (
{
layerId = m01;
shapes = (
{
closed = 1;
nodes = (
(24,105,o),
(162,-7,o),
(325,-7,cs),
(485,-7,o),
(617,106,o),
(617,317,cs),
(617,439,o),
(570,559,o),
(499,657,c),
(534,667,l),
(534,737,l),
(453,713,l),
(445,722,o),
(436,731,o),
(427,740,c),
(252,740,l),
(274,721,o),
(297,698,o),
(318,673,c),
(264,657,l),
(264,588,l),
(361,616,l),
(376,594,o),
(389,570,o),
(400,547,c),
(368,559,o),
(336,566,o),
(302,566,cs),
(147,566,o),
(24,459,o),
(24,282,cs)
);
},
{
closed = 1;
nodes = (
(224,365,o),
(275,398,o),
(322,398,cs),
(366,398,o),
(417,365,o),
(417,281,cs),
(417,196,o),
(371,163,o),
(325,163,cs),
(279,163,o),
(224,196,o),
(224,281,cs)
);
}
);
width = 641;
}
);
note = eth;
unicode = 240;
},
{
glyphname = ntilde;
layers = (
{
layerId = m01;
shapes = (
{
closed = 1;
nodes = (
(252,301,ls),
(252,366,o),
(288,404,o),
(346,404,cs),
(402,404,o),
(438,366,o),
(438,301,cs),
(438,0,l),
(634,0,l),
(634,327,ls),
(634,474,o),
(553,566,o),
(423,566,cs),
(344,566,o),
(285,529,o),
(252,481,c),
(252,561,l),
(56,561,l),
(56,0,l),
(252,0,l)
);
},
{
closed = 1;
nodes = (
(253,603,l),
(259,635,o),
(274,649,o),
(298,649,cs),
(338,649,o),
(373,604,o),
(435,604,cs),
(511,604,o),
(565,649,o),
(585,766,c),
(486,766,l),
(481,735,o),
(466,720,o),
(442,720,cs),
(402,720,o),
(367,766,o),
(305,766,cs),
(229,766,o),
(175,720,o),
(155,603,c)
);
}
);
width = 686;
}
);
note = ntilde;
unicode = 241;
},
{
glyphname = ograve;
layers = (
{
layerId = m01;
shapes = (
{
closed = 1;
nodes = (
(612,459,o),
(485,568,o),
(318,568,cs),
(151,568,o),
(24,459,o),
(24,281,cs),
(24,102,o),
(150,-7,o),
(317,-7,cs),
(484,-7,o),
(612,102,o),
(612,281,cs)
);
},
{
closed = 1;
nodes = (
(224,361,o),
(268,398,o),
(318,398,cs),
(368,398,o),
(413,361,o),
(413,281,cs),
(413,200,o),
(367,163,o),
(317,163,cs),
(266,163,o),
(224,200,o),
(224,281,cs)
);
},
{
closed = 1;
nodes = (
(209,699,l),
(459,601,l),
(459,734,l),
(209,847,l)
);
}
);
width = 636;
}
);
note = ograve;
unicode = 242;
},
{
glyphname = oacute;
layers = (
{
layerId = m01;
shapes = (
{
closed = 1;
nodes = (
(612,459,o),
(485,568,o),
(318,568,cs),
(151,568,o),
(24,459,o),
(24,281,cs),
(24,102,o),
(150,-7,o),
(317,-7,cs),
(484,-7,o),
(612,102,o),
(612,281,cs)
);
},
{
closed = 1;
nodes = (
(224,361,o),
(268,398,o),
(318,398,cs),
(368,398,o),
(413,361,o),
(413,281,cs),
(413,200,o),
(367,163,o),
(317,163,cs),
(266,163,o),
(224,200,o),
(224,281,cs)
);
},
{
closed = 1;
nodes = (
(209,734,l),
(209,601,l),
(459,699,l),
(459,847,l)
);
}
);
width = 636;
}
);
note = oacute;
unicode = 243;
},
{
glyphname = ocircumflex;
layers = (
{
layerId = m01;
shapes = (
{
closed = 1;
nodes = (
(612,459,o),
(485,568,o),
(318,568,cs),
(151,568,o),
(24,459,o),
(24,281,cs),
(24,102,o),
(150,-7,o),
(317,-7,cs),
(484,-7,o),
(612,102,o),
(612,281,cs)
);
},
{
closed = 1;
nodes = (
(224,361,o),
(268,398,o),
(318,398,cs),
(368,398,o),
(413,361,o),
(413,281,cs),
(413,200,o),
(367,163,o),
(317,163,cs),
(266,163,o),
(224,200,o),
(224,281,cs)
);
},
{
closed = 1;
nodes = (
(497,732,l),
(338,809,l),
(177,732,l),
(177,601,l),
(338,681,l),
(497,601,l)
);
}
);
width = 636;
}
);
note = ocircumflex;
unicode = 244;
},
{
glyphname = otilde;
layers = (
{
layerId = m01;
shapes = (
{
closed = 1;
nodes = (
(612,459,o),
(485,568,o),
(318,568,cs),
(151,568,o),
(24,459,o),
(24,281,cs),
(24,102,o),
(150,-7,o),
(317,-7,cs),
(484,-7,o),
(612,102,o),
(612,281,cs)
);
},
{
closed = 1;
nodes = (
(224,361,o),
(268,398,o),
(318,398,cs),
(368,398,o),
(413,361,o),
(413,281,cs),
(413,200,o),
(367,163,o),
(317,163,cs),
(266,163,o),
(224,200,o),
(224,281,cs)
);
},
{
closed = 1;
nodes = (
(218,605,l),
(224,637,o),
(239,651,o),
(263,651,cs),
(303,651,o),
(338,606,o),
(400,606,cs),
(476,606,o),
(530,651,o),
(550,768,c),
(451,768,l),
(446,737,o),
(431,722,o),
(407,722,cs),
(367,722,o),
(332,768,o),
(270,768,cs),
(194,768,o),
(140,722,o),
(120,605,c)
);
}
);
width = 636;
}
);
note = otilde;
unicode = 245;
},
{
glyphname = odieresis;
layers = (
{
layerId = m01;
shapes = (
{
closed = 1;
nodes = (
(612,459,o),
(485,568,o),
(318,568,cs),
(151,568,o),
(24,459,o),
(24,281,cs),
(24,102,o),
(150,-7,o),
(317,-7,cs),
(484,-7,o),
(612,102,o),
(612,281,cs)
);
},
{
closed = 1;
nodes = (
(224,361,o),
(268,398,o),
(318,398,cs),
(368,398,o),
(413,361,o),
(413,281,cs),
(413,200,o),
(367,163,o),
(317,163,cs),
(266,163,o),
(224,200,o),
(224,281,cs)
);
},
{
closed = 1;
nodes = (
(276,622,o),
(311,656,o),
(311,701,cs),
(311,747,o),
(276,782,o),
(230,782,cs),
(185,782,o),
(151,747,o),
(151,701,cs),
(151,656,o),
(185,622,o),
(230,622,cs)
);
},
{
closed = 1;
nodes = (
(489,622,o),
(523,656,o),
(523,701,cs),
(523,747,o),
(489,782,o),
(443,782,cs),
(398,782,o),
(364,747,o),
(364,701,cs),
(364,656,o),
(398,622,o),
(443,622,cs)
);
}
);
width = 636;
}
);
note = odieresis;
unicode = 246;
},
{
glyphname = divide;
layers = (
{
layerId = m01;
shapes = (
{
closed = 1;
nodes = (
(37,257,l),
(547,257,l),
(547,434,l),
(37,434,l)
);
},
{
closed = 1;
nodes = (
(410,169,o),
(365,214,o),
(296,214,cs),
(226,214,o),
(181,169,o),
(181,112,cs),
(181,55,o),
(226,11,o),
(296,11,cs),
(365,11,o),
(410,55,o),
(410,112,cs)
);
},
{
closed = 1;
nodes = (
(410,634,o),
(365,679,o),
(296,679,cs),
(226,679,o),
(181,634,o),
(181,577,cs),
(181,520,o),
(226,476,o),
(296,476,cs),
(365,476,o),
(410,520,o),
(410,577,cs)
);
}
);
width = 581;
}
);
note = divide;
unicode = 247;
},
{
glyphname = oslash;
layers = (
{
layerId = m01;
shapes = (
{
closed = 1;
nodes = (
(606,360,o),
(581,426,o),
(538,474,c),
(618,561,l),
(521,561,l),
(484,521,l),
(436,551,o),
(377,568,o),
(312,568,cs),
(145,568,o),
(18,459,o),
(18,281,cs),
(18,201,o),
(43,135,o),
(86,86,c),
(7,0,l),
(104,0,l),
(140,40,l),
(188,9,o),
(246,-7,o),
(311,-7,cs),
(478,-7,o),
(606,102,o),
(606,281,cs)
);
},
{
closed = 1;
nodes = (
(218,361,o),
(262,398,o),
(312,398,cs),
(329,398,o),
(345,394,o),
(360,385,c),
(223,236,l),
(220,249,o),
(218,264,o),
(218,281,cs)
);
},
{
closed = 1;
nodes = (
(294,163,o),
(278,167,o),
(265,175,c),
(402,325,l),
(405,312,o),
(407,297,o),
(407,281,cs),
(407,200,o),
(361,163,o),
(311,163,cs)
);
}
);
width = 625;
}
);
note = oslash;
unicode = 248;
},
{
glyphname = ugrave;
layers = (
{
layerId = m01;
shapes = (
{
closed = 1;
nodes = (
(630,561,l),
(433,561,l),
(433,260,ls),
(433,195,o),
(397,157,o),
(340,157,cs),
(284,157,o),
(247,195,o),
(247,260,cs),
(247,561,l),
(52,561,l),
(52,235,ls),
(52,87,o),
(133,-5,o),
(263,-5,cs),
(342,-5,o),
(401,32,o),
(433,80,c),
(433,0,l),
(630,0,l)
);
},
{
closed = 1;
nodes = (
(215,697,l),
(465,599,l),
(465,732,l),
(215,845,l)
);
}
);
width = 686;
}
);
note = ugrave;
unicode = 249;
},
{
glyphname = uacute;
layers = (
{
layerId = m01;
shapes = (
{
closed = 1;
nodes = (
(630,561,l),
(433,561,l),
(433,260,ls),
(433,195,o),
(397,157,o),
(340,157,cs),
(284,157,o),
(247,195,o),
(247,260,cs),
(247,561,l),
(52,561,l),
(52,235,ls),
(52,87,o),
(133,-5,o),
(263,-5,cs),
(342,-5,o),
(401,32,o),
(433,80,c),
(433,0,l),
(630,0,l)
);
},
{
closed = 1;
nodes = (
(215,732,l),
(215,599,l),
(465,697,l),
(465,845,l)
);
}
);
width = 686;
}
);
note = uacute;
unicode = 250;
},
{
glyphname = ucircumflex;
layers = (
{
layerId = m01;
shapes = (
{
closed = 1;
nodes = (
(630,561,l),
(433,561,l),
(433,260,ls),
(433,195,o),
(397,157,o),
(340,157,cs),
(284,157,o),
(247,195,o),
(247,260,cs),
(247,561,l),
(52,561,l),
(52,235,ls),
(52,87,o),
(133,-5,o),
(263,-5,cs),
(342,-5,o),
(401,32,o),
(433,80,c),
(433,0,l),
(630,0,l)
);
},
{
closed = 1;
nodes = (
(503,730,l),
(344,807,l),
(183,730,l),
(183,599,l),
(344,679,l),
(503,599,l)
);
}
);
width = 686;
}
);
note = ucircumflex;
unicode = 251;
},
{
glyphname = udieresis;
layers = (
{
layerId = m01;
shapes = (
{
closed = 1;
nodes = (
(630,561,l),
(433,561,l),
(433,260,ls),
(433,195,o),
(397,157,o),
(340,157,cs),
(284,157,o),
(247,195,o),
(247,260,cs),
(247,561,l),
(52,561,l),
(52,235,ls),
(52,87,o),
(133,-5,o),
(263,-5,cs),
(342,-5,o),
(401,32,o),
(433,80,c),
(433,0,l),
(630,0,l)
);
},
{
closed = 1;
nodes = (
(282,620,o),
(317,654,o),
(317,699,cs),
(317,745,o),
(282,780,o),
(236,780,cs),
(191,780,o),
(157,745,o),
(157,699,cs),
(157,654,o),
(191,620,o),
(236,620,cs)
);
},
{
closed = 1;
nodes = (
(495,620,o),
(529,654,o),
(529,699,cs),
(529,745,o),
(495,780,o),
(449,780,cs),
(404,780,o),
(370,745,o),
(370,699,cs),
(370,654,o),
(404,620,o),
(449,620,cs)
);
}
);
width = 686;
}
);
note = udieresis;
unicode = 252;
},
{
glyphname = yacute;
layers = (
{
layerId = m01;
shapes = (
{
closed = 1;
nodes = (
(331,243,l),
(213,561,l),
(-5,561,l),
(225,24,l),
(91,-267,l),
(304,-267,l),
(660,561,l),
(445,561,l)
);
},
{
closed = 1;
nodes = (
(200,732,l),
(200,599,l),
(450,697,l),
(450,845,l)
);
}
);
width = 655;
}
);
note = yacute;
unicode = 253;
},
{
glyphname = thorn;
layers = (
{
layerId = m01;
shapes = (
{
closed = 1;
nodes = (
(252,740,l),
(56,740,l),
(56,-268,l),
(252,-268,l),
(252,72,l),
(290,21,o),
(337,-7,o),
(404,-7,cs),
(541,-7,o),
(655,108,o),
(655,278,cs),
(655,448,o),
(541,566,o),
(404,566,cs),
(337,566,o),
(289,545,o),
(252,500,c)
);
},
{
closed = 1;
nodes = (
(456,195,o),
(400,164,o),
(354,164,cs),
(308,164,o),
(252,198,o),
(252,281,cs),
(252,363,o),
(308,396,o),
(354,396,cs),
(400,396,o),
(456,361,o),
(456,278,cs)
);
}
);
width = 680;
}
);
note = thorn;
unicode = 254;
},
{
glyphname = ydieresis;
layers = (
{
layerId = m01;
shapes = (
{
closed = 1;
nodes = (
(331,243,l),
(213,561,l),
(-5,561,l),
(225,24,l),
(91,-267,l),
(304,-267,l),
(660,561,l),
(445,561,l)
);
},
{
closed = 1;
nodes = (
(266,620,o),
(301,654,o),
(301,699,cs),
(301,745,o),
(266,780,o),
(220,780,cs),
(175,780,o),
(141,745,o),
(141,699,cs),
(141,654,o),
(175,620,o),
(220,620,cs)
);
},
{
closed = 1;
nodes = (
(479,620,o),
(513,654,o),
(513,699,cs),
(513,745,o),
(479,780,o),
(433,780,cs),
(388,780,o),
(354,745,o),
(354,699,cs),
(354,654,o),
(388,620,o),
(433,620,cs)
);
}
);
width = 655;
}
);
note = ydieresis;
unicode = 255;
},
{
glyphname = Amacron;
layers = (
{
layerId = m01;
shapes = (
{
closed = 1;
nodes = (
(540,0,l),
(747,0,l),
(491,705,l),
(265,705,l),
(8,0,l),
(214,0,l),
(252,115,l),
(502,115,l)
);
},
{
closed = 1;
nodes = (
(171,772,l),
(587,772,l),
(587,904,l),
(171,904,l)
);
},
{
closed = 1;
nodes = (
(453,265,l),
(302,265,l),
(377,493,l)
);
}
);
width = 755;
}
);
note = Amacron;
unicode = 256;
},
{
glyphname = amacron;
layers = (
{
layerId = m01;
shapes = (
{
closed = 1;
nodes = (
(24,102,o),
(130,-7,o),
(263,-7,cs),
(342,-7,o),
(399,28,o),
(428,78,c),
(428,0,l),
(624,0,l),
(624,561,l),
(428,561,l),
(428,483,l),
(399,533,o),
(343,568,o),
(263,568,cs),
(130,568,o),
(24,460,o),
(24,281,cs)
);
},
{
closed = 1;
nodes = (
(428,205,o),
(381,164,o),
(326,164,cs),
(270,164,o),
(224,206,o),
(224,281,cs),
(224,357,o),
(270,397,o),
(326,397,cs),
(381,397,o),
(428,356,o),
(428,281,cs)
);
},
{
closed = 1;
nodes = (
(138,625,l),
(554,625,l),
(554,757,l),
(138,757,l)
);
}
);
width = 680;
}
);
note = amacron;
unicode = 257;
},
{
glyphname = Abreve;
layers = (
{
layerId = m01;
shapes = (
{
closed = 1;
nodes = (
(540,0,l),
(747,0,l),
(491,705,l),
(265,705,l),
(8,0,l),
(214,0,l),
(252,115,l),
(502,115,l)
);
},
{
closed = 1;
nodes = (
(557,952,l),
(463,952,l),
(463,912,o),
(443,888,o),
(378,888,cs),
(313,888,o),
(293,912,o),
(293,952,c),
(199,952,l),
(199,934,ls),
(199,809,o),
(276,746,o),
(378,746,cs),
(481,746,o),
(557,809,o),
(557,934,cs)
);
},
{
closed = 1;
nodes = (
(453,265,l),
(302,265,l),
(377,493,l)
);
}
);
width = 755;
}
);
note = Abreve;
unicode = 258;
},
{
glyphname = abreve;
layers = (
{
layerId = m01;
shapes = (
{
closed = 1;
nodes = (
(24,102,o),
(130,-7,o),
(263,-7,cs),
(342,-7,o),
(399,28,o),
(428,78,c),
(428,0,l),
(624,0,l),
(624,561,l),
(428,561,l),
(428,483,l),
(399,533,o),
(343,568,o),
(263,568,cs),
(130,568,o),
(24,460,o),
(24,281,cs)
);
},
{
closed = 1;
nodes = (
(428,205,o),
(381,164,o),
(326,164,cs),
(270,164,o),
(224,206,o),
(224,281,cs),
(224,357,o),
(270,397,o),
(326,397,cs),
(381,397,o),
(428,356,o),
(428,281,cs)
);
},
{
closed = 1;
nodes = (
(524,805,l),
(430,805,l),
(430,765,o),
(410,741,o),
(345,741,cs),
(280,741,o),
(260,765,o),
(260,805,c),
(166,805,l),
(166,787,ls),
(166,662,o),
(243,599,o),
(345,599,cs),
(448,599,o),
(524,662,o),
(524,787,cs)
);
}
);
width = 680;
}
);
note = abreve;
unicode = 259;
},
{
glyphname = Aogonek;
layers = (
{
layerId = m01;
shapes = (
{
closed = 1;
nodes = (
(265,705,l),
(8,0,l),
(214,0,l),
(252,115,l),
(502,115,l),
(539,4,l),
(503,-28,o),
(491,-61,o),
(491,-98,cs),
(491,-178,o),
(553,-220,o),
(645,-220,cs),
(684,-220,o),
(720,-214,o),
(751,-204,c),
(751,-99,l),
(720,-109,o),
(694,-114,o),
(673,-114,cs),
(646,-114,o),
(631,-103,o),
(631,-84,cs),
(631,-66,o),
(644,-46,o),
(702,-20,cs),
(747,0,l),
(491,705,l)
);
},
{
closed = 1;
nodes = (
(453,265,l),
(302,265,l),
(377,493,l)
);
}
);
width = 755;
}
);
note = Aogonek;
unicode = 260;
},
{
glyphname = aogonek;
layers = (
{
layerId = m01;
shapes = (
{
closed = 1;
nodes = (
(24,102,o),
(130,-7,o),
(263,-7,cs),
(342,-7,o),
(399,28,o),
(428,78,c),
(428,6,l),
(382,-29,o),
(367,-64,o),
(367,-103,cs),
(367,-178,o),
(429,-220,o),
(522,-220,cs),
(560,-220,o),
(596,-214,o),
(627,-204,c),
(627,-99,l),
(596,-109,o),
(569,-114,o),
(546,-114,cs),
(522,-114,o),
(507,-103,o),
(507,-87,cs),
(507,-66,o),
(527,-48,o),
(579,-22,cs),
(623,0,l),
(624,0,l),
(624,561,l),
(428,561,l),
(428,483,l),
(399,533,o),
(343,568,o),
(263,568,cs),
(130,568,o),
(24,460,o),
(24,281,cs)
);
},
{
closed = 1;
nodes = (
(428,205,o),
(381,164,o),
(326,164,cs),
(270,164,o),
(224,206,o),
(224,281,cs),
(224,357,o),
(270,397,o),
(326,397,cs),
(381,397,o),
(428,356,o),
(428,281,cs)
);
}
);
width = 680;
}
);
note = aogonek;
unicode = 261;
},
{
glyphname = Cacute;
layers = (
{
layerId = m01;
shapes = (
{
closed = 1;
nodes = (
(32,143,o),
(171,-5,o),
(383,-5,cs),
(560,-5,o),
(686,97,o),
(721,257,c),
(510,257,l),
(485,204,o),
(438,175,o),
(380,175,cs),
(290,175,o),
(231,245,o),
(231,354,cs),
(231,462,o),
(290,532,o),
(380,532,cs),
(438,532,o),
(485,503,o),
(510,450,c),
(721,450,l),
(686,610,o),
(560,712,o),
(383,712,cs),
(171,712,o),
(32,564,o),
(32,354,cs)
);
},
{
closed = 1;
nodes = (
(253,880,l),
(253,747,l),
(503,845,l),
(503,993,l)
);
}
);
width = 758;
}
);
note = Cacute;
unicode = 262;
},
{
glyphname = cacute;
layers = (
{
layerId = m01;
shapes = (
{
closed = 1;
nodes = (
(24,102,o),
(141,-7,o),
(308,-7,cs),
(450,-7,o),
(554,76,o),
(582,215,c),
(374,215,l),
(363,180,o),
(341,160,o),
(304,160,cs),
(256,160,o),
(224,200,o),
(224,281,cs),
(224,361,o),
(256,401,o),
(304,401,cs),
(341,401,o),
(363,380,o),
(374,346,c),
(582,346,l),
(554,487,o),
(450,568,o),
(308,568,cs),
(141,568,o),
(24,459,o),
(24,281,cs)
);
},
{
closed = 1;
nodes = (
(171,732,l),
(171,599,l),
(421,697,l),
(421,845,l)
);
}
);
width = 607;
}
);
note = cacute;
unicode = 263;
},
{
glyphname = Cdotaccent;
layers = (
{
layerId = m01;
shapes = (
{
closed = 1;
nodes = (
(32,143,o),
(171,-5,o),
(383,-5,cs),
(560,-5,o),
(686,97,o),
(721,257,c),
(510,257,l),
(485,204,o),
(438,175,o),
(380,175,cs),
(290,175,o),
(231,245,o),
(231,354,cs),
(231,462,o),
(290,532,o),
(380,532,cs),
(438,532,o),
(485,503,o),
(510,450,c),
(721,450,l),
(686,610,o),
(560,712,o),
(383,712,cs),
(171,712,o),
(32,564,o),
(32,354,cs)
);
},
{
closed = 1;
nodes = (
(425,768,o),
(460,802,o),
(460,847,cs),
(460,893,o),
(425,928,o),
(379,928,cs),
(334,928,o),
(300,893,o),
(300,847,cs),
(300,802,o),
(334,768,o),
(379,768,cs)
);
}
);
width = 758;
}
);
note = Cdotaccent;
unicode = 266;
},
{
glyphname = cdotaccent;
layers = (
{
layerId = m01;
shapes = (
{
closed = 1;
nodes = (
(24,102,o),
(141,-7,o),
(308,-7,cs),
(450,-7,o),
(554,76,o),
(582,215,c),
(374,215,l),
(363,180,o),
(341,160,o),
(304,160,cs),
(256,160,o),
(224,200,o),
(224,281,cs),
(224,361,o),
(256,401,o),
(304,401,cs),
(341,401,o),
(363,380,o),
(374,346,c),
(582,346,l),
(554,487,o),
(450,568,o),
(308,568,cs),
(141,568,o),
(24,459,o),
(24,281,cs)
);
},
{
closed = 1;
nodes = (
(344,620,o),
(379,654,o),
(379,699,cs),
(379,745,o),
(344,780,o),
(298,780,cs),
(253,780,o),
(219,745,o),
(219,699,cs),
(219,654,o),
(253,620,o),
(298,620,cs)
);
}
);
width = 607;
}
);
note = cdotaccent;
unicode = 267;
},
{
glyphname = Ccaron;
layers = (
{
layerId = m01;
shapes = (
{
closed = 1;
nodes = (
(32,143,o),
(171,-5,o),
(383,-5,cs),
(560,-5,o),
(686,97,o),
(721,257,c),
(510,257,l),
(485,204,o),
(438,175,o),
(380,175,cs),
(290,175,o),
(231,245,o),
(231,354,cs),
(231,462,o),
(290,532,o),
(380,532,cs),
(438,532,o),
(485,503,o),
(510,450,c),
(721,450,l),
(686,610,o),
(560,712,o),
(383,712,cs),
(171,712,o),
(32,564,o),
(32,354,cs)
);
},
{
closed = 1;
nodes = (
(381,868,l),
(220,955,l),
(220,824,l),
(381,747,l),
(540,824,l),
(540,955,l)
);
}
);
width = 758;
}
);
note = Ccaron;
unicode = 268;
},
{
glyphname = ccaron;
layers = (
{
layerId = m01;
shapes = (
{
closed = 1;
nodes = (
(24,102,o),
(141,-7,o),
(308,-7,cs),
(450,-7,o),
(554,76,o),
(582,215,c),
(374,215,l),
(363,180,o),
(341,160,o),
(304,160,cs),
(256,160,o),
(224,200,o),
(224,281,cs),
(224,361,o),
(256,401,o),
(304,401,cs),
(341,401,o),
(363,380,o),
(374,346,c),
(582,346,l),
(554,487,o),
(450,568,o),
(308,568,cs),
(141,568,o),
(24,459,o),
(24,281,cs)
);
},
{
closed = 1;
nodes = (
(300,720,l),
(139,807,l),
(139,676,l),
(300,599,l),
(459,676,l),
(459,807,l)
);
}
);
width = 607;
}
);
note = ccaron;
unicode = 269;
},
{
glyphname = Dcaron;
layers = (
{
layerId = m01;
shapes = (
{
closed = 1;
nodes = (
(56,705,l),
(56,0,l),
(335,0,ls),
(560,0,o),
(703,149,o),
(703,353,cs),
(703,560,o),
(560,705,o),
(335,705,cs)
);
},
{
closed = 1;
nodes = (
(252,173,l),
(252,535,l),
(320,535,ls),
(433,535,o),
(504,470,o),
(504,353,cs),
(504,237,o),
(433,173,o),
(320,173,cs)
);
},
{
closed = 1;
nodes = (
(358,867,l),
(197,954,l),
(197,823,l),
(358,746,l),
(517,823,l),
(517,954,l)
);
}
);
width = 735;
}
);
note = Dcaron;
unicode = 270;
},
{
glyphname = dcaron;
layers = (
{
layerId = m01;
shapes = (
{
closed = 1;
nodes = (
(682,740,l),
(682,606,l),
(749,606,l),
(749,591,ls),
(749,544,o),
(730,522,o),
(695,522,c),
(695,450,l),
(800,450,o),
(848,521,o),
(848,614,cs),
(848,653,o),
(841,696,o),
(825,740,c)
);
},
{
closed = 1;
nodes = (
(24,102,o),
(130,-7,o),
(263,-7,cs),
(342,-7,o),
(398,28,o),
(427,78,c),
(427,0,l),
(624,0,l),
(624,740,l),
(427,740,l),
(427,484,l),
(396,535,o),
(338,568,o),
(264,568,cs),
(130,568,o),
(24,460,o),
(24,281,cs)
);
},
{
closed = 1;
nodes = (
(428,205,o),
(381,164,o),
(326,164,cs),
(270,164,o),
(224,206,o),
(224,281,cs),
(224,357,o),
(270,397,o),
(326,397,cs),
(381,397,o),
(428,356,o),
(428,281,cs)
);
}
);
width = 858;
}
);
note = dcaron;
unicode = 271;
},
{
glyphname = Dcroat;
layers = (
{
layerId = m01;
shapes = (
{
closed = 1;
nodes = (
(58,705,l),
(58,433,l),
(2,433,l),
(2,274,l),
(58,274,l),
(58,0,l),
(338,0,ls),
(563,0,o),
(706,149,o),
(706,353,cs),
(706,560,o),
(563,705,o),
(338,705,cs)
);
},
{
closed = 1;
nodes = (
(255,172,l),
(255,274,l),
(397,274,l),
(397,433,l),
(255,433,l),
(255,535,l),
(322,535,ls),
(436,535,o),
(506,470,o),
(506,353,cs),
(506,237,o),
(436,172,o),
(322,172,cs)
);
}
);
width = 738;
}
);
note = Dcroat;
unicode = 272;
},
{
glyphname = dcroat;
layers = (
{
layerId = m01;
shapes = (
{
closed = 1;
nodes = (
(24,102,o),
(130,-7,o),
(263,-7,cs),
(342,-7,o),
(398,28,o),
(427,78,c),
(427,0,l),
(624,0,l),
(624,592,l),
(686,592,l),
(686,680,l),
(624,680,l),
(624,740,l),
(427,740,l),
(427,680,l),
(362,680,l),
(362,592,l),
(427,592,l),
(427,484,l),
(396,535,o),
(338,568,o),
(264,568,cs),
(130,568,o),
(24,460,o),
(24,281,cs)
);
},
{
closed = 1;
nodes = (
(428,205,o),
(381,164,o),
(326,164,cs),
(270,164,o),
(224,206,o),
(224,281,cs),
(224,357,o),
(270,397,o),
(326,397,cs),
(381,397,o),
(428,356,o),
(428,281,cs)
);
}
);
width = 698;
}
);
note = dcroat;
unicode = 273;
},
{
glyphname = Emacron;
layers = (
{
layerId = m01;
shapes = (
{
closed = 1;
nodes = (
(507,705,l),
(56,705,l),
(56,0,l),
(507,0,l),
(507,157,l),
(252,157,l),
(252,284,l),
(477,284,l),
(477,433,l),
(252,433,l),
(252,548,l),
(507,548,l)
);
},
{
closed = 1;
nodes = (
(70,772,l),
(486,772,l),
(486,904,l),
(70,904,l)
);
}
);
width = 548;
}
);
note = Emacron;
unicode = 274;
},
{
glyphname = emacron;
layers = (
{
layerId = m01;
shapes = (
{
closed = 1;
nodes = (
(353,413,o),
(392,386,o),
(392,336,c),
(219,336,l),
(228,387,o),
(261,413,o),
(308,413,cs)
);
},
{
closed = 1;
nodes = (
(371,194,l),
(360,171,o),
(339,150,o),
(301,150,cs),
(257,150,o),
(222,176,o),
(218,241,c),
(589,241,l),
(591,256,o),
(592,272,o),
(592,287,cs),
(592,461,o),
(475,568,o),
(309,568,cs),
(141,568,o),
(24,459,o),
(24,281,cs),
(24,102,o),
(143,-7,o),
(309,-7,cs),
(449,-7,o),
(554,79,o),
(580,194,c)
);
},
{
closed = 1;
nodes = (
(101,630,l),
(517,630,l),
(517,762,l),
(101,762,l)
);
}
);
width = 616;
}
);
note = emacron;
unicode = 275;
},
{
glyphname = Ebreve;
layers = (
{
layerId = m01;
shapes = (
{
closed = 1;
nodes = (
(507,705,l),
(56,705,l),
(56,0,l),
(507,0,l),
(507,157,l),
(252,157,l),
(252,284,l),
(477,284,l),
(477,433,l),
(252,433,l),
(252,548,l),
(507,548,l)
);
},
{
closed = 1;
nodes = (
(456,952,l),
(362,952,l),
(362,912,o),
(342,888,o),
(277,888,cs),
(212,888,o),
(192,912,o),
(192,952,c),
(98,952,l),
(98,934,ls),
(98,809,o),
(175,746,o),
(277,746,cs),
(380,746,o),
(456,809,o),
(456,934,cs)
);
}
);
width = 548;
}
);
note = Ebreve;
unicode = 276;
},
{
glyphname = ebreve;
layers = (
{
layerId = m01;
shapes = (
{
closed = 1;
nodes = (
(353,413,o),
(392,386,o),
(392,336,c),
(219,336,l),
(228,387,o),
(261,413,o),
(308,413,cs)
);
},
{
closed = 1;
nodes = (
(371,194,l),
(360,171,o),
(339,150,o),
(301,150,cs),
(257,150,o),
(222,176,o),
(218,241,c),
(589,241,l),
(591,256,o),
(592,272,o),
(592,287,cs),
(592,461,o),
(475,568,o),
(309,568,cs),
(141,568,o),
(24,459,o),
(24,281,cs),
(24,102,o),
(143,-7,o),
(309,-7,cs),
(449,-7,o),
(554,79,o),
(580,194,c)
);
},
{
closed = 1;
nodes = (
(487,810,l),
(393,810,l),
(393,770,o),
(373,746,o),
(308,746,cs),
(243,746,o),
(223,770,o),
(223,810,c),
(129,810,l),
(129,792,ls),
(129,667,o),
(206,604,o),
(308,604,cs),
(411,604,o),
(487,667,o),
(487,792,cs)
);
}
);
width = 616;
}
);
note = ebreve;
unicode = 277;
},
{
glyphname = Edotaccent;
layers = (
{
layerId = m01;
shapes = (
{
closed = 1;
nodes = (
(507,705,l),
(56,705,l),
(56,0,l),
(507,0,l),
(507,157,l),
(252,157,l),
(252,284,l),
(477,284,l),
(477,433,l),
(252,433,l),
(252,548,l),
(507,548,l)
);
},
{
closed = 1;
nodes = (
(322,767,o),
(357,801,o),
(357,846,cs),
(357,892,o),
(322,927,o),
(276,927,cs),
(231,927,o),
(197,892,o),
(197,846,cs),
(197,801,o),
(231,767,o),
(276,767,cs)
);
}
);
width = 548;
}
);
note = Edotaccent;
unicode = 278;
},
{
glyphname = edotaccent;
layers = (
{
layerId = m01;
shapes = (
{
closed = 1;
nodes = (
(353,413,o),
(392,386,o),
(392,336,c),
(219,336,l),
(228,387,o),
(261,413,o),
(308,413,cs)
);
},
{
closed = 1;
nodes = (
(371,194,l),
(360,171,o),
(339,150,o),
(301,150,cs),
(257,150,o),
(222,176,o),
(218,241,c),
(589,241,l),
(591,256,o),
(592,272,o),
(592,287,cs),
(592,461,o),
(475,568,o),
(309,568,cs),
(141,568,o),
(24,459,o),
(24,281,cs),
(24,102,o),
(143,-7,o),
(309,-7,cs),
(449,-7,o),
(554,79,o),
(580,194,c)
);
},
{
closed = 1;
nodes = (
(353,625,o),
(388,659,o),
(388,704,cs),
(388,750,o),
(353,785,o),
(307,785,cs),
(262,785,o),
(228,750,o),
(228,704,cs),
(228,659,o),
(262,625,o),
(307,625,cs)
);
}
);
width = 616;
}
);
note = edotaccent;
unicode = 279;
},
{
glyphname = Eogonek;
layers = (
{
layerId = m01;
shapes = (
{
closed = 1;
nodes = (
(507,705,l),
(56,705,l),
(56,0,l),
(304,0,l),
(264,-33,o),
(251,-66,o),
(251,-103,cs),
(251,-178,o),
(313,-220,o),
(406,-220,cs),
(444,-220,o),
(480,-214,o),
(511,-204,c),
(511,-99,l),
(480,-109,o),
(453,-114,o),
(430,-114,cs),
(406,-114,o),
(391,-103,o),
(391,-87,cs),
(391,-66,o),
(411,-48,o),
(463,-22,cs),
(507,0,l),
(507,157,l),
(252,157,l),
(252,284,l),
(477,284,l),
(477,433,l),
(252,433,l),
(252,548,l),
(507,548,l)
);
}
);
width = 548;
}
);
note = Eogonek;
unicode = 280;
},
{
glyphname = eogonek;
layers = (
{
layerId = m01;
shapes = (
{
closed = 1;
nodes = (
(353,413,o),
(392,386,o),
(392,336,c),
(219,336,l),
(228,387,o),
(261,413,o),
(308,413,cs)
);
},
{
closed = 1;
nodes = (
(410,-90,l),
(379,-100,o),
(352,-105,o),
(329,-105,cs),
(305,-105,o),
(290,-94,o),
(290,-78,cs),
(290,-57,o),
(310,-39,o),
(362,-13,cs),
(401,6,l),
(494,35,o),
(560,106,o),
(580,194,c),
(371,194,l),
(360,171,o),
(339,150,o),
(301,150,cs),
(257,150,o),
(222,176,o),
(218,241,c),
(589,241,l),
(591,256,o),
(592,272,o),
(592,287,cs),
(592,461,o),
(475,568,o),
(309,568,cs),
(141,568,o),
(24,459,o),
(24,281,cs),
(24,143,o),
(95,46,o),
(204,9,c),
(163,-24,o),
(150,-57,o),
(150,-94,cs),
(150,-169,o),
(212,-211,o),
(305,-211,cs),
(343,-211,o),
(379,-205,o),
(410,-195,c)
);
}
);
width = 616;
}
);
note = eogonek;
unicode = 281;
},
{
glyphname = Ecaron;
layers = (
{
layerId = m01;
shapes = (
{
closed = 1;
nodes = (
(507,705,l),
(56,705,l),
(56,0,l),
(507,0,l),
(507,157,l),
(252,157,l),
(252,284,l),
(477,284,l),
(477,433,l),
(252,433,l),
(252,548,l),
(507,548,l)
);
},
{
closed = 1;
nodes = (
(278,867,l),
(117,954,l),
(117,823,l),
(278,746,l),
(437,823,l),
(437,954,l)
);
}
);
width = 548;
}
);
note = Ecaron;
unicode = 282;
},
{
glyphname = ecaron;
layers = (
{
layerId = m01;
shapes = (
{
closed = 1;
nodes = (
(353,413,o),
(392,386,o),
(392,336,c),
(219,336,l),
(228,387,o),
(261,413,o),
(308,413,cs)
);
},
{
closed = 1;
nodes = (
(371,194,l),
(360,171,o),
(339,150,o),
(301,150,cs),
(257,150,o),
(222,176,o),
(218,241,c),
(589,241,l),
(591,256,o),
(592,272,o),
(592,287,cs),
(592,461,o),
(475,568,o),
(309,568,cs),
(141,568,o),
(24,459,o),
(24,281,cs),
(24,102,o),
(143,-7,o),
(309,-7,cs),
(449,-7,o),
(554,79,o),
(580,194,c)
);
},
{
closed = 1;
nodes = (
(309,725,l),
(148,812,l),
(148,681,l),
(309,604,l),
(468,681,l),
(468,812,l)
);
}
);
width = 616;
}
);
note = ecaron;
unicode = 283;
},
{
glyphname = Gbreve;
layers = (
{
layerId = m01;
shapes = (
{
closed = 1;
nodes = (
(173,712,o),
(32,564,o),
(32,354,cs),
(32,143,o),
(174,-5,o),
(390,-5,cs),
(574,-5,o),
(683,109,o),
(725,212,c),
(725,402,l),
(359,402,l),
(359,261,l),
(556,261,l),
(527,200,o),
(477,168,o),
(409,168,cs),
(293,168,o),
(231,233,o),
(231,354,cs),
(231,462,o),
(291,531,o),
(390,531,cs),
(444,531,o),
(484,510,o),
(506,473,c),
(717,473,l),
(689,620,o),
(567,712,o),
(389,712,cs)
);
},
{
closed = 1;
nodes = (
(558,952,l),
(464,952,l),
(464,912,o),
(444,888,o),
(379,888,cs),
(314,888,o),
(294,912,o),
(294,952,c),
(200,952,l),
(200,934,ls),
(200,809,o),
(277,746,o),
(379,746,cs),
(482,746,o),
(558,809,o),
(558,934,cs)
);
}
);
width = 757;
}
);
note = Gbreve;
unicode = 286;
},
{
glyphname = gbreve;
layers = (
{
layerId = m01;
shapes = (
{
closed = 1;
nodes = (
(24,102,o),
(130,-7,o),
(263,-7,cs),
(342,-7,o),
(399,28,o),
(428,78,c),
(428,6,ls),
(428,-81,o),
(383,-106,o),
(328,-106,cs),
(278,-106,o),
(244,-85,o),
(236,-49,c),
(43,-49,l),
(57,-188,o),
(165,-276,o),
(340,-276,cs),
(542,-276,o),
(624,-144,o),
(624,6,cs),
(624,561,l),
(428,561,l),
(428,483,l),
(399,533,o),
(342,568,o),
(263,568,cs),
(130,568,o),
(24,460,o),
(24,281,cs)
);
},
{
closed = 1;
nodes = (
(428,205,o),
(381,164,o),
(326,164,cs),
(270,164,o),
(224,206,o),
(224,281,cs),
(224,357,o),
(270,397,o),
(326,397,cs),
(381,397,o),
(428,356,o),
(428,281,cs)
);
},
{
closed = 1;
nodes = (
(524,805,l),
(430,805,l),
(430,765,o),
(410,741,o),
(345,741,cs),
(280,741,o),
(260,765,o),
(260,805,c),
(166,805,l),
(166,787,ls),
(166,662,o),
(243,599,o),
(345,599,cs),
(448,599,o),
(524,662,o),
(524,787,cs)
);
}
);
width = 680;
}
);
note = gbreve;
unicode = 287;
},
{
glyphname = Gdotaccent;
layers = (
{
layerId = m01;
shapes = (
{
closed = 1;
nodes = (
(173,712,o),
(32,564,o),
(32,354,cs),
(32,143,o),
(174,-5,o),
(390,-5,cs),
(574,-5,o),
(683,109,o),
(725,212,c),
(725,402,l),
(359,402,l),
(359,261,l),
(556,261,l),
(527,200,o),
(477,168,o),
(409,168,cs),
(293,168,o),
(231,233,o),
(231,354,cs),
(231,462,o),
(291,531,o),
(390,531,cs),
(444,531,o),
(484,510,o),
(506,473,c),
(717,473,l),
(689,620,o),
(567,712,o),
(389,712,cs)
);
},
{
closed = 1;
nodes = (
(423,767,o),
(458,801,o),
(458,846,cs),
(458,892,o),
(423,927,o),
(377,927,cs),
(332,927,o),
(298,892,o),
(298,846,cs),
(298,801,o),
(332,767,o),
(377,767,cs)
);
}
);
width = 757;
}
);
note = Gdotaccent;
unicode = 288;
},
{
glyphname = gdotaccent;
layers = (
{
layerId = m01;
shapes = (
{
closed = 1;
nodes = (
(24,102,o),
(130,-7,o),
(263,-7,cs),
(342,-7,o),
(399,28,o),
(428,78,c),
(428,6,ls),
(428,-81,o),
(383,-106,o),
(328,-106,cs),
(278,-106,o),
(244,-85,o),
(236,-49,c),
(43,-49,l),
(57,-188,o),
(165,-276,o),
(340,-276,cs),
(542,-276,o),
(624,-144,o),
(624,6,cs),
(624,561,l),
(428,561,l),
(428,483,l),
(399,533,o),
(342,568,o),
(263,568,cs),
(130,568,o),
(24,460,o),
(24,281,cs)
);
},
{
closed = 1;
nodes = (
(428,205,o),
(381,164,o),
(326,164,cs),
(270,164,o),
(224,206,o),
(224,281,cs),
(224,357,o),
(270,397,o),
(326,397,cs),
(381,397,o),
(428,356,o),
(428,281,cs)
);
},
{
closed = 1;
nodes = (
(389,620,o),
(424,654,o),
(424,699,cs),
(424,745,o),
(389,780,o),
(343,780,cs),
(298,780,o),
(264,745,o),
(264,699,cs),
(264,654,o),
(298,620,o),
(343,620,cs)
);
}
);
width = 680;
}
);
note = gdotaccent;
unicode = 289;
},
{
glyphname = uni0122;
layers = (
{
layerId = m01;
shapes = (
{
closed = 1;
nodes = (
(306,-38,l),
(306,-173,l),
(374,-173,l),
(374,-186,ls),
(374,-235,o),
(355,-257,o),
(320,-257,c),
(320,-328,l),
(425,-328,o),
(473,-257,o),
(473,-164,cs),
(473,-125,o),
(465,-82,o),
(450,-38,c)
);
},
{
closed = 1;
nodes = (
(173,712,o),
(32,564,o),
(32,354,cs),
(32,143,o),
(174,-5,o),
(390,-5,cs),
(574,-5,o),
(683,109,o),
(725,212,c),
(725,402,l),
(359,402,l),
(359,261,l),
(556,261,l),
(527,200,o),
(477,168,o),
(409,168,cs),
(293,168,o),
(231,233,o),
(231,354,cs),
(231,462,o),
(291,531,o),
(390,531,cs),
(444,531,o),
(484,510,o),
(506,473,c),
(717,473,l),
(689,620,o),
(567,712,o),
(389,712,cs)
);
}
);
width = 760;
}
);
note = uni0122;
unicode = 290;
},
{
glyphname = uni0123;
layers = (
{
layerId = m01;
shapes = (
{
closed = 1;
nodes = (
(427,599,l),
(427,734,l),
(360,734,l),
(360,747,ls),
(360,796,o),
(380,818,o),
(413,818,c),
(413,889,l),
(310,889,o),
(262,818,o),
(262,725,cs),
(262,686,o),
(268,643,o),
(284,599,c)
);
},
{
closed = 1;
nodes = (
(24,102,o),
(130,-7,o),
(263,-7,cs),
(342,-7,o),
(399,28,o),
(428,78,c),
(428,6,ls),
(428,-81,o),
(383,-106,o),
(328,-106,cs),
(278,-106,o),
(244,-85,o),
(236,-49,c),
(43,-49,l),
(57,-188,o),
(165,-276,o),
(340,-276,cs),
(542,-276,o),
(624,-144,o),
(624,6,cs),
(624,561,l),
(428,561,l),
(428,483,l),
(399,533,o),
(342,568,o),
(263,568,cs),
(130,568,o),
(24,460,o),
(24,281,cs)
);
},
{
closed = 1;
nodes = (
(428,205,o),
(381,164,o),
(326,164,cs),
(270,164,o),
(224,206,o),
(224,281,cs),
(224,357,o),
(270,397,o),
(326,397,cs),
(381,397,o),
(428,356,o),
(428,281,cs)
);
}
);
width = 680;
}
);
note = uni0123;
unicode = 291;
},
{
glyphname = Itilde;
layers = (
{
layerId = m01;
shapes = (
{
closed = 1;
nodes = (
(56,0,l),
(252,0,l),
(252,705,l),
(56,705,l)
);
},
{
closed = 1;
nodes = (
(35,750,l),
(41,782,o),
(56,796,o),
(80,796,cs),
(120,796,o),
(155,751,o),
(217,751,cs),
(293,751,o),
(347,796,o),
(367,913,c),
(268,913,l),
(263,882,o),
(248,867,o),
(224,867,cs),
(184,867,o),
(149,913,o),
(87,913,cs),
(11,913,o),
(-43,867,o),
(-63,750,c)
);
}
);
width = 308;
}
);
note = Itilde;
unicode = 296;
},
{
glyphname = itilde;
layers = (
{
layerId = m01;
shapes = (
{
closed = 1;
nodes = (
(75,0,l),
(272,0,l),
(272,561,l),
(75,561,l)
);
},
{
closed = 1;
nodes = (
(54,603,l),
(60,635,o),
(75,649,o),
(99,649,cs),
(139,649,o),
(174,604,o),
(236,604,cs),
(312,604,o),
(366,649,o),
(386,766,c),
(287,766,l),
(282,735,o),
(267,720,o),
(243,720,cs),
(203,720,o),
(168,766,o),
(106,766,cs),
(30,766,o),
(-24,720,o),
(-44,603,c)
);
}
);
width = 347;
}
);
note = itilde;
unicode = 297;
},
{
glyphname = Imacron;
layers = (
{
layerId = m01;
shapes = (
{
closed = 1;
nodes = (
(56,0,l),
(252,0,l),
(252,705,l),
(56,705,l)
);
},
{
closed = 1;
nodes = (
(-53,772,l),
(363,772,l),
(363,904,l),
(-53,904,l)
);
}
);
width = 308;
}
);
note = Imacron;
unicode = 298;
},
{
glyphname = imacron;
layers = (
{
layerId = m01;
shapes = (
{
closed = 1;
nodes = (
(75,0,l),
(272,0,l),
(272,561,l),
(75,561,l)
);
},
{
closed = 1;
nodes = (
(-33,625,l),
(383,625,l),
(383,757,l),
(-33,757,l)
);
}
);
width = 347;
}
);
note = imacron;
unicode = 299;
},
{
glyphname = uni012C;
layers = (
{
layerId = m01;
shapes = (
{
closed = 1;
nodes = (
(56,0,l),
(252,0,l),
(252,705,l),
(56,705,l)
);
},
{
closed = 1;
nodes = (
(334,952,l),
(240,952,l),
(240,912,o),
(220,888,o),
(155,888,cs),
(90,888,o),
(70,912,o),
(70,952,c),
(-24,952,l),
(-24,934,ls),
(-24,809,o),
(53,746,o),
(155,746,cs),
(258,746,o),
(334,809,o),
(334,934,cs)
);
}
);
width = 308;
}
);
note = uni012C;
unicode = 300;
},
{
glyphname = uni012D;
layers = (
{
layerId = m01;
shapes = (
{
closed = 1;
nodes = (
(75,0,l),
(272,0,l),
(272,561,l),
(75,561,l)
);
},
{
closed = 1;
nodes = (
(353,805,l),
(259,805,l),
(259,765,o),
(239,741,o),
(174,741,cs),
(109,741,o),
(89,765,o),
(89,805,c),
(-5,805,l),
(-5,787,ls),
(-5,662,o),
(72,599,o),
(174,599,cs),
(277,599,o),
(353,662,o),
(353,787,cs)
);
}
);
width = 347;
}
);
note = uni012D;
unicode = 301;
},
{
glyphname = Iogonek;
layers = (
{
layerId = m01;
shapes = (
{
closed = 1;
nodes = (
(256,-99,l),
(225,-109,o),
(198,-114,o),
(175,-114,cs),
(151,-114,o),
(136,-103,o),
(136,-87,cs),
(136,-66,o),
(156,-48,o),
(208,-22,cs),
(252,0,l),
(252,705,l),
(56,705,l),
(56,5,l),
(11,-30,o),
(-4,-64,o),
(-4,-103,cs),
(-4,-178,o),
(58,-220,o),
(151,-220,cs),
(189,-220,o),
(225,-214,o),
(256,-204,c)
);
}
);
width = 308;
}
);
note = Iogonek;
unicode = 302;
},
{
glyphname = iogonek;
layers = (
{
layerId = m01;
shapes = (
{
closed = 1;
nodes = (
(256,-100,l),
(225,-110,o),
(198,-115,o),
(175,-115,cs),
(151,-115,o),
(136,-104,o),
(136,-88,cs),
(136,-67,o),
(156,-49,o),
(208,-23,cs),
(252,-1,l),
(252,0,l),
(252,0,l),
(252,561,l),
(56,561,l),
(56,4,l),
(11,-31,o),
(-4,-65,o),
(-4,-104,cs),
(-4,-179,o),
(58,-221,o),
(151,-221,cs),
(189,-221,o),
(225,-215,o),
(256,-205,c)
);
},
{
closed = 1;
nodes = (
(224,613,o),
(269,657,o),
(269,713,cs),
(269,770,o),
(224,815,o),
(155,815,cs),
(85,815,o),
(40,770,o),
(40,713,cs),
(40,657,o),
(85,613,o),
(155,613,cs)
);
}
);
width = 308;
}
);
note = iogonek;
unicode = 303;
},
{
glyphname = Idotaccent;
layers = (
{
layerId = m01;
shapes = (
{
closed = 1;
nodes = (
(56,0,l),
(252,0,l),
(252,705,l),
(56,705,l)
);
},
{
closed = 1;
nodes = (
(199,767,o),
(234,801,o),
(234,846,cs),
(234,892,o),
(199,927,o),
(153,927,cs),
(108,927,o),
(74,892,o),
(74,846,cs),
(74,801,o),
(108,767,o),
(153,767,cs)
);
}
);
width = 308;
}
);
note = Idotaccent;
unicode = 304;
},
{
glyphname = dotlessi;
layers = (
{
layerId = m01;
shapes = (
{
closed = 1;
nodes = (
(75,0,l),
(272,0,l),
(272,561,l),
(75,561,l)
);
}
);
width = 347;
}
);
note = dotlessi;
unicode = 305;
},
{
glyphname = uni0136;
layers = (
{
layerId = m01;
shapes = (
{
closed = 1;
nodes = (
(306,-38,l),
(306,-173,l),
(373,-173,l),
(373,-186,ls),
(373,-235,o),
(353,-257,o),
(320,-257,c),
(320,-328,l),
(424,-328,o),
(471,-257,o),
(471,-164,cs),
(471,-125,o),
(465,-82,o),
(449,-38,c)
);
},
{
closed = 1;
nodes = (
(473,0,l),
(710,0,l),
(438,363,l),
(697,705,l),
(471,705,l),
(252,401,l),
(252,705,l),
(56,705,l),
(56,0,l),
(252,0,l),
(252,309,l)
);
}
);
width = 759;
}
);
note = uni0136;
unicode = 310;
},
{
glyphname = uni0137;
layers = (
{
layerId = m01;
shapes = (
{
closed = 1;
nodes = (
(253,-38,l),
(253,-173,l),
(320,-173,l),
(320,-186,ls),
(320,-235,o),
(301,-257,o),
(267,-257,c),
(267,-328,l),
(371,-328,o),
(418,-257,o),
(418,-164,cs),
(418,-125,o),
(412,-82,o),
(396,-38,c)
);
},
{
closed = 1;
nodes = (
(56,0,l),
(252,0,l),
(252,230,l),
(407,0,l),
(646,0,l),
(421,279,l),
(642,561,l),
(407,561,l),
(252,341,l),
(252,740,l),
(56,740,l)
);
}
);
width = 647;
}
);
note = uni0137;
unicode = 311;
},
{
glyphname = Lacute;
layers = (
{
layerId = m01;
shapes = (
{
closed = 1;
nodes = (
(56,705,l),
(56,0,l),
(471,0,l),
(471,150,l),
(252,150,l),
(252,705,l)
);
},
{
closed = 1;
nodes = (
(101,879,l),
(101,746,l),
(351,844,l),
(351,992,l)
);
}
);
width = 491;
}
);
note = Lacute;
unicode = 313;
},
{
glyphname = lacute;
layers = (
{
layerId = m01;
shapes = (
{
closed = 1;
nodes = (
(56,0,l),
(252,0,l),
(252,740,l),
(56,740,l)
);
},
{
closed = 1;
nodes = (
(27,911,l),
(27,778,l),
(277,876,l),
(277,1024,l)
);
}
);
width = 308;
}
);
note = lacute;
unicode = 314;
},
{
glyphname = uni013B;
layers = (
{
layerId = m01;
shapes = (
{
closed = 1;
nodes = (
(206,-38,l),
(206,-173,l),
(274,-173,l),
(274,-186,ls),
(274,-235,o),
(255,-257,o),
(220,-257,c),
(220,-328,l),
(325,-328,o),
(373,-257,o),
(373,-164,cs),
(373,-125,o),
(366,-82,o),
(349,-38,c)
);
},
{
closed = 1;
nodes = (
(56,705,l),
(56,0,l),
(471,0,l),
(471,150,l),
(252,150,l),
(252,705,l)
);
}
);
width = 495;
}
);
note = uni013B;
unicode = 315;
},
{
glyphname = uni013C;
layers = (
{
layerId = m01;
shapes = (
{
closed = 1;
nodes = (
(85,-38,l),
(85,-173,l),
(152,-173,l),
(152,-186,ls),
(152,-235,o),
(133,-257,o),
(99,-257,c),
(99,-328,l),
(203,-328,o),
(251,-257,o),
(251,-164,cs),
(251,-125,o),
(244,-82,o),
(228,-38,c)
);
},
{
closed = 1;
nodes = (
(56,0,l),
(252,0,l),
(252,740,l),
(56,740,l)
);
}
);
width = 308;
}
);
note = uni013C;
unicode = 316;
},
{
glyphname = Lcaron;
layers = (
{
layerId = m01;
shapes = (
{
closed = 1;
nodes = (
(352,705,l),
(352,571,l),
(420,571,l),
(420,557,ls),
(420,509,o),
(400,487,o),
(366,487,c),
(366,414,l),
(470,414,o),
(518,485,o),
(518,579,cs),
(518,618,o),
(512,661,o),
(496,705,c)
);
},
{
closed = 1;
nodes = (
(56,705,l),
(56,0,l),
(471,0,l),
(471,150,l),
(252,150,l),
(252,705,l)
);
}
);
width = 550;
}
);
note = Lcaron;
unicode = 317;
},
{
glyphname = lcaron;
layers = (
{
layerId = m01;
shapes = (
{
closed = 1;
nodes = (
(311,740,l),
(311,606,l),
(379,606,l),
(379,591,ls),
(379,544,o),
(359,522,o),
(325,522,c),
(325,450,l),
(429,450,o),
(477,521,o),
(477,614,cs),
(477,653,o),
(471,696,o),
(455,740,c)
);
},
{
closed = 1;
nodes = (
(56,0,l),
(252,0,l),
(252,740,l),
(56,740,l)
);
}
);
width = 495;
}
);
note = lcaron;
unicode = 318;
},
{
glyphname = Ldot;
layers = (
{
layerId = m01;
shapes = (
{
closed = 1;
nodes = (
(56,705,l),
(56,0,l),
(471,0,l),
(471,150,l),
(252,150,l),
(252,705,l)
);
},
{
closed = 1;
nodes = (
(273,767,o),
(308,801,o),
(308,846,cs),
(308,892,o),
(273,927,o),
(227,927,cs),
(182,927,o),
(148,892,o),
(148,846,cs),
(148,801,o),
(182,767,o),
(227,767,cs)
);
}
);
width = 491;
}
);
note = Ldot;
unicode = 319;
},
{
glyphname = ldot;
layers = (
{
layerId = m01;
shapes = (
{
closed = 1;
nodes = (
(199,789,o),
(234,823,o),
(234,868,cs),
(234,914,o),
(199,948,o),
(153,948,cs),
(109,948,o),
(74,914,o),
(74,868,cs),
(74,823,o),
(109,789,o),
(153,789,cs)
);
},
{
closed = 1;
nodes = (
(56,0,l),
(252,0,l),
(252,740,l),
(56,740,l)
);
}
);
width = 308;
}
);
note = ldot;
unicode = 320;
},
{
glyphname = Lslash;
layers = (
{
layerId = m01;
shapes = (
{
closed = 1;
nodes = (
(70,705,l),
(70,434,l),
(10,417,l),
(10,247,l),
(70,264,l),
(70,0,l),
(485,0,l),
(485,149,l),
(267,149,l),
(267,320,l),
(346,343,l),
(346,513,l),
(267,490,l),
(267,705,l)
);
}
);
width = 503;
}
);
note = Lslash;
unicode = 321;
},
{
glyphname = lslash;
layers = (
{
layerId = m01;
shapes = (
{
closed = 1;
nodes = (
(75,0,l),
(272,0,l),
(272,324,l),
(337,343,l),
(337,513,l),
(272,494,l),
(272,740,l),
(75,740,l),
(75,438,l),
(10,419,l),
(10,249,l),
(75,268,l)
);
}
);
width = 347;
}
);
note = lslash;
unicode = 322;
},
{
glyphname = Nacute;
layers = (
{
layerId = m01;
shapes = (
{
closed = 1;
nodes = (
(513,705,l),
(513,306,l),
(252,705,l),
(56,705,l),
(56,0,l),
(252,0,l),
(252,394,l),
(513,0,l),
(709,0,l),
(709,705,l)
);
},
{
closed = 1;
nodes = (
(254,879,l),
(254,746,l),
(504,844,l),
(504,992,l)
);
}
);
width = 765;
}
);
note = Nacute;
unicode = 323;
},
{
glyphname = nacute;
layers = (
{
layerId = m01;
shapes = (
{
closed = 1;
nodes = (
(245,732,l),
(245,599,l),
(495,697,l),
(495,845,l)
);
},
{
closed = 1;
nodes = (
(438,0,l),
(634,0,l),
(634,327,ls),
(634,474,o),
(553,566,o),
(423,566,cs),
(344,566,o),
(285,529,o),
(252,481,c),
(252,561,l),
(56,561,l),
(56,0,l),
(252,0,l),
(252,301,ls),
(252,366,o),
(288,404,o),
(346,404,cs),
(402,404,o),
(438,366,o),
(438,301,cs)
);
}
);
width = 686;
}
);
note = nacute;
unicode = 324;
},
{
glyphname = uni0145;
layers = (
{
layerId = m01;
shapes = (
{
closed = 1;
nodes = (
(327,-38,l),
(327,-173,l),
(395,-173,l),
(395,-186,ls),
(395,-235,o),
(376,-257,o),
(342,-257,c),
(342,-328,l),
(446,-328,o),
(494,-257,o),
(494,-164,cs),
(494,-125,o),
(487,-82,o),
(471,-38,c)
);
},
{
closed = 1;
nodes = (
(513,705,l),
(513,306,l),
(252,705,l),
(56,705,l),
(56,0,l),
(252,0,l),
(252,394,l),
(513,0,l),
(709,0,l),
(709,705,l)
);
}
);
width = 804;
}
);
note = uni0145;
unicode = 325;
},
